<mxfile host="app.diagrams.net" modified="2024-05-27T15:01:21.172Z" agent="Mozilla/5.0 (Windows NT 10.0; Win64; x64; rv:126.0) Gecko/20100101 Firefox/126.0" etag="M_WSHHNSy72j0YADwGIL" version="24.4.9" type="github">
  <diagram id="C5RBs43oDa-KdzZeNtuy" name="Page-1">
    <mxGraphModel dx="1366" dy="1914" grid="1" gridSize="10" guides="1" tooltips="1" connect="1" arrows="1" fold="1" page="1" pageScale="1" pageWidth="827" pageHeight="1169" math="0" shadow="0">
      <root>
        <mxCell id="WIyWlLk6GJQsqaUBKTNV-0" />
        <mxCell id="WIyWlLk6GJQsqaUBKTNV-1" parent="WIyWlLk6GJQsqaUBKTNV-0" />
        <mxCell id="_7KpmntLeHWkFB2YpqdL-5" value="&lt;div style=&quot;color: #d4d4d4;background-color: #1e1e1e;font-family: &#39;Fira Code&#39;, Consolas, &#39;Courier New&#39;, monospace;font-weight: normal;font-size: 13px;line-height: 18px;white-space: pre;&quot;&gt;&lt;div&gt;&lt;span style=&quot;color: #569cd6;&quot;&gt;static class&lt;/span&gt;&lt;span style=&quot;color: #d4d4d4;&quot;&gt; &lt;/span&gt;&lt;span style=&quot;color: #4ec9b0;&quot;&gt;Lexer&lt;/span&gt;&lt;/div&gt;&lt;/div&gt;" style="swimlane;fontStyle=1;align=center;verticalAlign=top;childLayout=stackLayout;horizontal=1;startSize=26;horizontalStack=0;resizeParent=1;resizeParentMax=0;resizeLast=0;collapsible=1;marginBottom=0;whiteSpace=wrap;html=1;" vertex="1" parent="WIyWlLk6GJQsqaUBKTNV-1">
          <mxGeometry x="80" y="50" width="240" height="150" as="geometry" />
        </mxCell>
        <mxCell id="_7KpmntLeHWkFB2YpqdL-6" value="-" style="text;strokeColor=none;fillColor=none;align=left;verticalAlign=top;spacingLeft=4;spacingRight=4;overflow=hidden;rotatable=0;points=[[0,0.5],[1,0.5]];portConstraint=eastwest;whiteSpace=wrap;html=1;" vertex="1" parent="_7KpmntLeHWkFB2YpqdL-5">
          <mxGeometry y="26" width="240" height="26" as="geometry" />
        </mxCell>
        <mxCell id="_7KpmntLeHWkFB2YpqdL-7" value="" style="line;strokeWidth=1;fillColor=none;align=left;verticalAlign=middle;spacingTop=-1;spacingLeft=3;spacingRight=3;rotatable=0;labelPosition=right;points=[];portConstraint=eastwest;strokeColor=inherit;" vertex="1" parent="_7KpmntLeHWkFB2YpqdL-5">
          <mxGeometry y="52" width="240" height="8" as="geometry" />
        </mxCell>
        <mxCell id="_7KpmntLeHWkFB2YpqdL-8" value="&lt;div&gt;&lt;div style=&quot;color: #d4d4d4;background-color: #1e1e1e;font-family: &#39;Fira Code&#39;, Consolas, &#39;Courier New&#39;, monospace;font-weight: normal;font-size: 13px;line-height: 18px;white-space: pre;&quot;&gt;&lt;div&gt;&lt;b&gt;&lt;span style=&quot;color: #dcdcaa;&quot;&gt;lex()&lt;/span&gt;&lt;/b&gt;&lt;/div&gt;&lt;/div&gt;&lt;/div&gt;&lt;div&gt;&lt;br&gt;&lt;/div&gt;&lt;div style=&quot;color: #d4d4d4;background-color: #1e1e1e;font-family: &#39;Fira Code&#39;, Consolas, &#39;Courier New&#39;, monospace;font-weight: normal;font-size: 13px;line-height: 18px;white-space: pre;&quot;&gt;&lt;div&gt;&lt;span style=&quot;color: #dcdcaa;&quot;&gt;+ separateBooleanIdentifiers&lt;/span&gt;&lt;span style=&quot;color: #d4d4d4;&quot;&gt;(&lt;/span&gt;&lt;span style=&quot;color: #d4d4d4;&quot;&gt;)&lt;/span&gt;&lt;/div&gt;&lt;/div&gt;&lt;div&gt;&lt;div&gt;&lt;br&gt;&lt;/div&gt;&lt;div style=&quot;color: #d4d4d4;background-color: #1e1e1e;font-family: &#39;Fira Code&#39;, Consolas, &#39;Courier New&#39;, monospace;font-weight: normal;font-size: 13px;line-height: 18px;white-space: pre;&quot;&gt;&lt;div&gt;&lt;span style=&quot;color: #dcdcaa;&quot;&gt;+ mergeOrSplitKnownSigns&lt;/span&gt;&lt;span style=&quot;color: #d4d4d4;&quot;&gt;(&lt;/span&gt;&lt;span style=&quot;color: #d4d4d4;&quot;&gt;)&lt;/span&gt;&lt;/div&gt;&lt;/div&gt;&lt;/div&gt;" style="text;strokeColor=none;fillColor=none;align=left;verticalAlign=top;spacingLeft=4;spacingRight=4;overflow=hidden;rotatable=0;points=[[0,0.5],[1,0.5]];portConstraint=eastwest;whiteSpace=wrap;html=1;" vertex="1" parent="_7KpmntLeHWkFB2YpqdL-5">
          <mxGeometry y="60" width="240" height="90" as="geometry" />
        </mxCell>
        <mxCell id="_7KpmntLeHWkFB2YpqdL-16" value="&lt;div style=&quot;color: #d4d4d4;background-color: #1e1e1e;font-family: &#39;Fira Code&#39;, Consolas, &#39;Courier New&#39;, monospace;font-weight: normal;font-size: 13px;line-height: 18px;white-space: pre;&quot;&gt;&lt;div&gt;&lt;div style=&quot;color: #d4d4d4;background-color: #1e1e1e;font-family: &#39;Fira Code&#39;, Consolas, &#39;Courier New&#39;, monospace;font-weight: normal;font-size: 13px;line-height: 18px;white-space: pre;&quot;&gt;&lt;div&gt;&lt;span style=&quot;color: #569cd6;&quot;&gt;static &lt;/span&gt;&lt;span style=&quot;color: #569cd6;&quot;&gt;class&lt;/span&gt;&lt;span style=&quot;color: #d4d4d4;&quot;&gt; &lt;/span&gt;&lt;span style=&quot;color: #4ec9b0;&quot;&gt;Parser&lt;/span&gt;&lt;/div&gt;&lt;/div&gt;&lt;/div&gt;&lt;/div&gt;" style="swimlane;fontStyle=1;align=center;verticalAlign=top;childLayout=stackLayout;horizontal=1;startSize=26;horizontalStack=0;resizeParent=1;resizeParentMax=0;resizeLast=0;collapsible=1;marginBottom=0;whiteSpace=wrap;html=1;" vertex="1" parent="WIyWlLk6GJQsqaUBKTNV-1">
          <mxGeometry x="80" y="345" width="240" height="380" as="geometry" />
        </mxCell>
        <mxCell id="_7KpmntLeHWkFB2YpqdL-17" value="&lt;div style=&quot;color: #d4d4d4;background-color: #1e1e1e;font-family: &#39;Fira Code&#39;, Consolas, &#39;Courier New&#39;, monospace;font-weight: normal;font-size: 13px;line-height: 18px;white-space: pre;&quot;&gt;&lt;div&gt;&lt;span style=&quot;color: #9cdcfe;&quot;&gt;+ &lt;/span&gt;&lt;span style=&quot;color: #9cdcfe;&quot;&gt;additionalParsingLevels[]&lt;/span&gt;&lt;/div&gt;&lt;/div&gt;" style="text;strokeColor=none;fillColor=none;align=left;verticalAlign=top;spacingLeft=4;spacingRight=4;overflow=hidden;rotatable=0;points=[[0,0.5],[1,0.5]];portConstraint=eastwest;whiteSpace=wrap;html=1;" vertex="1" parent="_7KpmntLeHWkFB2YpqdL-16">
          <mxGeometry y="26" width="240" height="26" as="geometry" />
        </mxCell>
        <mxCell id="_7KpmntLeHWkFB2YpqdL-18" value="" style="line;strokeWidth=1;fillColor=none;align=left;verticalAlign=middle;spacingTop=-1;spacingLeft=3;spacingRight=3;rotatable=0;labelPosition=right;points=[];portConstraint=eastwest;strokeColor=inherit;" vertex="1" parent="_7KpmntLeHWkFB2YpqdL-16">
          <mxGeometry y="52" width="240" height="8" as="geometry" />
        </mxCell>
        <mxCell id="_7KpmntLeHWkFB2YpqdL-19" value="&lt;div&gt;&lt;div style=&quot;color: #d4d4d4;background-color: #1e1e1e;font-family: &#39;Fira Code&#39;, Consolas, &#39;Courier New&#39;, monospace;font-weight: normal;font-size: 13px;line-height: 18px;white-space: pre;&quot;&gt;&lt;div&gt;&lt;b&gt;&lt;span style=&quot;color: #dcdcaa;&quot;&gt;parse()&lt;/span&gt;&lt;/b&gt;&lt;/div&gt;&lt;/div&gt;&lt;/div&gt;&lt;div&gt;&lt;br&gt;&lt;/div&gt;&lt;div style=&quot;color: #d4d4d4;background-color: #1e1e1e;font-family: &#39;Fira Code&#39;, Consolas, &#39;Courier New&#39;, monospace;font-weight: normal;font-size: 13px;line-height: 18px;white-space: pre;&quot;&gt;&lt;div&gt;&lt;span style=&quot;color: #dcdcaa;&quot;&gt;+ mergeBlocks&lt;/span&gt;&lt;span style=&quot;color: #d4d4d4;&quot;&gt;(&lt;/span&gt;&lt;span style=&quot;color: #d4d4d4;&quot;&gt;)&lt;/span&gt;&lt;/div&gt;&lt;/div&gt;&lt;div&gt;&lt;br&gt;&lt;/div&gt;&lt;div&gt;&lt;div&gt;&lt;div style=&quot;color: #d4d4d4;background-color: #1e1e1e;font-family: &#39;Fira Code&#39;, Consolas, &#39;Courier New&#39;, monospace;font-weight: normal;font-size: 13px;line-height: 18px;white-space: pre;&quot;&gt;&lt;div&gt;&lt;span style=&quot;color: #dcdcaa;&quot;&gt;+ mergeExpressions()&lt;/span&gt;&lt;/div&gt;&lt;/div&gt;&lt;/div&gt;&lt;/div&gt;&lt;div&gt;&lt;br&gt;&lt;div style=&quot;color: #d4d4d4;background-color: #1e1e1e;font-family: &#39;Fira Code&#39;, Consolas, &#39;Courier New&#39;, monospace;font-weight: normal;font-size: 13px;line-height: 18px;white-space: pre;&quot;&gt;&lt;div&gt;&lt;span style=&quot;color: #dcdcaa;&quot;&gt;+ mergePropertyOperations&lt;/span&gt;&lt;span style=&quot;color: #d4d4d4;&quot;&gt;(&lt;/span&gt;&lt;span style=&quot;color: #d4d4d4;&quot;&gt;)&lt;/span&gt;&lt;/div&gt;&lt;/div&gt;&lt;div&gt;&lt;br&gt;&lt;/div&gt;&lt;div&gt;&lt;div&gt;&lt;div style=&quot;color: #d4d4d4;background-color: #1e1e1e;font-family: &#39;Fira Code&#39;, Consolas, &#39;Courier New&#39;, monospace;font-weight: normal;font-size: 13px;line-height: 18px;white-space: pre;&quot;&gt;&lt;div&gt;&lt;span style=&quot;color: #dcdcaa;&quot;&gt;+ mergeTypeDecls&lt;/span&gt;&lt;span style=&quot;color: #d4d4d4;&quot;&gt;()&lt;/span&gt;&lt;/div&gt;&lt;/div&gt;&lt;/div&gt;&lt;/div&gt;&lt;div&gt;&lt;br&gt;&lt;div style=&quot;color: #d4d4d4;background-color: #1e1e1e;font-family: &#39;Fira Code&#39;, Consolas, &#39;Courier New&#39;, monospace;font-weight: normal;font-size: 13px;line-height: 18px;white-space: pre;&quot;&gt;&lt;div&gt;&lt;span style=&quot;color: #dcdcaa;&quot;&gt;+ mergeComplexStructures&lt;/span&gt;&lt;span style=&quot;color: #d4d4d4;&quot;&gt;(&lt;/span&gt;&lt;span style=&quot;color: #d4d4d4;&quot;&gt;)&lt;/span&gt;&lt;/div&gt;&lt;/div&gt;&lt;div&gt;&lt;br&gt;&lt;/div&gt;&lt;div&gt;&lt;div&gt;&lt;div style=&quot;color: #d4d4d4;background-color: #1e1e1e;font-family: &#39;Fira Code&#39;, Consolas, &#39;Courier New&#39;, monospace;font-weight: normal;font-size: 13px;line-height: 18px;white-space: pre;&quot;&gt;&lt;div&gt;&lt;span style=&quot;color: #dcdcaa;&quot;&gt;+ mergeCalls&lt;/span&gt;&lt;span style=&quot;color: #d4d4d4;&quot;&gt;()&lt;/span&gt;&lt;/div&gt;&lt;/div&gt;&lt;/div&gt;&lt;/div&gt;&lt;div&gt;&lt;br&gt;&lt;div style=&quot;color: #d4d4d4;background-color: #1e1e1e;font-family: &#39;Fira Code&#39;, Consolas, &#39;Courier New&#39;, monospace;font-weight: normal;font-size: 13px;line-height: 18px;white-space: pre;&quot;&gt;&lt;div&gt;&lt;span style=&quot;color: #dcdcaa;&quot;&gt;+ mergeWrites&lt;/span&gt;&lt;span style=&quot;color: #d4d4d4;&quot;&gt;(&lt;/span&gt;&lt;span style=&quot;color: #d4d4d4;&quot;&gt;)&lt;/span&gt;&lt;/div&gt;&lt;/div&gt;&lt;div&gt;&lt;br&gt;&lt;/div&gt;&lt;div&gt;&lt;div&gt;&lt;div style=&quot;color: #d4d4d4;background-color: #1e1e1e;font-family: &#39;Fira Code&#39;, Consolas, &#39;Courier New&#39;, monospace;font-weight: normal;font-size: 13px;line-height: 18px;white-space: pre;&quot;&gt;&lt;div&gt;&lt;span style=&quot;color: #dcdcaa;&quot;&gt;+ mergeValuesWithTypeDecls&lt;/span&gt;&lt;span style=&quot;color: #d4d4d4;&quot;&gt;()&lt;/span&gt;&lt;/div&gt;&lt;/div&gt;&lt;/div&gt;&lt;/div&gt;&lt;div&gt;&lt;br&gt;&lt;/div&gt;&lt;div&gt;&lt;div style=&quot;color: #d4d4d4;background-color: #1e1e1e;font-family: &#39;Fira Code&#39;, Consolas, &#39;Courier New&#39;, monospace;font-weight: normal;font-size: 13px;line-height: 18px;white-space: pre;&quot;&gt;&lt;div&gt;&lt;span style=&quot;color: #dcdcaa;&quot;&gt;+ mergeNonBlockBodies&lt;/span&gt;&lt;span style=&quot;color: #d4d4d4;&quot;&gt;(&lt;/span&gt;&lt;span style=&quot;color: #d4d4d4;&quot;&gt;)&lt;/span&gt;&lt;/div&gt;&lt;/div&gt;&lt;div&gt;&lt;br&gt;&lt;/div&gt;&lt;br&gt;&lt;br&gt;&lt;/div&gt;&lt;/div&gt;&lt;/div&gt;&lt;/div&gt;" style="text;strokeColor=none;fillColor=none;align=left;verticalAlign=top;spacingLeft=4;spacingRight=4;overflow=hidden;rotatable=0;points=[[0,0.5],[1,0.5]];portConstraint=eastwest;whiteSpace=wrap;html=1;" vertex="1" parent="_7KpmntLeHWkFB2YpqdL-16">
          <mxGeometry y="60" width="240" height="320" as="geometry" />
        </mxCell>
        <mxCell id="_7KpmntLeHWkFB2YpqdL-22" value="" style="endArrow=classic;html=1;rounded=0;exitX=-0.008;exitY=0.2;exitDx=0;exitDy=0;exitPerimeter=0;entryX=-0.004;entryY=0.043;entryDx=0;entryDy=0;entryPerimeter=0;" edge="1" parent="WIyWlLk6GJQsqaUBKTNV-1" source="_7KpmntLeHWkFB2YpqdL-8" target="_7KpmntLeHWkFB2YpqdL-19">
          <mxGeometry width="50" height="50" relative="1" as="geometry">
            <mxPoint x="390" y="450" as="sourcePoint" />
            <mxPoint x="440" y="400" as="targetPoint" />
            <Array as="points">
              <mxPoint x="40" y="128" />
              <mxPoint x="40" y="340" />
            </Array>
          </mxGeometry>
        </mxCell>
        <mxCell id="_7KpmntLeHWkFB2YpqdL-23" value="Lexing&lt;br&gt;Successful?" style="edgeLabel;html=1;align=center;verticalAlign=middle;resizable=0;points=[];" vertex="1" connectable="0" parent="_7KpmntLeHWkFB2YpqdL-22">
          <mxGeometry x="-0.2477" y="-1" relative="1" as="geometry">
            <mxPoint as="offset" />
          </mxGeometry>
        </mxCell>
        <mxCell id="_7KpmntLeHWkFB2YpqdL-25" value="" style="endArrow=classic;html=1;rounded=0;exitX=0;exitY=0.5;exitDx=0;exitDy=0;" edge="1" parent="WIyWlLk6GJQsqaUBKTNV-1" source="_7KpmntLeHWkFB2YpqdL-8">
          <mxGeometry width="50" height="50" relative="1" as="geometry">
            <mxPoint x="280" y="460" as="sourcePoint" />
            <mxPoint x="40" y="130" as="targetPoint" />
          </mxGeometry>
        </mxCell>
        <mxCell id="_7KpmntLeHWkFB2YpqdL-26" value="" style="endArrow=classic;html=1;rounded=0;exitX=0;exitY=0.5;exitDx=0;exitDy=0;" edge="1" parent="WIyWlLk6GJQsqaUBKTNV-1">
          <mxGeometry width="50" height="50" relative="1" as="geometry">
            <mxPoint x="80" y="190" as="sourcePoint" />
            <mxPoint x="40" y="130" as="targetPoint" />
          </mxGeometry>
        </mxCell>
        <mxCell id="_7KpmntLeHWkFB2YpqdL-27" value="" style="endArrow=classic;html=1;rounded=0;exitX=1.004;exitY=0.036;exitDx=0;exitDy=0;exitPerimeter=0;entryX=-0.005;entryY=0.026;entryDx=0;entryDy=0;entryPerimeter=0;" edge="1" parent="WIyWlLk6GJQsqaUBKTNV-1" source="_7KpmntLeHWkFB2YpqdL-19" target="_7KpmntLeHWkFB2YpqdL-49">
          <mxGeometry width="50" height="50" relative="1" as="geometry">
            <mxPoint x="280" y="460" as="sourcePoint" />
            <mxPoint x="480" y="180" as="targetPoint" />
            <Array as="points">
              <mxPoint x="420" y="420" />
            </Array>
          </mxGeometry>
        </mxCell>
        <mxCell id="_7KpmntLeHWkFB2YpqdL-28" value="&lt;div&gt;Parsing&amp;nbsp;&lt;/div&gt;&lt;div&gt;Successful?&lt;/div&gt;" style="edgeLabel;html=1;align=center;verticalAlign=middle;resizable=0;points=[];" vertex="1" connectable="0" parent="_7KpmntLeHWkFB2YpqdL-27">
          <mxGeometry x="0.2866" relative="1" as="geometry">
            <mxPoint x="-23" y="5" as="offset" />
          </mxGeometry>
        </mxCell>
        <mxCell id="_7KpmntLeHWkFB2YpqdL-30" value="" style="endArrow=classic;html=1;rounded=0;exitX=0.979;exitY=0.119;exitDx=0;exitDy=0;exitPerimeter=0;" edge="1" parent="WIyWlLk6GJQsqaUBKTNV-1" source="_7KpmntLeHWkFB2YpqdL-19">
          <mxGeometry width="50" height="50" relative="1" as="geometry">
            <mxPoint x="340" y="455" as="sourcePoint" />
            <mxPoint x="420" y="415" as="targetPoint" />
          </mxGeometry>
        </mxCell>
        <mxCell id="_7KpmntLeHWkFB2YpqdL-31" value="" style="endArrow=classic;html=1;rounded=0;exitX=1.008;exitY=0.19;exitDx=0;exitDy=0;exitPerimeter=0;" edge="1" parent="WIyWlLk6GJQsqaUBKTNV-1" source="_7KpmntLeHWkFB2YpqdL-19">
          <mxGeometry width="50" height="50" relative="1" as="geometry">
            <mxPoint x="340" y="475" as="sourcePoint" />
            <mxPoint x="420" y="415" as="targetPoint" />
          </mxGeometry>
        </mxCell>
        <mxCell id="_7KpmntLeHWkFB2YpqdL-32" value="" style="endArrow=classic;html=1;rounded=0;exitX=1.008;exitY=0.262;exitDx=0;exitDy=0;exitPerimeter=0;" edge="1" parent="WIyWlLk6GJQsqaUBKTNV-1" source="_7KpmntLeHWkFB2YpqdL-19">
          <mxGeometry width="50" height="50" relative="1" as="geometry">
            <mxPoint x="360" y="475" as="sourcePoint" />
            <mxPoint x="420" y="415" as="targetPoint" />
          </mxGeometry>
        </mxCell>
        <mxCell id="_7KpmntLeHWkFB2YpqdL-33" value="" style="endArrow=classic;html=1;rounded=0;exitX=1.004;exitY=0.343;exitDx=0;exitDy=0;exitPerimeter=0;" edge="1" parent="WIyWlLk6GJQsqaUBKTNV-1" source="_7KpmntLeHWkFB2YpqdL-19">
          <mxGeometry width="50" height="50" relative="1" as="geometry">
            <mxPoint x="370" y="485" as="sourcePoint" />
            <mxPoint x="420" y="415" as="targetPoint" />
          </mxGeometry>
        </mxCell>
        <mxCell id="_7KpmntLeHWkFB2YpqdL-35" value="" style="endArrow=classic;html=1;rounded=0;exitX=1;exitY=0.459;exitDx=0;exitDy=0;exitPerimeter=0;" edge="1" parent="WIyWlLk6GJQsqaUBKTNV-1" source="_7KpmntLeHWkFB2YpqdL-19">
          <mxGeometry width="50" height="50" relative="1" as="geometry">
            <mxPoint x="390" y="505" as="sourcePoint" />
            <mxPoint x="420" y="415" as="targetPoint" />
          </mxGeometry>
        </mxCell>
        <mxCell id="_7KpmntLeHWkFB2YpqdL-36" value="" style="endArrow=classic;html=1;rounded=0;exitX=0.996;exitY=0.579;exitDx=0;exitDy=0;exitPerimeter=0;" edge="1" parent="WIyWlLk6GJQsqaUBKTNV-1" source="_7KpmntLeHWkFB2YpqdL-19">
          <mxGeometry width="50" height="50" relative="1" as="geometry">
            <mxPoint x="340" y="645" as="sourcePoint" />
            <mxPoint x="420" y="415" as="targetPoint" />
          </mxGeometry>
        </mxCell>
        <mxCell id="_7KpmntLeHWkFB2YpqdL-38" value="" style="endArrow=classic;html=1;rounded=0;exitX=0.996;exitY=0.74;exitDx=0;exitDy=0;exitPerimeter=0;" edge="1" parent="WIyWlLk6GJQsqaUBKTNV-1" source="_7KpmntLeHWkFB2YpqdL-19">
          <mxGeometry width="50" height="50" relative="1" as="geometry">
            <mxPoint x="340" y="715" as="sourcePoint" />
            <mxPoint x="420" y="415" as="targetPoint" />
          </mxGeometry>
        </mxCell>
        <mxCell id="_7KpmntLeHWkFB2YpqdL-39" value="" style="endArrow=classic;html=1;rounded=0;exitX=1;exitY=0.923;exitDx=0;exitDy=0;exitPerimeter=0;" edge="1" parent="WIyWlLk6GJQsqaUBKTNV-1" source="_7KpmntLeHWkFB2YpqdL-17">
          <mxGeometry width="50" height="50" relative="1" as="geometry">
            <mxPoint x="340" y="395" as="sourcePoint" />
            <mxPoint x="420" y="415" as="targetPoint" />
          </mxGeometry>
        </mxCell>
        <mxCell id="_7KpmntLeHWkFB2YpqdL-41" value="" style="curved=1;endArrow=classic;html=1;rounded=0;entryX=1;entryY=0.5;entryDx=0;entryDy=0;" edge="1" parent="WIyWlLk6GJQsqaUBKTNV-1">
          <mxGeometry width="50" height="50" relative="1" as="geometry">
            <mxPoint x="320" y="390" as="sourcePoint" />
            <mxPoint x="320" y="379" as="targetPoint" />
            <Array as="points">
              <mxPoint x="360" y="379" />
            </Array>
          </mxGeometry>
        </mxCell>
        <mxCell id="_7KpmntLeHWkFB2YpqdL-42" value="" style="endArrow=classic;html=1;rounded=0;exitX=1.004;exitY=0.821;exitDx=0;exitDy=0;exitPerimeter=0;" edge="1" parent="WIyWlLk6GJQsqaUBKTNV-1" source="_7KpmntLeHWkFB2YpqdL-19">
          <mxGeometry width="50" height="50" relative="1" as="geometry">
            <mxPoint x="340" y="745" as="sourcePoint" />
            <mxPoint x="420" y="415" as="targetPoint" />
          </mxGeometry>
        </mxCell>
        <mxCell id="_7KpmntLeHWkFB2YpqdL-44" value="" style="endArrow=classic;html=1;rounded=0;exitX=1.004;exitY=0.957;exitDx=0;exitDy=0;exitPerimeter=0;" edge="1" parent="WIyWlLk6GJQsqaUBKTNV-1" source="_7KpmntLeHWkFB2YpqdL-19">
          <mxGeometry width="50" height="50" relative="1" as="geometry">
            <mxPoint x="340" y="805" as="sourcePoint" />
            <mxPoint x="420" y="415" as="targetPoint" />
          </mxGeometry>
        </mxCell>
        <mxCell id="_7KpmntLeHWkFB2YpqdL-46" value="&lt;div style=&quot;color: #d4d4d4;background-color: #1e1e1e;font-family: &#39;Fira Code&#39;, Consolas, &#39;Courier New&#39;, monospace;font-weight: normal;font-size: 13px;line-height: 18px;white-space: pre;&quot;&gt;&lt;div&gt;&lt;span style=&quot;color: #569cd6;&quot;&gt;static class&lt;/span&gt;&lt;span style=&quot;color: #d4d4d4;&quot;&gt; &lt;/span&gt;&lt;span style=&quot;color: #4ec9b0;&quot;&gt;Interpreter&lt;/span&gt;&lt;/div&gt;&lt;/div&gt;" style="swimlane;fontStyle=1;align=center;verticalAlign=top;childLayout=stackLayout;horizontal=1;startSize=26;horizontalStack=0;resizeParent=1;resizeParentMax=0;resizeLast=0;collapsible=1;marginBottom=0;whiteSpace=wrap;html=1;" vertex="1" parent="WIyWlLk6GJQsqaUBKTNV-1">
          <mxGeometry x="490" y="185" width="190" height="640" as="geometry" />
        </mxCell>
        <mxCell id="_7KpmntLeHWkFB2YpqdL-47" value="-" style="text;strokeColor=none;fillColor=none;align=left;verticalAlign=top;spacingLeft=4;spacingRight=4;overflow=hidden;rotatable=0;points=[[0,0.5],[1,0.5]];portConstraint=eastwest;whiteSpace=wrap;html=1;" vertex="1" parent="_7KpmntLeHWkFB2YpqdL-46">
          <mxGeometry y="26" width="190" height="26" as="geometry" />
        </mxCell>
        <mxCell id="_7KpmntLeHWkFB2YpqdL-48" value="" style="line;strokeWidth=1;fillColor=none;align=left;verticalAlign=middle;spacingTop=-1;spacingLeft=3;spacingRight=3;rotatable=0;labelPosition=right;points=[];portConstraint=eastwest;strokeColor=inherit;" vertex="1" parent="_7KpmntLeHWkFB2YpqdL-46">
          <mxGeometry y="52" width="190" height="8" as="geometry" />
        </mxCell>
        <mxCell id="_7KpmntLeHWkFB2YpqdL-69" value="" style="endArrow=classic;html=1;rounded=0;exitX=-0.005;exitY=0.083;exitDx=0;exitDy=0;exitPerimeter=0;entryX=0;entryY=0.917;entryDx=0;entryDy=0;entryPerimeter=0;" edge="1" parent="_7KpmntLeHWkFB2YpqdL-46" target="_7KpmntLeHWkFB2YpqdL-49">
          <mxGeometry width="50" height="50" relative="1" as="geometry">
            <mxPoint y="140" as="sourcePoint" />
            <mxPoint y="667" as="targetPoint" />
            <Array as="points">
              <mxPoint x="-19" y="140" />
              <mxPoint x="-20" y="592" />
            </Array>
          </mxGeometry>
        </mxCell>
        <mxCell id="_7KpmntLeHWkFB2YpqdL-49" value="&lt;div&gt;&lt;div style=&quot;color: #d4d4d4;background-color: #1e1e1e;font-family: &#39;Fira Code&#39;, Consolas, &#39;Courier New&#39;, monospace;font-weight: normal;font-size: 13px;line-height: 18px;white-space: pre;&quot;&gt;&lt;div&gt;&lt;b&gt;&lt;span style=&quot;color: #dcdcaa;&quot;&gt;convert()&lt;/span&gt;&lt;/b&gt;&lt;/div&gt;&lt;/div&gt;&lt;/div&gt;&lt;div&gt;&lt;div&gt;&lt;br&gt;&lt;/div&gt;&lt;div&gt;&lt;div&gt;&lt;div style=&quot;color: #d4d4d4;background-color: #1e1e1e;font-family: &#39;Fira Code&#39;, Consolas, &#39;Courier New&#39;, monospace;font-weight: normal;font-size: 13px;line-height: 18px;white-space: pre;&quot;&gt;&lt;div&gt;&lt;b&gt;&lt;span style=&quot;color: #dcdcaa;&quot;&gt;run&lt;/span&gt;&lt;span style=&quot;color: #d4d4d4;&quot;&gt;()&lt;/span&gt;&lt;/b&gt;&lt;/div&gt;&lt;/div&gt;&lt;/div&gt;&lt;/div&gt;&lt;div&gt;&lt;br&gt;&lt;/div&gt;&lt;div style=&quot;color: #d4d4d4;background-color: #1e1e1e;font-family: &#39;Fira Code&#39;, Consolas, &#39;Courier New&#39;, monospace;font-weight: normal;font-size: 13px;line-height: 18px;white-space: pre;&quot;&gt;&lt;div&gt;&lt;b&gt;&lt;span style=&quot;color: #dcdcaa;&quot;&gt;evaluate&lt;/span&gt;&lt;span style=&quot;color: #d4d4d4;&quot;&gt;(&lt;/span&gt;&lt;span style=&quot;color: #d4d4d4;&quot;&gt;)&lt;/span&gt;&lt;/b&gt;&lt;/div&gt;&lt;/div&gt;&lt;div&gt;&lt;br&gt;&lt;/div&gt;&lt;div&gt;&lt;div&gt;&lt;div style=&quot;color: #d4d4d4;background-color: #1e1e1e;font-family: &#39;Fira Code&#39;, Consolas, &#39;Courier New&#39;, monospace;font-weight: normal;font-size: 13px;line-height: 18px;white-space: pre;&quot;&gt;&lt;div&gt;&lt;b&gt;&lt;span style=&quot;color: #dcdcaa;&quot;&gt;calculate&lt;/span&gt;&lt;span style=&quot;color: #d4d4d4;&quot;&gt;()&lt;/span&gt;&lt;/b&gt;&lt;/div&gt;&lt;/div&gt;&lt;/div&gt;&lt;/div&gt;&lt;br&gt;&lt;/div&gt;&lt;div style=&quot;color: #d4d4d4;background-color: #1e1e1e;font-family: &#39;Fira Code&#39;, Consolas, &#39;Courier New&#39;, monospace;font-weight: normal;font-size: 13px;line-height: 18px;white-space: pre;&quot;&gt;&lt;div&gt;&lt;span style=&quot;color: #dcdcaa;&quot;&gt;+ error&lt;/span&gt;&lt;span style=&quot;color: #d4d4d4;&quot;&gt;(&lt;/span&gt;&lt;span style=&quot;color: #d4d4d4;&quot;&gt;)&lt;/span&gt;&lt;/div&gt;&lt;/div&gt;&lt;div&gt;&lt;br&gt;&lt;/div&gt;&lt;div&gt;&lt;div&gt;&lt;div style=&quot;color: #d4d4d4;background-color: #1e1e1e;font-family: &#39;Fira Code&#39;, Consolas, &#39;Courier New&#39;, monospace;font-weight: normal;font-size: 13px;line-height: 18px;white-space: pre;&quot;&gt;&lt;div&gt;&lt;span style=&quot;color: #dcdcaa;&quot;&gt;+ warn()&lt;/span&gt;&lt;/div&gt;&lt;/div&gt;&lt;/div&gt;&lt;/div&gt;&lt;div&gt;&lt;br&gt;&lt;div style=&quot;color: #d4d4d4;background-color: #1e1e1e;font-family: &#39;Fira Code&#39;, Consolas, &#39;Courier New&#39;, monospace;font-weight: normal;font-size: 13px;line-height: 18px;white-space: pre;&quot;&gt;&lt;div&gt;&lt;span style=&quot;color: #dcdcaa;&quot;&gt;+ assert&lt;/span&gt;&lt;span style=&quot;color: #d4d4d4;&quot;&gt;(&lt;/span&gt;&lt;span style=&quot;color: #d4d4d4;&quot;&gt;)&lt;/span&gt;&lt;/div&gt;&lt;/div&gt;&lt;div&gt;&lt;br&gt;&lt;/div&gt;&lt;div&gt;&lt;div&gt;&lt;div style=&quot;color: #d4d4d4;background-color: #1e1e1e;font-family: &#39;Fira Code&#39;, Consolas, &#39;Courier New&#39;, monospace;font-weight: normal;font-size: 13px;line-height: 18px;white-space: pre;&quot;&gt;&lt;div&gt;&lt;span style=&quot;color: #dcdcaa;&quot;&gt;+ setLine&lt;/span&gt;&lt;span style=&quot;color: #d4d4d4;&quot;&gt;()&lt;/span&gt;&lt;/div&gt;&lt;/div&gt;&lt;/div&gt;&lt;/div&gt;&lt;div&gt;&lt;br&gt;&lt;div style=&quot;color: #d4d4d4;background-color: #1e1e1e;font-family: &#39;Fira Code&#39;, Consolas, &#39;Courier New&#39;, monospace;font-weight: normal;font-size: 13px;line-height: 18px;white-space: pre;&quot;&gt;&lt;div&gt;&lt;span style=&quot;color: #dcdcaa;&quot;&gt;+ splitLine&lt;/span&gt;&lt;span style=&quot;color: #d4d4d4;&quot;&gt;(&lt;/span&gt;&lt;span style=&quot;color: #d4d4d4;&quot;&gt;)&lt;/span&gt;&lt;/div&gt;&lt;/div&gt;&lt;div&gt;&lt;br&gt;&lt;/div&gt;&lt;div&gt;&lt;div&gt;&lt;div style=&quot;color: #d4d4d4;background-color: #1e1e1e;font-family: &#39;Fira Code&#39;, Consolas, &#39;Courier New&#39;, monospace;font-weight: normal;font-size: 13px;line-height: 18px;white-space: pre;&quot;&gt;&lt;div&gt;&lt;span style=&quot;color: #dcdcaa;&quot;&gt;+ setModule&lt;/span&gt;&lt;span style=&quot;color: #d4d4d4;&quot;&gt;()&lt;/span&gt;&lt;/div&gt;&lt;/div&gt;&lt;/div&gt;&lt;/div&gt;&lt;div&gt;&lt;br&gt;&lt;div style=&quot;color: #d4d4d4;background-color: #1e1e1e;font-family: &#39;Fira Code&#39;, Consolas, &#39;Courier New&#39;, monospace;font-weight: normal;font-size: 13px;line-height: 18px;white-space: pre;&quot;&gt;&lt;div&gt;&lt;span style=&quot;color: #dcdcaa;&quot;&gt;+ declareVariable&lt;/span&gt;&lt;span style=&quot;color: #d4d4d4;&quot;&gt;(&lt;/span&gt;&lt;span style=&quot;color: #d4d4d4;&quot;&gt;)&lt;/span&gt;&lt;/div&gt;&lt;/div&gt;&lt;div&gt;&lt;br&gt;&lt;/div&gt;&lt;div&gt;&lt;div&gt;&lt;div style=&quot;color: #d4d4d4;background-color: #1e1e1e;font-family: &#39;Fira Code&#39;, Consolas, &#39;Courier New&#39;, monospace;font-weight: normal;font-size: 13px;line-height: 18px;white-space: pre;&quot;&gt;&lt;div&gt;&lt;span style=&quot;color: #dcdcaa;&quot;&gt;+ declareFunction&lt;/span&gt;&lt;span style=&quot;color: #d4d4d4;&quot;&gt;()&lt;/span&gt;&lt;/div&gt;&lt;/div&gt;&lt;/div&gt;&lt;/div&gt;&lt;div&gt;&lt;br&gt;&lt;/div&gt;&lt;div style=&quot;color: #d4d4d4;background-color: #1e1e1e;font-family: &#39;Fira Code&#39;, Consolas, &#39;Courier New&#39;, monospace;font-weight: normal;font-size: 13px;line-height: 18px;white-space: pre;&quot;&gt;&lt;div&gt;&lt;span style=&quot;color: #dcdcaa;&quot;&gt;+ condition&lt;/span&gt;&lt;span style=&quot;color: #d4d4d4;&quot;&gt;(&lt;/span&gt;&lt;span style=&quot;color: #d4d4d4;&quot;&gt;)&lt;/span&gt;&lt;/div&gt;&lt;/div&gt;&lt;div&gt;&lt;br&gt;&lt;/div&gt;&lt;div&gt;&lt;div&gt;&lt;div style=&quot;color: #d4d4d4;background-color: #1e1e1e;font-family: &#39;Fira Code&#39;, Consolas, &#39;Courier New&#39;, monospace;font-weight: normal;font-size: 13px;line-height: 18px;white-space: pre;&quot;&gt;&lt;div&gt;&lt;span style=&quot;color: #dcdcaa;&quot;&gt;+ write&lt;/span&gt;&lt;span style=&quot;color: #d4d4d4;&quot;&gt;()&lt;/span&gt;&lt;/div&gt;&lt;/div&gt;&lt;/div&gt;&lt;/div&gt;&lt;div&gt;&lt;br&gt;&lt;div style=&quot;color: #d4d4d4;background-color: #1e1e1e;font-family: &#39;Fira Code&#39;, Consolas, &#39;Courier New&#39;, monospace;font-weight: normal;font-size: 13px;line-height: 18px;white-space: pre;&quot;&gt;&lt;div&gt;&lt;span style=&quot;color: #dcdcaa;&quot;&gt;+ call&lt;/span&gt;&lt;span style=&quot;color: #d4d4d4;&quot;&gt;(&lt;/span&gt;&lt;span style=&quot;color: #d4d4d4;&quot;&gt;)&lt;/span&gt;&lt;/div&gt;&lt;/div&gt;&lt;div&gt;&lt;br&gt;&lt;/div&gt;&lt;div&gt;&lt;div&gt;&lt;div style=&quot;color: #d4d4d4;background-color: #1e1e1e;font-family: &#39;Fira Code&#39;, Consolas, &#39;Courier New&#39;, monospace;font-weight: normal;font-size: 13px;line-height: 18px;white-space: pre;&quot;&gt;&lt;div&gt;&lt;span style=&quot;color: #dcdcaa;&quot;&gt;+ read&lt;/span&gt;&lt;span style=&quot;color: #d4d4d4;&quot;&gt;()&lt;/span&gt;&lt;/div&gt;&lt;/div&gt;&lt;/div&gt;&lt;/div&gt;&lt;/div&gt;&lt;br&gt;&lt;div style=&quot;color: #d4d4d4;background-color: #1e1e1e;font-family: &#39;Fira Code&#39;, Consolas, &#39;Courier New&#39;, monospace;font-weight: normal;font-size: 13px;line-height: 18px;white-space: pre;&quot;&gt;&lt;div&gt;&lt;span style=&quot;color: #dcdcaa;&quot;&gt;+ typeCast&lt;/span&gt;&lt;span style=&quot;color: #d4d4d4;&quot;&gt;(&lt;/span&gt;&lt;span style=&quot;color: #d4d4d4;&quot;&gt;)&lt;/span&gt;&lt;/div&gt;&lt;/div&gt;&lt;br&gt;&lt;div&gt;&lt;div style=&quot;color: #d4d4d4;background-color: #1e1e1e;font-family: &#39;Fira Code&#39;, Consolas, &#39;Courier New&#39;, monospace;font-weight: normal;font-size: 13px;line-height: 18px;white-space: pre;&quot;&gt;&lt;div&gt;&lt;span style=&quot;color: #dcdcaa;&quot;&gt;+ group&lt;/span&gt;&lt;span style=&quot;color: #d4d4d4;&quot;&gt;(&lt;/span&gt;&lt;span style=&quot;color: #d4d4d4;&quot;&gt;)&lt;/span&gt;&lt;/div&gt;&lt;/div&gt;&lt;div&gt;&lt;br&gt;&lt;/div&gt;&lt;/div&gt;&lt;br&gt;&lt;br&gt;&lt;/div&gt;&lt;/div&gt;&lt;/div&gt;" style="text;strokeColor=none;fillColor=none;align=left;verticalAlign=top;spacingLeft=4;spacingRight=4;overflow=hidden;rotatable=0;points=[[0,0.5],[1,0.5]];portConstraint=eastwest;whiteSpace=wrap;html=1;" vertex="1" parent="_7KpmntLeHWkFB2YpqdL-46">
          <mxGeometry y="60" width="190" height="580" as="geometry" />
        </mxCell>
        <mxCell id="_7KpmntLeHWkFB2YpqdL-67" value="" style="endArrow=classic;html=1;rounded=0;exitX=-0.005;exitY=0.083;exitDx=0;exitDy=0;exitPerimeter=0;entryX=-0.005;entryY=0.991;entryDx=0;entryDy=0;entryPerimeter=0;" edge="1" parent="_7KpmntLeHWkFB2YpqdL-46">
          <mxGeometry width="50" height="50" relative="1" as="geometry">
            <mxPoint x="-0.9500000000000455" y="108.13999999999999" as="sourcePoint" />
            <mxPoint x="-0.9500000000000455" y="634.78" as="targetPoint" />
            <Array as="points">
              <mxPoint x="-20" y="108" />
              <mxPoint x="-20" y="635" />
            </Array>
          </mxGeometry>
        </mxCell>
        <mxCell id="_7KpmntLeHWkFB2YpqdL-71" value="" style="endArrow=classic;html=1;rounded=0;" edge="1" parent="_7KpmntLeHWkFB2YpqdL-46">
          <mxGeometry width="50" height="50" relative="1" as="geometry">
            <mxPoint x="-20" y="563" as="sourcePoint" />
            <mxPoint y="563" as="targetPoint" />
          </mxGeometry>
        </mxCell>
        <mxCell id="_7KpmntLeHWkFB2YpqdL-50" value="&lt;div style=&quot;color: #d4d4d4;background-color: #1e1e1e;font-family: &#39;Fira Code&#39;, Consolas, &#39;Courier New&#39;, monospace;font-weight: normal;font-size: 13px;line-height: 18px;white-space: pre;&quot;&gt;&lt;div&gt;&lt;span style=&quot;color: #569cd6;&quot;&gt;class&lt;/span&gt;&lt;span style=&quot;color: #d4d4d4;&quot;&gt; &lt;/span&gt;&lt;span style=&quot;color: #4ec9b0;&quot;&gt;Memory&lt;/span&gt;&lt;/div&gt;&lt;/div&gt;" style="swimlane;fontStyle=1;align=center;verticalAlign=top;childLayout=stackLayout;horizontal=1;startSize=26;horizontalStack=0;resizeParent=1;resizeParentMax=0;resizeLast=0;collapsible=1;marginBottom=0;whiteSpace=wrap;html=1;" vertex="1" parent="WIyWlLk6GJQsqaUBKTNV-1">
          <mxGeometry x="950" y="290" width="240" height="638" as="geometry" />
        </mxCell>
        <mxCell id="_7KpmntLeHWkFB2YpqdL-51" value="&lt;div&gt;&lt;div&gt;&lt;br&gt;&lt;/div&gt;&lt;div&gt;&lt;div&gt;&lt;div style=&quot;color: #d4d4d4;background-color: #1e1e1e;font-family: &#39;Fira Code&#39;, Consolas, &#39;Courier New&#39;, monospace;font-weight: normal;font-size: 13px;line-height: 18px;white-space: pre;&quot;&gt;&lt;div&gt;&lt;span style=&quot;color: #dcdcaa;&quot;&gt;+ &lt;/span&gt;&lt;span style=&quot;color: #9cdcfe;&quot;&gt;externs:ExternalInterfacing&lt;/span&gt;&lt;/div&gt;&lt;/div&gt;&lt;/div&gt;&lt;/div&gt;&lt;br&gt;&lt;/div&gt;&lt;div style=&quot;color: #d4d4d4;background-color: #1e1e1e;font-family: &#39;Fira Code&#39;, Consolas, &#39;Courier New&#39;, monospace;font-weight: normal;font-size: 13px;line-height: 18px;white-space: pre;&quot;&gt;&lt;div&gt;&lt;span style=&quot;color: #dcdcaa;&quot;&gt;+ &lt;/span&gt;&lt;span style=&quot;color: #9cdcfe;&quot;&gt;storage:Storage&lt;/span&gt;&lt;/div&gt;&lt;/div&gt;&lt;div&gt;&lt;br&gt;&lt;/div&gt;&lt;div&gt;&lt;div&gt;&lt;div style=&quot;color: #d4d4d4;background-color: #1e1e1e;font-family: &#39;Fira Code&#39;, Consolas, &#39;Courier New&#39;, monospace;font-weight: normal;font-size: 13px;line-height: 18px;white-space: pre;&quot;&gt;&lt;div&gt;&lt;span style=&quot;color: #dcdcaa;&quot;&gt;+ &lt;/span&gt;&lt;span style=&quot;color: #9cdcfe;&quot;&gt;referrer&lt;/span&gt;&lt;span style=&quot;color: #9cdcfe;&quot;&gt;:Referrer&lt;/span&gt;&lt;/div&gt;&lt;/div&gt;&lt;/div&gt;&lt;/div&gt;&lt;br&gt;&lt;div style=&quot;color: #d4d4d4;background-color: #1e1e1e;font-family: &#39;Fira Code&#39;, Consolas, &#39;Courier New&#39;, monospace;font-weight: normal;font-size: 13px;line-height: 18px;white-space: pre;&quot;&gt;&lt;div&gt;&lt;span style=&quot;color: #dcdcaa;&quot;&gt;+ &lt;/span&gt;&lt;span style=&quot;color: #9cdcfe;&quot;&gt;constants:ConstantPool&lt;/span&gt;&lt;/div&gt;&lt;/div&gt;&lt;div&gt;&lt;br&gt;&lt;/div&gt;&lt;div&gt;&lt;div&gt;&lt;div style=&quot;color: #d4d4d4;background-color: #1e1e1e;font-family: &#39;Fira Code&#39;, Consolas, &#39;Courier New&#39;, monospace;font-weight: normal;font-size: 13px;line-height: 18px;white-space: pre;&quot;&gt;&lt;div&gt;&lt;span style=&quot;color: #dcdcaa;&quot;&gt;+ &lt;/span&gt;&lt;span style=&quot;color: #9cdcfe;&quot;&gt;operators:Operators&lt;/span&gt;&lt;/div&gt;&lt;/div&gt;&lt;/div&gt;&lt;/div&gt;&lt;br&gt;&lt;div style=&quot;color: #d4d4d4;background-color: #1e1e1e;font-family: &#39;Fira Code&#39;, Consolas, &#39;Courier New&#39;, monospace;font-weight: normal;font-size: 13px;line-height: 18px;white-space: pre;&quot;&gt;&lt;div&gt;&lt;span style=&quot;color: #dcdcaa;&quot;&gt;+ &lt;/span&gt;&lt;span style=&quot;color: #9cdcfe;&quot;&gt;memoryChunkSize:Int&lt;/span&gt;&lt;/div&gt;&lt;/div&gt;&lt;div&gt;&lt;br&gt;&lt;/div&gt;&lt;div&gt;&lt;div&gt;&lt;div style=&quot;color: #d4d4d4;background-color: #1e1e1e;font-family: &#39;Fira Code&#39;, Consolas, &#39;Courier New&#39;, monospace;font-weight: normal;font-size: 13px;line-height: 18px;white-space: pre;&quot;&gt;&lt;div&gt;&lt;span style=&quot;color: #dcdcaa;&quot;&gt;+ &lt;/span&gt;&lt;span style=&quot;color: #9cdcfe;&quot;&gt;currentMemorySize&lt;/span&gt;&lt;span style=&quot;color: #9cdcfe;&quot;&gt;:Int&lt;/span&gt;&lt;/div&gt;&lt;/div&gt;&lt;/div&gt;&lt;/div&gt;&lt;span style=&quot;color: #dcdcaa;&quot;&gt;&lt;br&gt;&lt;/span&gt;&lt;span style=&quot;color: #dcdcaa;&quot;&gt;&lt;/span&gt;" style="text;strokeColor=none;fillColor=none;align=left;verticalAlign=top;spacingLeft=4;spacingRight=4;overflow=hidden;rotatable=0;points=[[0,0.5],[1,0.5]];portConstraint=eastwest;whiteSpace=wrap;html=1;" vertex="1" parent="_7KpmntLeHWkFB2YpqdL-50">
          <mxGeometry y="26" width="240" height="244" as="geometry" />
        </mxCell>
        <mxCell id="_7KpmntLeHWkFB2YpqdL-52" value="" style="line;strokeWidth=1;fillColor=none;align=left;verticalAlign=middle;spacingTop=-1;spacingLeft=3;spacingRight=3;rotatable=0;labelPosition=right;points=[];portConstraint=eastwest;strokeColor=inherit;" vertex="1" parent="_7KpmntLeHWkFB2YpqdL-50">
          <mxGeometry y="270" width="240" height="8" as="geometry" />
        </mxCell>
        <mxCell id="_7KpmntLeHWkFB2YpqdL-53" value="&lt;div&gt;&lt;div style=&quot;color: #d4d4d4;background-color: #1e1e1e;font-family: &#39;Fira Code&#39;, Consolas, &#39;Courier New&#39;, monospace;font-weight: normal;font-size: 13px;line-height: 18px;white-space: pre;&quot;&gt;&lt;div&gt;&lt;b&gt;&lt;span style=&quot;color: #dcdcaa;&quot;&gt;read()&lt;/span&gt;&lt;/b&gt;&lt;/div&gt;&lt;/div&gt;&lt;/div&gt;&lt;div&gt;&lt;br&gt;&lt;/div&gt;&lt;div style=&quot;color: #d4d4d4;background-color: #1e1e1e;font-family: &#39;Fira Code&#39;, Consolas, &#39;Courier New&#39;, monospace;font-weight: normal;font-size: 13px;line-height: 18px;white-space: pre;&quot;&gt;&lt;div&gt;&lt;span style=&quot;color: #dcdcaa;&quot;&gt;+ readFrom&lt;/span&gt;&lt;span style=&quot;color: #d4d4d4;&quot;&gt;(&lt;/span&gt;&lt;span style=&quot;color: #d4d4d4;&quot;&gt;)&lt;/span&gt;&lt;/div&gt;&lt;/div&gt;&lt;div&gt;&lt;br&gt;&lt;/div&gt;&lt;div&gt;&lt;div&gt;&lt;div style=&quot;color: #d4d4d4;background-color: #1e1e1e;font-family: &#39;Fira Code&#39;, Consolas, &#39;Courier New&#39;, monospace;font-weight: normal;font-size: 13px;line-height: 18px;white-space: pre;&quot;&gt;&lt;div&gt;&lt;span style=&quot;color: #dcdcaa;&quot;&gt;+ write()&lt;/span&gt;&lt;/div&gt;&lt;/div&gt;&lt;/div&gt;&lt;/div&gt;&lt;div&gt;&lt;br&gt;&lt;div style=&quot;color: #d4d4d4;background-color: #1e1e1e;font-family: &#39;Fira Code&#39;, Consolas, &#39;Courier New&#39;, monospace;font-weight: normal;font-size: 13px;line-height: 18px;white-space: pre;&quot;&gt;&lt;div&gt;&lt;span style=&quot;color: #dcdcaa;&quot;&gt;+ set&lt;/span&gt;&lt;span style=&quot;color: #d4d4d4;&quot;&gt;(&lt;/span&gt;&lt;span style=&quot;color: #d4d4d4;&quot;&gt;)&lt;/span&gt;&lt;/div&gt;&lt;/div&gt;&lt;div&gt;&lt;br&gt;&lt;/div&gt;&lt;div&gt;&lt;div&gt;&lt;div style=&quot;color: #d4d4d4;background-color: #1e1e1e;font-family: &#39;Fira Code&#39;, Consolas, &#39;Courier New&#39;, monospace;font-weight: normal;font-size: 13px;line-height: 18px;white-space: pre;&quot;&gt;&lt;div&gt;&lt;span style=&quot;color: #dcdcaa;&quot;&gt;+ store&lt;/span&gt;&lt;span style=&quot;color: #d4d4d4;&quot;&gt;()&lt;/span&gt;&lt;/div&gt;&lt;/div&gt;&lt;/div&gt;&lt;/div&gt;&lt;div&gt;&lt;br&gt;&lt;div style=&quot;color: #d4d4d4;background-color: #1e1e1e;font-family: &#39;Fira Code&#39;, Consolas, &#39;Courier New&#39;, monospace;font-weight: normal;font-size: 13px;line-height: 18px;white-space: pre;&quot;&gt;&lt;div&gt;&lt;span style=&quot;color: #dcdcaa;&quot;&gt;+ retrieve&lt;/span&gt;&lt;span style=&quot;color: #d4d4d4;&quot;&gt;(&lt;/span&gt;&lt;span style=&quot;color: #d4d4d4;&quot;&gt;)&lt;/span&gt;&lt;/div&gt;&lt;/div&gt;&lt;div&gt;&lt;br&gt;&lt;/div&gt;&lt;div&gt;&lt;div&gt;&lt;div style=&quot;color: #d4d4d4;background-color: #1e1e1e;font-family: &#39;Fira Code&#39;, Consolas, &#39;Courier New&#39;, monospace;font-weight: normal;font-size: 13px;line-height: 18px;white-space: pre;&quot;&gt;&lt;div&gt;&lt;span style=&quot;color: #dcdcaa;&quot;&gt;+ allocate&lt;/span&gt;&lt;span style=&quot;color: #d4d4d4;&quot;&gt;()&lt;/span&gt;&lt;/div&gt;&lt;/div&gt;&lt;/div&gt;&lt;/div&gt;&lt;div&gt;&lt;br&gt;&lt;div style=&quot;color: #d4d4d4;background-color: #1e1e1e;font-family: &#39;Fira Code&#39;, Consolas, &#39;Courier New&#39;, monospace;font-weight: normal;font-size: 13px;line-height: 18px;white-space: pre;&quot;&gt;&lt;div&gt;&lt;span style=&quot;color: #dcdcaa;&quot;&gt;+ free&lt;/span&gt;&lt;span style=&quot;color: #d4d4d4;&quot;&gt;(&lt;/span&gt;&lt;span style=&quot;color: #d4d4d4;&quot;&gt;)&lt;/span&gt;&lt;/div&gt;&lt;/div&gt;&lt;div&gt;&lt;br&gt;&lt;/div&gt;&lt;div&gt;&lt;div&gt;&lt;div style=&quot;color: #d4d4d4;background-color: #1e1e1e;font-family: &#39;Fira Code&#39;, Consolas, &#39;Courier New&#39;, monospace;font-weight: normal;font-size: 13px;line-height: 18px;white-space: pre;&quot;&gt;&lt;div&gt;&lt;span style=&quot;color: #dcdcaa;&quot;&gt;+ sizeOf&lt;/span&gt;&lt;span style=&quot;color: #d4d4d4;&quot;&gt;()&lt;/span&gt;&lt;/div&gt;&lt;/div&gt;&lt;/div&gt;&lt;/div&gt;&lt;div&gt;&lt;br&gt;&lt;/div&gt;&lt;div&gt;&lt;div style=&quot;color: #d4d4d4;background-color: #1e1e1e;font-family: &#39;Fira Code&#39;, Consolas, &#39;Courier New&#39;, monospace;font-weight: normal;font-size: 13px;line-height: 18px;white-space: pre;&quot;&gt;&lt;div&gt;&lt;span style=&quot;color: #dcdcaa;&quot;&gt;+ getTypeName&lt;/span&gt;&lt;span style=&quot;color: #d4d4d4;&quot;&gt;(&lt;/span&gt;&lt;span style=&quot;color: #d4d4d4;&quot;&gt;)&lt;/span&gt;&lt;/div&gt;&lt;/div&gt;&lt;div&gt;&lt;br&gt;&lt;/div&gt;&lt;div&gt;&lt;div&gt;&lt;div style=&quot;color: #d4d4d4;background-color: #1e1e1e;font-family: &#39;Fira Code&#39;, Consolas, &#39;Courier New&#39;, monospace;font-weight: normal;font-size: 13px;line-height: 18px;white-space: pre;&quot;&gt;&lt;div&gt;&lt;span style=&quot;color: #dcdcaa;&quot;&gt;+ getTypeInformation&lt;/span&gt;&lt;span style=&quot;color: #d4d4d4;&quot;&gt;()&lt;/span&gt;&lt;/div&gt;&lt;/div&gt;&lt;/div&gt;&lt;/div&gt;&lt;div&gt;&lt;br&gt;&lt;div style=&quot;color: #d4d4d4;background-color: #1e1e1e;font-family: &#39;Fira Code&#39;, Consolas, &#39;Courier New&#39;, monospace;font-weight: normal;font-size: 13px;line-height: 18px;white-space: pre;&quot;&gt;&lt;div&gt;&lt;span style=&quot;color: #dcdcaa;&quot;&gt;+ reset&lt;/span&gt;&lt;span style=&quot;color: #d4d4d4;&quot;&gt;(&lt;/span&gt;&lt;span style=&quot;color: #d4d4d4;&quot;&gt;)&lt;/span&gt;&lt;/div&gt;&lt;/div&gt;&lt;div&gt;&lt;br&gt;&lt;/div&gt;&lt;div&gt;&lt;br&gt;&lt;/div&gt;&lt;/div&gt;&lt;br&gt;&lt;br&gt;&lt;/div&gt;&lt;/div&gt;&lt;/div&gt;&lt;/div&gt;" style="text;strokeColor=none;fillColor=none;align=left;verticalAlign=top;spacingLeft=4;spacingRight=4;overflow=hidden;rotatable=0;points=[[0,0.5],[1,0.5]];portConstraint=eastwest;whiteSpace=wrap;html=1;" vertex="1" parent="_7KpmntLeHWkFB2YpqdL-50">
          <mxGeometry y="278" width="240" height="360" as="geometry" />
        </mxCell>
        <mxCell id="_7KpmntLeHWkFB2YpqdL-136" value="" style="curved=1;endArrow=classic;html=1;rounded=0;exitX=0.996;exitY=0.056;exitDx=0;exitDy=0;exitPerimeter=0;entryX=1;entryY=0.136;entryDx=0;entryDy=0;entryPerimeter=0;" edge="1" parent="_7KpmntLeHWkFB2YpqdL-50" source="_7KpmntLeHWkFB2YpqdL-53" target="_7KpmntLeHWkFB2YpqdL-51">
          <mxGeometry width="50" height="50" relative="1" as="geometry">
            <mxPoint x="-80" y="210" as="sourcePoint" />
            <mxPoint x="-120" y="200" as="targetPoint" />
            <Array as="points">
              <mxPoint x="280" y="150" />
            </Array>
          </mxGeometry>
        </mxCell>
        <mxCell id="_7KpmntLeHWkFB2YpqdL-137" value="" style="curved=1;endArrow=classic;html=1;rounded=0;entryX=0.996;entryY=0.393;entryDx=0;entryDy=0;entryPerimeter=0;" edge="1" parent="_7KpmntLeHWkFB2YpqdL-50" target="_7KpmntLeHWkFB2YpqdL-51">
          <mxGeometry width="50" height="50" relative="1" as="geometry">
            <mxPoint x="239" y="290" as="sourcePoint" />
            <mxPoint x="210" y="65" as="targetPoint" />
            <Array as="points">
              <mxPoint x="280" y="180" />
            </Array>
          </mxGeometry>
        </mxCell>
        <mxCell id="_7KpmntLeHWkFB2YpqdL-138" value="" style="curved=1;endArrow=classic;html=1;rounded=0;exitX=1;exitY=0.122;exitDx=0;exitDy=0;exitPerimeter=0;entryX=1.004;entryY=0.164;entryDx=0;entryDy=0;entryPerimeter=0;" edge="1" parent="_7KpmntLeHWkFB2YpqdL-50" source="_7KpmntLeHWkFB2YpqdL-53" target="_7KpmntLeHWkFB2YpqdL-51">
          <mxGeometry width="50" height="50" relative="1" as="geometry">
            <mxPoint x="249" y="308" as="sourcePoint" />
            <mxPoint x="250" y="69" as="targetPoint" />
            <Array as="points">
              <mxPoint x="290" y="160" />
            </Array>
          </mxGeometry>
        </mxCell>
        <mxCell id="_7KpmntLeHWkFB2YpqdL-139" value="" style="curved=1;endArrow=classic;html=1;rounded=0;entryX=1;entryY=0.389;entryDx=0;entryDy=0;entryPerimeter=0;exitX=1;exitY=0.119;exitDx=0;exitDy=0;exitPerimeter=0;" edge="1" parent="_7KpmntLeHWkFB2YpqdL-50" source="_7KpmntLeHWkFB2YpqdL-53" target="_7KpmntLeHWkFB2YpqdL-51">
          <mxGeometry width="50" height="50" relative="1" as="geometry">
            <mxPoint x="249" y="300" as="sourcePoint" />
            <mxPoint x="249" y="132" as="targetPoint" />
            <Array as="points">
              <mxPoint x="290" y="190" />
            </Array>
          </mxGeometry>
        </mxCell>
        <mxCell id="_7KpmntLeHWkFB2YpqdL-141" value="" style="curved=1;endArrow=classic;html=1;rounded=0;exitX=1;exitY=0.214;exitDx=0;exitDy=0;exitPerimeter=0;entryX=1.004;entryY=0.41;entryDx=0;entryDy=0;entryPerimeter=0;" edge="1" parent="_7KpmntLeHWkFB2YpqdL-50" source="_7KpmntLeHWkFB2YpqdL-53" target="_7KpmntLeHWkFB2YpqdL-51">
          <mxGeometry width="50" height="50" relative="1" as="geometry">
            <mxPoint x="250" y="332" as="sourcePoint" />
            <mxPoint x="251" y="76" as="targetPoint" />
            <Array as="points">
              <mxPoint x="300" y="170" />
            </Array>
          </mxGeometry>
        </mxCell>
        <mxCell id="_7KpmntLeHWkFB2YpqdL-142" value="" style="curved=1;endArrow=classic;html=1;rounded=0;exitX=1;exitY=0.219;exitDx=0;exitDy=0;exitPerimeter=0;entryX=1;entryY=0.262;entryDx=0;entryDy=0;entryPerimeter=0;" edge="1" parent="_7KpmntLeHWkFB2YpqdL-50" source="_7KpmntLeHWkFB2YpqdL-53" target="_7KpmntLeHWkFB2YpqdL-51">
          <mxGeometry width="50" height="50" relative="1" as="geometry">
            <mxPoint x="260" y="342" as="sourcePoint" />
            <mxPoint x="261" y="86" as="targetPoint" />
            <Array as="points">
              <mxPoint x="310" y="180" />
            </Array>
          </mxGeometry>
        </mxCell>
        <mxCell id="_7KpmntLeHWkFB2YpqdL-143" value="" style="curved=1;endArrow=classic;html=1;rounded=0;exitX=1.004;exitY=0.311;exitDx=0;exitDy=0;exitPerimeter=0;entryX=1.004;entryY=0.27;entryDx=0;entryDy=0;entryPerimeter=0;" edge="1" parent="_7KpmntLeHWkFB2YpqdL-50" source="_7KpmntLeHWkFB2YpqdL-53" target="_7KpmntLeHWkFB2YpqdL-51">
          <mxGeometry width="50" height="50" relative="1" as="geometry">
            <mxPoint x="270" y="352" as="sourcePoint" />
            <mxPoint x="271" y="96" as="targetPoint" />
            <Array as="points">
              <mxPoint x="320" y="190" />
            </Array>
          </mxGeometry>
        </mxCell>
        <mxCell id="_7KpmntLeHWkFB2YpqdL-144" value="" style="curved=1;endArrow=classic;html=1;rounded=0;exitX=1.008;exitY=0.314;exitDx=0;exitDy=0;exitPerimeter=0;entryX=0.996;entryY=0.393;entryDx=0;entryDy=0;entryPerimeter=0;" edge="1" parent="_7KpmntLeHWkFB2YpqdL-50" source="_7KpmntLeHWkFB2YpqdL-53" target="_7KpmntLeHWkFB2YpqdL-51">
          <mxGeometry width="50" height="50" relative="1" as="geometry">
            <mxPoint x="280" y="362" as="sourcePoint" />
            <mxPoint x="281" y="106" as="targetPoint" />
            <Array as="points">
              <mxPoint x="330" y="200" />
            </Array>
          </mxGeometry>
        </mxCell>
        <mxCell id="_7KpmntLeHWkFB2YpqdL-145" value="" style="curved=1;endArrow=classic;html=1;rounded=0;exitX=1.008;exitY=0.406;exitDx=0;exitDy=0;exitPerimeter=0;entryX=1;entryY=0.283;entryDx=0;entryDy=0;entryPerimeter=0;" edge="1" parent="_7KpmntLeHWkFB2YpqdL-50" source="_7KpmntLeHWkFB2YpqdL-53" target="_7KpmntLeHWkFB2YpqdL-51">
          <mxGeometry width="50" height="50" relative="1" as="geometry">
            <mxPoint x="290" y="372" as="sourcePoint" />
            <mxPoint x="291" y="116" as="targetPoint" />
            <Array as="points">
              <mxPoint x="340" y="210" />
            </Array>
          </mxGeometry>
        </mxCell>
        <mxCell id="_7KpmntLeHWkFB2YpqdL-146" value="" style="curved=1;endArrow=classic;html=1;rounded=0;exitX=1;exitY=0.5;exitDx=0;exitDy=0;entryX=1;entryY=0.5;entryDx=0;entryDy=0;" edge="1" parent="_7KpmntLeHWkFB2YpqdL-50" source="_7KpmntLeHWkFB2YpqdL-53" target="_7KpmntLeHWkFB2YpqdL-51">
          <mxGeometry width="50" height="50" relative="1" as="geometry">
            <mxPoint x="300" y="382" as="sourcePoint" />
            <mxPoint x="301" y="126" as="targetPoint" />
            <Array as="points">
              <mxPoint x="350" y="220" />
            </Array>
          </mxGeometry>
        </mxCell>
        <mxCell id="_7KpmntLeHWkFB2YpqdL-147" value="" style="curved=1;endArrow=classic;html=1;rounded=0;exitX=1;exitY=0.5;exitDx=0;exitDy=0;entryX=1.004;entryY=0.393;entryDx=0;entryDy=0;entryPerimeter=0;" edge="1" parent="_7KpmntLeHWkFB2YpqdL-50" source="_7KpmntLeHWkFB2YpqdL-53" target="_7KpmntLeHWkFB2YpqdL-51">
          <mxGeometry width="50" height="50" relative="1" as="geometry">
            <mxPoint x="250" y="468" as="sourcePoint" />
            <mxPoint x="311" y="136" as="targetPoint" />
            <Array as="points">
              <mxPoint x="360" y="230" />
            </Array>
          </mxGeometry>
        </mxCell>
        <mxCell id="_7KpmntLeHWkFB2YpqdL-149" value="" style="curved=1;endArrow=classic;html=1;rounded=0;exitX=1;exitY=0.5;exitDx=0;exitDy=0;entryX=1.004;entryY=0.266;entryDx=0;entryDy=0;entryPerimeter=0;" edge="1" parent="_7KpmntLeHWkFB2YpqdL-50" source="_7KpmntLeHWkFB2YpqdL-53" target="_7KpmntLeHWkFB2YpqdL-51">
          <mxGeometry width="50" height="50" relative="1" as="geometry">
            <mxPoint x="250" y="468" as="sourcePoint" />
            <mxPoint x="321" y="146" as="targetPoint" />
            <Array as="points">
              <mxPoint x="370" y="240" />
            </Array>
          </mxGeometry>
        </mxCell>
        <mxCell id="_7KpmntLeHWkFB2YpqdL-148" value="" style="curved=1;endArrow=classic;html=1;rounded=0;exitX=1;exitY=0.5;exitDx=0;exitDy=0;entryX=1;entryY=0.143;entryDx=0;entryDy=0;entryPerimeter=0;" edge="1" parent="_7KpmntLeHWkFB2YpqdL-50" source="_7KpmntLeHWkFB2YpqdL-53" target="_7KpmntLeHWkFB2YpqdL-51">
          <mxGeometry width="50" height="50" relative="1" as="geometry">
            <mxPoint x="260" y="478" as="sourcePoint" />
            <mxPoint x="321" y="146" as="targetPoint" />
            <Array as="points">
              <mxPoint x="370" y="290" />
            </Array>
          </mxGeometry>
        </mxCell>
        <mxCell id="_7KpmntLeHWkFB2YpqdL-150" value="" style="curved=1;endArrow=classic;html=1;rounded=0;exitX=1.004;exitY=0.586;exitDx=0;exitDy=0;entryX=1.008;entryY=0.275;entryDx=0;entryDy=0;entryPerimeter=0;exitPerimeter=0;" edge="1" parent="_7KpmntLeHWkFB2YpqdL-50" source="_7KpmntLeHWkFB2YpqdL-53" target="_7KpmntLeHWkFB2YpqdL-51">
          <mxGeometry width="50" height="50" relative="1" as="geometry">
            <mxPoint x="250" y="468" as="sourcePoint" />
            <mxPoint x="250" y="71" as="targetPoint" />
            <Array as="points">
              <mxPoint x="380" y="300" />
            </Array>
          </mxGeometry>
        </mxCell>
        <mxCell id="_7KpmntLeHWkFB2YpqdL-151" value="" style="curved=1;endArrow=classic;html=1;rounded=0;exitX=1.004;exitY=0.675;exitDx=0;exitDy=0;entryX=1.004;entryY=0.275;entryDx=0;entryDy=0;entryPerimeter=0;exitPerimeter=0;" edge="1" parent="_7KpmntLeHWkFB2YpqdL-50" source="_7KpmntLeHWkFB2YpqdL-53" target="_7KpmntLeHWkFB2YpqdL-51">
          <mxGeometry width="50" height="50" relative="1" as="geometry">
            <mxPoint x="260" y="478" as="sourcePoint" />
            <mxPoint x="260" y="81" as="targetPoint" />
            <Array as="points">
              <mxPoint x="390" y="310" />
            </Array>
          </mxGeometry>
        </mxCell>
        <mxCell id="_7KpmntLeHWkFB2YpqdL-152" value="" style="curved=1;endArrow=classic;html=1;rounded=0;exitX=1.004;exitY=0.844;exitDx=0;exitDy=0;entryX=1.004;entryY=0.119;entryDx=0;entryDy=0;entryPerimeter=0;exitPerimeter=0;" edge="1" parent="_7KpmntLeHWkFB2YpqdL-50" source="_7KpmntLeHWkFB2YpqdL-53" target="_7KpmntLeHWkFB2YpqdL-51">
          <mxGeometry width="50" height="50" relative="1" as="geometry">
            <mxPoint x="251" y="531" as="sourcePoint" />
            <mxPoint x="251" y="103" as="targetPoint" />
            <Array as="points">
              <mxPoint x="430" y="320" />
            </Array>
          </mxGeometry>
        </mxCell>
        <mxCell id="_7KpmntLeHWkFB2YpqdL-153" value="" style="curved=1;endArrow=classic;html=1;rounded=0;exitX=1;exitY=0.842;exitDx=0;exitDy=0;exitPerimeter=0;entryX=1;entryY=0.275;entryDx=0;entryDy=0;entryPerimeter=0;" edge="1" parent="_7KpmntLeHWkFB2YpqdL-50" source="_7KpmntLeHWkFB2YpqdL-53" target="_7KpmntLeHWkFB2YpqdL-51">
          <mxGeometry width="50" height="50" relative="1" as="geometry">
            <mxPoint x="261" y="541" as="sourcePoint" />
            <mxPoint x="420" y="100" as="targetPoint" />
            <Array as="points">
              <mxPoint x="450" y="330" />
            </Array>
          </mxGeometry>
        </mxCell>
        <mxCell id="_7KpmntLeHWkFB2YpqdL-154" value="" style="curved=1;endArrow=classic;html=1;rounded=0;exitX=1;exitY=0.933;exitDx=0;exitDy=0;exitPerimeter=0;entryX=0.996;entryY=0.139;entryDx=0;entryDy=0;entryPerimeter=0;" edge="1" parent="_7KpmntLeHWkFB2YpqdL-50" source="_7KpmntLeHWkFB2YpqdL-53" target="_7KpmntLeHWkFB2YpqdL-51">
          <mxGeometry width="50" height="50" relative="1" as="geometry">
            <mxPoint x="250" y="591" as="sourcePoint" />
            <mxPoint x="250" y="103" as="targetPoint" />
            <Array as="points">
              <mxPoint x="510" y="340" />
            </Array>
          </mxGeometry>
        </mxCell>
        <mxCell id="_7KpmntLeHWkFB2YpqdL-155" value="" style="curved=1;endArrow=classic;html=1;rounded=0;exitX=1.004;exitY=0.942;exitDx=0;exitDy=0;exitPerimeter=0;entryX=1.008;entryY=0.393;entryDx=0;entryDy=0;entryPerimeter=0;" edge="1" parent="_7KpmntLeHWkFB2YpqdL-50" source="_7KpmntLeHWkFB2YpqdL-53" target="_7KpmntLeHWkFB2YpqdL-51">
          <mxGeometry width="50" height="50" relative="1" as="geometry">
            <mxPoint x="260" y="601" as="sourcePoint" />
            <mxPoint x="260" y="113" as="targetPoint" />
            <Array as="points">
              <mxPoint x="470" y="350" />
            </Array>
          </mxGeometry>
        </mxCell>
        <mxCell id="_7KpmntLeHWkFB2YpqdL-156" value="" style="curved=1;endArrow=classic;html=1;rounded=0;exitX=1;exitY=0.947;exitDx=0;exitDy=0;exitPerimeter=0;entryX=1.008;entryY=0.533;entryDx=0;entryDy=0;entryPerimeter=0;" edge="1" parent="_7KpmntLeHWkFB2YpqdL-50" source="_7KpmntLeHWkFB2YpqdL-53" target="_7KpmntLeHWkFB2YpqdL-51">
          <mxGeometry width="50" height="50" relative="1" as="geometry">
            <mxPoint x="270" y="611" as="sourcePoint" />
            <mxPoint x="270" y="123" as="targetPoint" />
            <Array as="points">
              <mxPoint x="480" y="360" />
            </Array>
          </mxGeometry>
        </mxCell>
        <mxCell id="_7KpmntLeHWkFB2YpqdL-157" value="" style="curved=1;endArrow=classic;html=1;rounded=0;exitX=1;exitY=0.95;exitDx=0;exitDy=0;exitPerimeter=0;entryX=1;entryY=0.262;entryDx=0;entryDy=0;entryPerimeter=0;" edge="1" parent="_7KpmntLeHWkFB2YpqdL-50" source="_7KpmntLeHWkFB2YpqdL-53" target="_7KpmntLeHWkFB2YpqdL-51">
          <mxGeometry width="50" height="50" relative="1" as="geometry">
            <mxPoint x="280" y="621" as="sourcePoint" />
            <mxPoint x="280" y="133" as="targetPoint" />
            <Array as="points">
              <mxPoint x="490" y="370" />
            </Array>
          </mxGeometry>
        </mxCell>
        <mxCell id="_7KpmntLeHWkFB2YpqdL-54" value="" style="endArrow=classic;html=1;rounded=0;entryX=0.004;entryY=0.192;entryDx=0;entryDy=0;entryPerimeter=0;exitX=1;exitY=0.584;exitDx=0;exitDy=0;exitPerimeter=0;" edge="1" parent="WIyWlLk6GJQsqaUBKTNV-1" source="_7KpmntLeHWkFB2YpqdL-49" target="_7KpmntLeHWkFB2YpqdL-53">
          <mxGeometry width="50" height="50" relative="1" as="geometry">
            <mxPoint x="742" y="504" as="sourcePoint" />
            <mxPoint x="620" y="360" as="targetPoint" />
          </mxGeometry>
        </mxCell>
        <mxCell id="_7KpmntLeHWkFB2YpqdL-55" value="" style="endArrow=classic;html=1;rounded=0;entryX=-0.004;entryY=0.19;entryDx=0;entryDy=0;entryPerimeter=0;exitX=0.995;exitY=0.631;exitDx=0;exitDy=0;exitPerimeter=0;" edge="1" parent="WIyWlLk6GJQsqaUBKTNV-1" source="_7KpmntLeHWkFB2YpqdL-49" target="_7KpmntLeHWkFB2YpqdL-53">
          <mxGeometry width="50" height="50" relative="1" as="geometry">
            <mxPoint x="730.04" y="527.0999999999999" as="sourcePoint" />
            <mxPoint x="880" y="370" as="targetPoint" />
          </mxGeometry>
        </mxCell>
        <mxCell id="_7KpmntLeHWkFB2YpqdL-56" value="" style="endArrow=classic;html=1;rounded=0;entryX=0.004;entryY=0.038;entryDx=0;entryDy=0;entryPerimeter=0;exitX=1.005;exitY=0.695;exitDx=0;exitDy=0;exitPerimeter=0;" edge="1" parent="WIyWlLk6GJQsqaUBKTNV-1" source="_7KpmntLeHWkFB2YpqdL-49" target="_7KpmntLeHWkFB2YpqdL-53">
          <mxGeometry width="50" height="50" relative="1" as="geometry">
            <mxPoint x="750" y="541" as="sourcePoint" />
            <mxPoint x="889" y="438" as="targetPoint" />
          </mxGeometry>
        </mxCell>
        <mxCell id="_7KpmntLeHWkFB2YpqdL-58" value="" style="endArrow=classic;html=1;rounded=0;entryX=0.004;entryY=0.199;entryDx=0;entryDy=0;entryPerimeter=0;exitX=1;exitY=0.743;exitDx=0;exitDy=0;exitPerimeter=0;" edge="1" parent="WIyWlLk6GJQsqaUBKTNV-1" source="_7KpmntLeHWkFB2YpqdL-49" target="_7KpmntLeHWkFB2YpqdL-53">
          <mxGeometry width="50" height="50" relative="1" as="geometry">
            <mxPoint x="741" y="601" as="sourcePoint" />
            <mxPoint x="909" y="458" as="targetPoint" />
          </mxGeometry>
        </mxCell>
        <mxCell id="_7KpmntLeHWkFB2YpqdL-63" value="" style="endArrow=classic;html=1;rounded=0;entryX=0;entryY=0.052;entryDx=0;entryDy=0;entryPerimeter=0;exitX=1;exitY=0.798;exitDx=0;exitDy=0;exitPerimeter=0;" edge="1" parent="WIyWlLk6GJQsqaUBKTNV-1" source="_7KpmntLeHWkFB2YpqdL-49" target="_7KpmntLeHWkFB2YpqdL-53">
          <mxGeometry width="50" height="50" relative="1" as="geometry">
            <mxPoint x="740" y="648" as="sourcePoint" />
            <mxPoint x="930" y="512" as="targetPoint" />
          </mxGeometry>
        </mxCell>
        <mxCell id="_7KpmntLeHWkFB2YpqdL-64" value="" style="endArrow=classic;html=1;rounded=0;entryX=0;entryY=0.052;entryDx=0;entryDy=0;entryPerimeter=0;exitX=0.995;exitY=0.862;exitDx=0;exitDy=0;exitPerimeter=0;" edge="1" parent="WIyWlLk6GJQsqaUBKTNV-1" source="_7KpmntLeHWkFB2YpqdL-49" target="_7KpmntLeHWkFB2YpqdL-53">
          <mxGeometry width="50" height="50" relative="1" as="geometry">
            <mxPoint x="750" y="658" as="sourcePoint" />
            <mxPoint x="940" y="522" as="targetPoint" />
          </mxGeometry>
        </mxCell>
        <mxCell id="_7KpmntLeHWkFB2YpqdL-65" value="" style="endArrow=classic;html=1;rounded=0;entryX=0;entryY=0.045;entryDx=0;entryDy=0;entryPerimeter=0;exitX=0.995;exitY=0.922;exitDx=0;exitDy=0;exitPerimeter=0;" edge="1" parent="WIyWlLk6GJQsqaUBKTNV-1" source="_7KpmntLeHWkFB2YpqdL-49" target="_7KpmntLeHWkFB2YpqdL-53">
          <mxGeometry width="50" height="50" relative="1" as="geometry">
            <mxPoint x="679" y="670" as="sourcePoint" />
            <mxPoint x="890" y="380" as="targetPoint" />
          </mxGeometry>
        </mxCell>
        <mxCell id="_7KpmntLeHWkFB2YpqdL-72" value="" style="endArrow=classic;html=1;rounded=0;" edge="1" parent="WIyWlLk6GJQsqaUBKTNV-1">
          <mxGeometry width="50" height="50" relative="1" as="geometry">
            <mxPoint x="470" y="716" as="sourcePoint" />
            <mxPoint x="490" y="716" as="targetPoint" />
          </mxGeometry>
        </mxCell>
        <mxCell id="_7KpmntLeHWkFB2YpqdL-73" value="" style="endArrow=classic;html=1;rounded=0;" edge="1" parent="WIyWlLk6GJQsqaUBKTNV-1">
          <mxGeometry width="50" height="50" relative="1" as="geometry">
            <mxPoint x="471" y="685" as="sourcePoint" />
            <mxPoint x="491" y="685" as="targetPoint" />
          </mxGeometry>
        </mxCell>
        <mxCell id="_7KpmntLeHWkFB2YpqdL-78" value="" style="endArrow=classic;html=1;rounded=0;" edge="1" parent="WIyWlLk6GJQsqaUBKTNV-1">
          <mxGeometry width="50" height="50" relative="1" as="geometry">
            <mxPoint x="470" y="748" as="sourcePoint" />
            <mxPoint x="490" y="748" as="targetPoint" />
          </mxGeometry>
        </mxCell>
        <mxCell id="_7KpmntLeHWkFB2YpqdL-84" value="" style="endArrow=classic;html=1;rounded=0;" edge="1" parent="WIyWlLk6GJQsqaUBKTNV-1">
          <mxGeometry width="50" height="50" relative="1" as="geometry">
            <mxPoint x="471" y="649" as="sourcePoint" />
            <mxPoint x="491" y="649" as="targetPoint" />
          </mxGeometry>
        </mxCell>
        <mxCell id="_7KpmntLeHWkFB2YpqdL-85" value="" style="endArrow=classic;html=1;rounded=0;" edge="1" parent="WIyWlLk6GJQsqaUBKTNV-1">
          <mxGeometry width="50" height="50" relative="1" as="geometry">
            <mxPoint x="471" y="617" as="sourcePoint" />
            <mxPoint x="491" y="617" as="targetPoint" />
          </mxGeometry>
        </mxCell>
        <mxCell id="_7KpmntLeHWkFB2YpqdL-86" value="" style="endArrow=classic;html=1;rounded=0;" edge="1" parent="WIyWlLk6GJQsqaUBKTNV-1">
          <mxGeometry width="50" height="50" relative="1" as="geometry">
            <mxPoint x="472" y="586" as="sourcePoint" />
            <mxPoint x="492" y="586" as="targetPoint" />
          </mxGeometry>
        </mxCell>
        <mxCell id="_7KpmntLeHWkFB2YpqdL-87" value="" style="endArrow=classic;html=1;rounded=0;" edge="1" parent="WIyWlLk6GJQsqaUBKTNV-1">
          <mxGeometry width="50" height="50" relative="1" as="geometry">
            <mxPoint x="471" y="649" as="sourcePoint" />
            <mxPoint x="491" y="649" as="targetPoint" />
          </mxGeometry>
        </mxCell>
        <mxCell id="_7KpmntLeHWkFB2YpqdL-88" value="" style="endArrow=classic;html=1;rounded=0;" edge="1" parent="WIyWlLk6GJQsqaUBKTNV-1">
          <mxGeometry width="50" height="50" relative="1" as="geometry">
            <mxPoint x="470" y="554" as="sourcePoint" />
            <mxPoint x="490" y="554" as="targetPoint" />
          </mxGeometry>
        </mxCell>
        <mxCell id="_7KpmntLeHWkFB2YpqdL-89" value="" style="endArrow=classic;html=1;rounded=0;" edge="1" parent="WIyWlLk6GJQsqaUBKTNV-1">
          <mxGeometry width="50" height="50" relative="1" as="geometry">
            <mxPoint x="470" y="522" as="sourcePoint" />
            <mxPoint x="490" y="522" as="targetPoint" />
          </mxGeometry>
        </mxCell>
        <mxCell id="_7KpmntLeHWkFB2YpqdL-90" value="" style="endArrow=classic;html=1;rounded=0;" edge="1" parent="WIyWlLk6GJQsqaUBKTNV-1">
          <mxGeometry width="50" height="50" relative="1" as="geometry">
            <mxPoint x="471" y="491" as="sourcePoint" />
            <mxPoint x="491" y="491" as="targetPoint" />
          </mxGeometry>
        </mxCell>
        <mxCell id="_7KpmntLeHWkFB2YpqdL-91" value="" style="endArrow=classic;html=1;rounded=0;" edge="1" parent="WIyWlLk6GJQsqaUBKTNV-1">
          <mxGeometry width="50" height="50" relative="1" as="geometry">
            <mxPoint x="470" y="554" as="sourcePoint" />
            <mxPoint x="490" y="554" as="targetPoint" />
          </mxGeometry>
        </mxCell>
        <mxCell id="_7KpmntLeHWkFB2YpqdL-92" value="" style="endArrow=classic;html=1;rounded=0;" edge="1" parent="WIyWlLk6GJQsqaUBKTNV-1">
          <mxGeometry width="50" height="50" relative="1" as="geometry">
            <mxPoint x="471" y="455" as="sourcePoint" />
            <mxPoint x="491" y="455" as="targetPoint" />
          </mxGeometry>
        </mxCell>
        <mxCell id="_7KpmntLeHWkFB2YpqdL-93" value="" style="endArrow=classic;html=1;rounded=0;" edge="1" parent="WIyWlLk6GJQsqaUBKTNV-1">
          <mxGeometry width="50" height="50" relative="1" as="geometry">
            <mxPoint x="471" y="423" as="sourcePoint" />
            <mxPoint x="491" y="423" as="targetPoint" />
          </mxGeometry>
        </mxCell>
        <mxCell id="_7KpmntLeHWkFB2YpqdL-94" value="" style="endArrow=classic;html=1;rounded=0;" edge="1" parent="WIyWlLk6GJQsqaUBKTNV-1">
          <mxGeometry width="50" height="50" relative="1" as="geometry">
            <mxPoint x="472" y="392" as="sourcePoint" />
            <mxPoint x="492" y="392" as="targetPoint" />
          </mxGeometry>
        </mxCell>
        <mxCell id="_7KpmntLeHWkFB2YpqdL-95" value="" style="endArrow=classic;html=1;rounded=0;" edge="1" parent="WIyWlLk6GJQsqaUBKTNV-1">
          <mxGeometry width="50" height="50" relative="1" as="geometry">
            <mxPoint x="471" y="455" as="sourcePoint" />
            <mxPoint x="491" y="455" as="targetPoint" />
          </mxGeometry>
        </mxCell>
        <mxCell id="_7KpmntLeHWkFB2YpqdL-97" value="" style="endArrow=classic;html=1;rounded=0;" edge="1" parent="WIyWlLk6GJQsqaUBKTNV-1">
          <mxGeometry width="50" height="50" relative="1" as="geometry">
            <mxPoint x="471" y="357" as="sourcePoint" />
            <mxPoint x="491" y="357" as="targetPoint" />
          </mxGeometry>
        </mxCell>
        <mxCell id="_7KpmntLeHWkFB2YpqdL-98" value="" style="endArrow=classic;html=1;rounded=0;" edge="1" parent="WIyWlLk6GJQsqaUBKTNV-1">
          <mxGeometry width="50" height="50" relative="1" as="geometry">
            <mxPoint x="471" y="325" as="sourcePoint" />
            <mxPoint x="491" y="325" as="targetPoint" />
          </mxGeometry>
        </mxCell>
        <mxCell id="_7KpmntLeHWkFB2YpqdL-99" value="" style="endArrow=classic;html=1;rounded=0;" edge="1" parent="WIyWlLk6GJQsqaUBKTNV-1">
          <mxGeometry width="50" height="50" relative="1" as="geometry">
            <mxPoint x="472" y="294" as="sourcePoint" />
            <mxPoint x="492" y="294" as="targetPoint" />
          </mxGeometry>
        </mxCell>
        <mxCell id="_7KpmntLeHWkFB2YpqdL-100" value="" style="endArrow=classic;html=1;rounded=0;" edge="1" parent="WIyWlLk6GJQsqaUBKTNV-1">
          <mxGeometry width="50" height="50" relative="1" as="geometry">
            <mxPoint x="471" y="357" as="sourcePoint" />
            <mxPoint x="491" y="357" as="targetPoint" />
          </mxGeometry>
        </mxCell>
        <mxCell id="_7KpmntLeHWkFB2YpqdL-101" value="&lt;div style=&quot;color: #d4d4d4;background-color: #1e1e1e;font-family: &#39;Fira Code&#39;, Consolas, &#39;Courier New&#39;, monospace;font-weight: normal;font-size: 13px;line-height: 18px;white-space: pre;&quot;&gt;&lt;div&gt;&lt;div style=&quot;color: #d4d4d4;background-color: #1e1e1e;font-family: &#39;Fira Code&#39;, Consolas, &#39;Courier New&#39;, monospace;font-weight: normal;font-size: 13px;line-height: 18px;white-space: pre;&quot;&gt;&lt;div&gt;&lt;span style=&quot;color: #569cd6;&quot;&gt;enum &lt;/span&gt;&lt;span style=&quot;color: #4ec9b0;&quot;&gt;LexerTokens&lt;/span&gt;&lt;/div&gt;&lt;/div&gt;&lt;/div&gt;&lt;/div&gt;" style="html=1;whiteSpace=wrap;" vertex="1" parent="WIyWlLk6GJQsqaUBKTNV-1">
          <mxGeometry x="80" y="-20" width="240" height="50" as="geometry" />
        </mxCell>
        <mxCell id="_7KpmntLeHWkFB2YpqdL-102" value="&lt;div style=&quot;color: #d4d4d4;background-color: #1e1e1e;font-family: &#39;Fira Code&#39;, Consolas, &#39;Courier New&#39;, monospace;font-weight: normal;font-size: 13px;line-height: 18px;white-space: pre;&quot;&gt;&lt;div&gt;&lt;div style=&quot;color: #d4d4d4;background-color: #1e1e1e;font-family: &#39;Fira Code&#39;, Consolas, &#39;Courier New&#39;, monospace;font-weight: normal;font-size: 13px;line-height: 18px;white-space: pre;&quot;&gt;&lt;div&gt;&lt;span style=&quot;color: #569cd6;&quot;&gt;enum &lt;/span&gt;&lt;span style=&quot;color: #4ec9b0;&quot;&gt;ParserTokens&lt;/span&gt;&lt;/div&gt;&lt;/div&gt;&lt;/div&gt;&lt;/div&gt;" style="html=1;whiteSpace=wrap;" vertex="1" parent="WIyWlLk6GJQsqaUBKTNV-1">
          <mxGeometry x="80" y="280" width="240" height="50" as="geometry" />
        </mxCell>
        <mxCell id="_7KpmntLeHWkFB2YpqdL-103" value="&lt;div style=&quot;color: #d4d4d4;background-color: #1e1e1e;font-family: &#39;Fira Code&#39;, Consolas, &#39;Courier New&#39;, monospace;font-weight: normal;font-size: 13px;line-height: 18px;white-space: pre;&quot;&gt;&lt;div&gt;&lt;div style=&quot;color: #d4d4d4;background-color: #1e1e1e;font-family: &#39;Fira Code&#39;, Consolas, &#39;Courier New&#39;, monospace;font-weight: normal;font-size: 13px;line-height: 18px;white-space: pre;&quot;&gt;&lt;div&gt;&lt;span style=&quot;color: #569cd6;&quot;&gt;enum &lt;/span&gt;&lt;span style=&quot;color: #4ec9b0;&quot;&gt;InterpTokens&lt;/span&gt;&lt;/div&gt;&lt;/div&gt;&lt;/div&gt;&lt;/div&gt;" style="html=1;whiteSpace=wrap;" vertex="1" parent="WIyWlLk6GJQsqaUBKTNV-1">
          <mxGeometry x="487" y="115" width="196" height="50" as="geometry" />
        </mxCell>
        <mxCell id="_7KpmntLeHWkFB2YpqdL-104" value="" style="endArrow=none;html=1;rounded=0;entryX=0.5;entryY=0;entryDx=0;entryDy=0;exitX=0.5;exitY=1;exitDx=0;exitDy=0;" edge="1" parent="WIyWlLk6GJQsqaUBKTNV-1" source="_7KpmntLeHWkFB2YpqdL-103" target="_7KpmntLeHWkFB2YpqdL-46">
          <mxGeometry width="50" height="50" relative="1" as="geometry">
            <mxPoint x="444" y="285" as="sourcePoint" />
            <mxPoint x="494" y="235" as="targetPoint" />
          </mxGeometry>
        </mxCell>
        <mxCell id="_7KpmntLeHWkFB2YpqdL-105" value="" style="endArrow=none;html=1;rounded=0;entryX=0.5;entryY=0;entryDx=0;entryDy=0;exitX=0.5;exitY=1;exitDx=0;exitDy=0;" edge="1" parent="WIyWlLk6GJQsqaUBKTNV-1" source="_7KpmntLeHWkFB2YpqdL-102" target="_7KpmntLeHWkFB2YpqdL-16">
          <mxGeometry width="50" height="50" relative="1" as="geometry">
            <mxPoint x="721" y="250" as="sourcePoint" />
            <mxPoint x="721" y="270" as="targetPoint" />
          </mxGeometry>
        </mxCell>
        <mxCell id="_7KpmntLeHWkFB2YpqdL-106" value="" style="endArrow=none;html=1;rounded=0;entryX=0.5;entryY=0;entryDx=0;entryDy=0;exitX=0.5;exitY=1;exitDx=0;exitDy=0;" edge="1" parent="WIyWlLk6GJQsqaUBKTNV-1" source="_7KpmntLeHWkFB2YpqdL-101" target="_7KpmntLeHWkFB2YpqdL-5">
          <mxGeometry width="50" height="50" relative="1" as="geometry">
            <mxPoint x="731" y="260" as="sourcePoint" />
            <mxPoint x="731" y="280" as="targetPoint" />
          </mxGeometry>
        </mxCell>
        <mxCell id="_7KpmntLeHWkFB2YpqdL-121" value="" style="endArrow=classic;html=1;rounded=0;" edge="1" parent="WIyWlLk6GJQsqaUBKTNV-1">
          <mxGeometry width="50" height="50" relative="1" as="geometry">
            <mxPoint x="1209" y="901" as="sourcePoint" />
            <mxPoint x="1189" y="901" as="targetPoint" />
          </mxGeometry>
        </mxCell>
        <mxCell id="_7KpmntLeHWkFB2YpqdL-122" value="" style="endArrow=classic;html=1;rounded=0;" edge="1" parent="WIyWlLk6GJQsqaUBKTNV-1">
          <mxGeometry width="50" height="50" relative="1" as="geometry">
            <mxPoint x="1208" y="870" as="sourcePoint" />
            <mxPoint x="1188" y="870" as="targetPoint" />
          </mxGeometry>
        </mxCell>
        <mxCell id="_7KpmntLeHWkFB2YpqdL-123" value="" style="endArrow=classic;html=1;rounded=0;" edge="1" parent="WIyWlLk6GJQsqaUBKTNV-1">
          <mxGeometry width="50" height="50" relative="1" as="geometry">
            <mxPoint x="1208" y="834" as="sourcePoint" />
            <mxPoint x="1188" y="834" as="targetPoint" />
          </mxGeometry>
        </mxCell>
        <mxCell id="_7KpmntLeHWkFB2YpqdL-124" value="" style="endArrow=classic;html=1;rounded=0;" edge="1" parent="WIyWlLk6GJQsqaUBKTNV-1">
          <mxGeometry width="50" height="50" relative="1" as="geometry">
            <mxPoint x="1208" y="802" as="sourcePoint" />
            <mxPoint x="1188" y="802" as="targetPoint" />
          </mxGeometry>
        </mxCell>
        <mxCell id="_7KpmntLeHWkFB2YpqdL-125" value="" style="endArrow=classic;html=1;rounded=0;" edge="1" parent="WIyWlLk6GJQsqaUBKTNV-1">
          <mxGeometry width="50" height="50" relative="1" as="geometry">
            <mxPoint x="1209" y="771" as="sourcePoint" />
            <mxPoint x="1189" y="771" as="targetPoint" />
          </mxGeometry>
        </mxCell>
        <mxCell id="_7KpmntLeHWkFB2YpqdL-127" value="" style="endArrow=classic;html=1;rounded=0;" edge="1" parent="WIyWlLk6GJQsqaUBKTNV-1">
          <mxGeometry width="50" height="50" relative="1" as="geometry">
            <mxPoint x="1208" y="739" as="sourcePoint" />
            <mxPoint x="1188" y="739" as="targetPoint" />
          </mxGeometry>
        </mxCell>
        <mxCell id="_7KpmntLeHWkFB2YpqdL-128" value="" style="endArrow=classic;html=1;rounded=0;" edge="1" parent="WIyWlLk6GJQsqaUBKTNV-1">
          <mxGeometry width="50" height="50" relative="1" as="geometry">
            <mxPoint x="1209" y="707" as="sourcePoint" />
            <mxPoint x="1189" y="707" as="targetPoint" />
          </mxGeometry>
        </mxCell>
        <mxCell id="_7KpmntLeHWkFB2YpqdL-129" value="" style="endArrow=classic;html=1;rounded=0;" edge="1" parent="WIyWlLk6GJQsqaUBKTNV-1">
          <mxGeometry width="50" height="50" relative="1" as="geometry">
            <mxPoint x="1208" y="676" as="sourcePoint" />
            <mxPoint x="1188" y="676" as="targetPoint" />
          </mxGeometry>
        </mxCell>
        <mxCell id="_7KpmntLeHWkFB2YpqdL-131" value="" style="endArrow=classic;html=1;rounded=0;" edge="1" parent="WIyWlLk6GJQsqaUBKTNV-1">
          <mxGeometry width="50" height="50" relative="1" as="geometry">
            <mxPoint x="1208" y="640" as="sourcePoint" />
            <mxPoint x="1188" y="640" as="targetPoint" />
          </mxGeometry>
        </mxCell>
        <mxCell id="_7KpmntLeHWkFB2YpqdL-132" value="" style="endArrow=classic;html=1;rounded=0;" edge="1" parent="WIyWlLk6GJQsqaUBKTNV-1">
          <mxGeometry width="50" height="50" relative="1" as="geometry">
            <mxPoint x="1208" y="608" as="sourcePoint" />
            <mxPoint x="1188" y="608" as="targetPoint" />
          </mxGeometry>
        </mxCell>
        <mxCell id="_7KpmntLeHWkFB2YpqdL-133" value="" style="endArrow=classic;html=1;rounded=0;" edge="1" parent="WIyWlLk6GJQsqaUBKTNV-1">
          <mxGeometry width="50" height="50" relative="1" as="geometry">
            <mxPoint x="1209" y="577" as="sourcePoint" />
            <mxPoint x="1189" y="577" as="targetPoint" />
          </mxGeometry>
        </mxCell>
        <mxCell id="_7KpmntLeHWkFB2YpqdL-135" value="" style="endArrow=none;html=1;rounded=0;" edge="1" parent="WIyWlLk6GJQsqaUBKTNV-1">
          <mxGeometry width="50" height="50" relative="1" as="geometry">
            <mxPoint x="1209" y="906" as="sourcePoint" />
            <mxPoint x="1209" y="576" as="targetPoint" />
          </mxGeometry>
        </mxCell>
        <mxCell id="_7KpmntLeHWkFB2YpqdL-158" value="&lt;div style=&quot;color: #d4d4d4;background-color: #1e1e1e;font-family: &#39;Fira Code&#39;, Consolas, &#39;Courier New&#39;, monospace;font-weight: normal;font-size: 13px;line-height: 18px;white-space: pre;&quot;&gt;&lt;div&gt;&lt;div style=&quot;color: #d4d4d4;background-color: #1e1e1e;font-family: &#39;Fira Code&#39;, Consolas, &#39;Courier New&#39;, monospace;font-weight: normal;font-size: 13px;line-height: 18px;white-space: pre;&quot;&gt;&lt;div&gt;&lt;span style=&quot;color: #569cd6;&quot;&gt;static &lt;/span&gt;&lt;span style=&quot;color: #569cd6;&quot;&gt;class&lt;/span&gt;&lt;span style=&quot;color: #d4d4d4;&quot;&gt; &lt;/span&gt;&lt;span style=&quot;color: #4ec9b0;&quot;&gt;HashTables&lt;/span&gt;&lt;/div&gt;&lt;/div&gt;&lt;/div&gt;&lt;/div&gt;" style="swimlane;fontStyle=1;align=center;verticalAlign=top;childLayout=stackLayout;horizontal=1;startSize=26;horizontalStack=0;resizeParent=1;resizeParentMax=0;resizeLast=0;collapsible=1;marginBottom=0;whiteSpace=wrap;html=1;" vertex="1" parent="WIyWlLk6GJQsqaUBKTNV-1">
          <mxGeometry x="1680" y="-230" width="240" height="340" as="geometry" />
        </mxCell>
        <mxCell id="_7KpmntLeHWkFB2YpqdL-159" value="&lt;div style=&quot;color: #d4d4d4;background-color: #1e1e1e;font-family: &#39;Fira Code&#39;, Consolas, &#39;Courier New&#39;, monospace;font-weight: normal;font-size: 13px;line-height: 18px;white-space: pre;&quot;&gt;&lt;div&gt;&lt;span style=&quot;color: #9cdcfe;&quot;&gt;+ OBJECT_HASH_TABLE_CELL_SIZE&lt;/span&gt;&lt;/div&gt;&lt;/div&gt;" style="text;strokeColor=none;fillColor=none;align=left;verticalAlign=top;spacingLeft=4;spacingRight=4;overflow=hidden;rotatable=0;points=[[0,0.5],[1,0.5]];portConstraint=eastwest;whiteSpace=wrap;html=1;" vertex="1" parent="_7KpmntLeHWkFB2YpqdL-158">
          <mxGeometry y="26" width="240" height="26" as="geometry" />
        </mxCell>
        <mxCell id="_7KpmntLeHWkFB2YpqdL-160" value="" style="line;strokeWidth=1;fillColor=none;align=left;verticalAlign=middle;spacingTop=-1;spacingLeft=3;spacingRight=3;rotatable=0;labelPosition=right;points=[];portConstraint=eastwest;strokeColor=inherit;" vertex="1" parent="_7KpmntLeHWkFB2YpqdL-158">
          <mxGeometry y="52" width="240" height="8" as="geometry" />
        </mxCell>
        <mxCell id="_7KpmntLeHWkFB2YpqdL-161" value="&lt;div&gt;&lt;br&gt;&lt;/div&gt;&lt;div style=&quot;color: #d4d4d4;background-color: #1e1e1e;font-family: &#39;Fira Code&#39;, Consolas, &#39;Courier New&#39;, monospace;font-weight: normal;font-size: 13px;line-height: 18px;white-space: pre;&quot;&gt;&lt;div&gt;&lt;span style=&quot;color: #dcdcaa;&quot;&gt;+ generateObjectHashTable&lt;/span&gt;&lt;span style=&quot;color: #d4d4d4;&quot;&gt;(&lt;/span&gt;&lt;span style=&quot;color: #d4d4d4;&quot;&gt;)&lt;/span&gt;&lt;/div&gt;&lt;/div&gt;&lt;div&gt;&lt;br&gt;&lt;/div&gt;&lt;div&gt;&lt;div&gt;&lt;div style=&quot;color: #d4d4d4;background-color: #1e1e1e;font-family: &#39;Fira Code&#39;, Consolas, &#39;Courier New&#39;, monospace;font-weight: normal;font-size: 13px;line-height: 18px;white-space: pre;&quot;&gt;&lt;div&gt;&lt;span style=&quot;color: #dcdcaa;&quot;&gt;+ readObjectHashTable()&lt;/span&gt;&lt;/div&gt;&lt;/div&gt;&lt;/div&gt;&lt;/div&gt;&lt;br&gt;&lt;div style=&quot;color: #d4d4d4;background-color: #1e1e1e;font-family: &#39;Fira Code&#39;, Consolas, &#39;Courier New&#39;, monospace;font-weight: normal;font-size: 13px;line-height: 18px;white-space: pre;&quot;&gt;&lt;div&gt;&lt;span style=&quot;color: #dcdcaa;&quot;&gt;+ hashTableHasKey&lt;/span&gt;&lt;span style=&quot;color: #d4d4d4;&quot;&gt;(&lt;/span&gt;&lt;span style=&quot;color: #d4d4d4;&quot;&gt;)&lt;/span&gt;&lt;/div&gt;&lt;/div&gt;&lt;div&gt;&lt;br&gt;&lt;/div&gt;&lt;div&gt;&lt;div&gt;&lt;div style=&quot;color: #d4d4d4;background-color: #1e1e1e;font-family: &#39;Fira Code&#39;, Consolas, &#39;Courier New&#39;, monospace;font-weight: normal;font-size: 13px;line-height: 18px;white-space: pre;&quot;&gt;&lt;div&gt;&lt;span style=&quot;color: #dcdcaa;&quot;&gt;+ hashTableGetKey&lt;/span&gt;&lt;span style=&quot;color: #d4d4d4;&quot;&gt;()&lt;/span&gt;&lt;/div&gt;&lt;/div&gt;&lt;/div&gt;&lt;/div&gt;&lt;br&gt;&lt;div style=&quot;color: #d4d4d4;background-color: #1e1e1e;font-family: &#39;Fira Code&#39;, Consolas, &#39;Courier New&#39;, monospace;font-weight: normal;font-size: 13px;line-height: 18px;white-space: pre;&quot;&gt;&lt;div&gt;&lt;span style=&quot;color: #dcdcaa;&quot;&gt;+ objectAddKey&lt;/span&gt;&lt;span style=&quot;color: #d4d4d4;&quot;&gt;(&lt;/span&gt;&lt;span style=&quot;color: #d4d4d4;&quot;&gt;)&lt;/span&gt;&lt;/div&gt;&lt;/div&gt;&lt;div&gt;&lt;br&gt;&lt;/div&gt;&lt;div&gt;&lt;div&gt;&lt;div style=&quot;color: #d4d4d4;background-color: #1e1e1e;font-family: &#39;Fira Code&#39;, Consolas, &#39;Courier New&#39;, monospace;font-weight: normal;font-size: 13px;line-height: 18px;white-space: pre;&quot;&gt;&lt;div&gt;&lt;span style=&quot;color: #dcdcaa;&quot;&gt;+ objectSetKey&lt;/span&gt;&lt;span style=&quot;color: #d4d4d4;&quot;&gt;()&lt;/span&gt;&lt;/div&gt;&lt;/div&gt;&lt;/div&gt;&lt;/div&gt;&lt;br&gt;&lt;div style=&quot;color: #d4d4d4;background-color: #1e1e1e;font-family: &#39;Fira Code&#39;, Consolas, &#39;Courier New&#39;, monospace;font-weight: normal;font-size: 13px;line-height: 18px;white-space: pre;&quot;&gt;&lt;div&gt;&lt;span style=&quot;color: #dcdcaa;&quot;&gt;+ objectGetKey&lt;/span&gt;&lt;span style=&quot;color: #d4d4d4;&quot;&gt;(&lt;/span&gt;&lt;span style=&quot;color: #d4d4d4;&quot;&gt;)&lt;/span&gt;&lt;/div&gt;&lt;/div&gt;&lt;div&gt;&lt;br&gt;&lt;/div&gt;&lt;div&gt;&lt;div&gt;&lt;div style=&quot;color: #d4d4d4;background-color: #1e1e1e;font-family: &#39;Fira Code&#39;, Consolas, &#39;Courier New&#39;, monospace;font-weight: normal;font-size: 13px;line-height: 18px;white-space: pre;&quot;&gt;&lt;div&gt;&lt;span style=&quot;color: #dcdcaa;&quot;&gt;+ getHashTableOf&lt;/span&gt;&lt;span style=&quot;color: #d4d4d4;&quot;&gt;()&lt;/span&gt;&lt;/div&gt;&lt;/div&gt;&lt;/div&gt;&lt;/div&gt;&lt;div&gt;&lt;br&gt;&lt;/div&gt;&lt;div&gt;&lt;div&gt;&lt;br&gt;&lt;/div&gt;&lt;/div&gt;" style="text;strokeColor=none;fillColor=none;align=left;verticalAlign=top;spacingLeft=4;spacingRight=4;overflow=hidden;rotatable=0;points=[[0,0.5],[1,0.5]];portConstraint=eastwest;whiteSpace=wrap;html=1;" vertex="1" parent="_7KpmntLeHWkFB2YpqdL-158">
          <mxGeometry y="60" width="240" height="280" as="geometry" />
        </mxCell>
        <mxCell id="_7KpmntLeHWkFB2YpqdL-162" value="" style="endArrow=classic;html=1;rounded=0;exitX=0.996;exitY=0.659;exitDx=0;exitDy=0;exitPerimeter=0;" edge="1" parent="WIyWlLk6GJQsqaUBKTNV-1" source="_7KpmntLeHWkFB2YpqdL-19">
          <mxGeometry width="50" height="50" relative="1" as="geometry">
            <mxPoint x="329" y="652" as="sourcePoint" />
            <mxPoint x="420" y="425" as="targetPoint" />
          </mxGeometry>
        </mxCell>
        <mxCell id="_7KpmntLeHWkFB2YpqdL-231" value="" style="edgeStyle=orthogonalEdgeStyle;rounded=0;orthogonalLoop=1;jettySize=auto;html=1;exitX=1.004;exitY=0.037;exitDx=0;exitDy=0;exitPerimeter=0;entryX=0;entryY=0.029;entryDx=0;entryDy=0;entryPerimeter=0;" edge="1" parent="WIyWlLk6GJQsqaUBKTNV-1" source="_7KpmntLeHWkFB2YpqdL-164" target="_7KpmntLeHWkFB2YpqdL-158">
          <mxGeometry relative="1" as="geometry" />
        </mxCell>
        <mxCell id="_7KpmntLeHWkFB2YpqdL-233" value="" style="edgeStyle=orthogonalEdgeStyle;rounded=0;orthogonalLoop=1;jettySize=auto;html=1;entryX=-0.008;entryY=0.167;entryDx=0;entryDy=0;entryPerimeter=0;" edge="1" parent="WIyWlLk6GJQsqaUBKTNV-1" source="_7KpmntLeHWkFB2YpqdL-164" target="_7KpmntLeHWkFB2YpqdL-226">
          <mxGeometry relative="1" as="geometry">
            <Array as="points">
              <mxPoint x="1655" y="-190" />
              <mxPoint x="1655" y="145" />
            </Array>
          </mxGeometry>
        </mxCell>
        <mxCell id="_7KpmntLeHWkFB2YpqdL-164" value="&lt;div style=&quot;color: #d4d4d4;background-color: #1e1e1e;font-family: &#39;Fira Code&#39;, Consolas, &#39;Courier New&#39;, monospace;font-weight: normal;font-size: 13px;line-height: 18px;white-space: pre;&quot;&gt;&lt;div&gt;&lt;span style=&quot;color: #569cd6;&quot;&gt;class&lt;/span&gt;&lt;span style=&quot;color: #d4d4d4;&quot;&gt; &lt;/span&gt;&lt;span style=&quot;color: #4ec9b0;&quot;&gt;Storage&lt;/span&gt;&lt;/div&gt;&lt;/div&gt;" style="swimlane;fontStyle=1;align=center;verticalAlign=top;childLayout=stackLayout;horizontal=1;startSize=26;horizontalStack=0;resizeParent=1;resizeParentMax=0;resizeLast=0;collapsible=1;marginBottom=0;whiteSpace=wrap;html=1;" vertex="1" parent="WIyWlLk6GJQsqaUBKTNV-1">
          <mxGeometry x="1390" y="-210" width="240" height="380" as="geometry" />
        </mxCell>
        <mxCell id="_7KpmntLeHWkFB2YpqdL-165" value="&lt;div&gt;&lt;div&gt;&lt;br&gt;&lt;/div&gt;&lt;div&gt;&lt;div&gt;&lt;div style=&quot;color: #d4d4d4;background-color: #1e1e1e;font-family: &#39;Fira Code&#39;, Consolas, &#39;Courier New&#39;, monospace;font-weight: normal;font-size: 13px;line-height: 18px;white-space: pre;&quot;&gt;&lt;div&gt;&lt;span style=&quot;color: #dcdcaa;&quot;&gt;+ &lt;/span&gt;&lt;span style=&quot;color: #9cdcfe;&quot;&gt;parent:Memory&lt;/span&gt;&lt;/div&gt;&lt;/div&gt;&lt;/div&gt;&lt;/div&gt;&lt;br&gt;&lt;/div&gt;&lt;div style=&quot;color: #d4d4d4;background-color: #1e1e1e;font-family: &#39;Fira Code&#39;, Consolas, &#39;Courier New&#39;, monospace;font-weight: normal;font-size: 13px;line-height: 18px;white-space: pre;&quot;&gt;&lt;div&gt;&lt;span style=&quot;color: #dcdcaa;&quot;&gt;+ &lt;/span&gt;&lt;span style=&quot;color: #9cdcfe;&quot;&gt;storage:ByteArray&lt;/span&gt;&lt;/div&gt;&lt;/div&gt;&lt;div&gt;&lt;br&gt;&lt;/div&gt;&lt;div&gt;&lt;div&gt;&lt;div style=&quot;color: #d4d4d4;background-color: #1e1e1e;font-family: &#39;Fira Code&#39;, Consolas, &#39;Courier New&#39;, monospace;font-weight: normal;font-size: 13px;line-height: 18px;white-space: pre;&quot;&gt;&lt;div&gt;&lt;span style=&quot;color: #dcdcaa;&quot;&gt;+ &lt;/span&gt;&lt;span style=&quot;color: #9cdcfe;&quot;&gt;reserved&lt;/span&gt;&lt;span style=&quot;color: #9cdcfe;&quot;&gt;:ByteArray&lt;/span&gt;&lt;/div&gt;&lt;/div&gt;&lt;/div&gt;&lt;/div&gt;&lt;span style=&quot;color: #dcdcaa;&quot;&gt;&lt;br&gt;&lt;/span&gt;&lt;span style=&quot;color: #dcdcaa;&quot;&gt;&lt;/span&gt;" style="text;strokeColor=none;fillColor=none;align=left;verticalAlign=top;spacingLeft=4;spacingRight=4;overflow=hidden;rotatable=0;points=[[0,0.5],[1,0.5]];portConstraint=eastwest;whiteSpace=wrap;html=1;" vertex="1" parent="_7KpmntLeHWkFB2YpqdL-164">
          <mxGeometry y="26" width="240" height="114" as="geometry" />
        </mxCell>
        <mxCell id="_7KpmntLeHWkFB2YpqdL-166" value="" style="line;strokeWidth=1;fillColor=none;align=left;verticalAlign=middle;spacingTop=-1;spacingLeft=3;spacingRight=3;rotatable=0;labelPosition=right;points=[];portConstraint=eastwest;strokeColor=inherit;" vertex="1" parent="_7KpmntLeHWkFB2YpqdL-164">
          <mxGeometry y="140" width="240" height="8" as="geometry" />
        </mxCell>
        <mxCell id="_7KpmntLeHWkFB2YpqdL-167" value="&lt;div&gt;&lt;div style=&quot;color: #d4d4d4;background-color: #1e1e1e;font-family: &#39;Fira Code&#39;, Consolas, &#39;Courier New&#39;, monospace;font-weight: normal;font-size: 13px;line-height: 18px;white-space: pre;&quot;&gt;&lt;div&gt;&lt;b&gt;&lt;span style=&quot;color: #dcdcaa;&quot;&gt;read()&lt;/span&gt;&lt;/b&gt;&lt;/div&gt;&lt;/div&gt;&lt;/div&gt;&lt;div&gt;&lt;br&gt;&lt;/div&gt;&lt;div style=&quot;color: #d4d4d4;background-color: #1e1e1e;font-family: &#39;Fira Code&#39;, Consolas, &#39;Courier New&#39;, monospace;font-weight: normal;font-size: 13px;line-height: 18px;white-space: pre;&quot;&gt;&lt;div&gt;&lt;span style=&quot;color: #dcdcaa;&quot;&gt;+ store...&lt;/span&gt;&lt;span style=&quot;color: #d4d4d4;&quot;&gt;(&lt;/span&gt;&lt;span style=&quot;color: #d4d4d4;&quot;&gt;) (15 functions)&lt;/span&gt;&lt;/div&gt;&lt;/div&gt;&lt;div&gt;&lt;br&gt;&lt;div style=&quot;color: #d4d4d4;background-color: #1e1e1e;font-family: &#39;Fira Code&#39;, Consolas, &#39;Courier New&#39;, monospace;font-weight: normal;font-size: 13px;line-height: 18px;white-space: pre;&quot;&gt;&lt;div&gt;&lt;span style=&quot;color: #dcdcaa;&quot;&gt;+ set...&lt;/span&gt;&lt;span style=&quot;color: #d4d4d4;&quot;&gt;(&lt;/span&gt;&lt;span style=&quot;color: #d4d4d4;&quot;&gt;) (15 functions)&lt;/span&gt;&lt;/div&gt;&lt;/div&gt;&lt;div&gt;&lt;br&gt;&lt;/div&gt;&lt;div&gt;&lt;div&gt;&lt;div style=&quot;color: #d4d4d4;background-color: #1e1e1e;font-family: &#39;Fira Code&#39;, Consolas, &#39;Courier New&#39;, monospace;font-weight: normal;font-size: 13px;line-height: 18px;white-space: pre;&quot;&gt;&lt;div&gt;&lt;span style=&quot;color: #dcdcaa;&quot;&gt;+ read...&lt;/span&gt;&lt;span style=&quot;color: #d4d4d4;&quot;&gt;() (15 functions)&lt;/span&gt;&lt;/div&gt;&lt;/div&gt;&lt;/div&gt;&lt;/div&gt;&lt;div&gt;&lt;br&gt;&lt;div style=&quot;color: #d4d4d4;background-color: #1e1e1e;font-family: &#39;Fira Code&#39;, Consolas, &#39;Courier New&#39;, monospace;font-weight: normal;font-size: 13px;line-height: 18px;white-space: pre;&quot;&gt;&lt;div&gt;&lt;span style=&quot;color: #dcdcaa;&quot;&gt;+ free...&lt;/span&gt;&lt;span style=&quot;color: #d4d4d4;&quot;&gt;(&lt;/span&gt;&lt;span style=&quot;color: #d4d4d4;&quot;&gt;) (15 functions)&lt;/span&gt;&lt;/div&gt;&lt;/div&gt;&lt;div&gt;&lt;br&gt;&lt;/div&gt;&lt;div&gt;&lt;div&gt;&lt;div style=&quot;color: #d4d4d4;background-color: #1e1e1e;font-family: &#39;Fira Code&#39;, Consolas, &#39;Courier New&#39;, monospace;font-weight: normal;font-size: 13px;line-height: 18px;white-space: pre;&quot;&gt;&lt;div&gt;&lt;span style=&quot;color: #dcdcaa;&quot;&gt;+ requestMemory&lt;/span&gt;&lt;span style=&quot;color: #d4d4d4;&quot;&gt;()&lt;/span&gt;&lt;/div&gt;&lt;/div&gt;&lt;/div&gt;&lt;/div&gt;&lt;div&gt;&lt;br&gt;&lt;div style=&quot;color: #d4d4d4;background-color: #1e1e1e;font-family: &#39;Fira Code&#39;, Consolas, &#39;Courier New&#39;, monospace;font-weight: normal;font-size: 13px;line-height: 18px;white-space: pre;&quot;&gt;&lt;div&gt;&lt;span style=&quot;color: #dcdcaa;&quot;&gt;+ storeStatic&lt;/span&gt;&lt;span style=&quot;color: #d4d4d4;&quot;&gt;(&lt;/span&gt;&lt;span style=&quot;color: #d4d4d4;&quot;&gt;)&lt;/span&gt;&lt;/div&gt;&lt;/div&gt;&lt;div&gt;&lt;br&gt;&lt;/div&gt;&lt;div&gt;&lt;div&gt;&lt;div&gt;&lt;br&gt;&lt;/div&gt;&lt;div&gt;&lt;br&gt;&lt;/div&gt;&lt;/div&gt;&lt;br&gt;&lt;br&gt;&lt;/div&gt;&lt;/div&gt;&lt;/div&gt;&lt;/div&gt;" style="text;strokeColor=none;fillColor=none;align=left;verticalAlign=top;spacingLeft=4;spacingRight=4;overflow=hidden;rotatable=0;points=[[0,0.5],[1,0.5]];portConstraint=eastwest;whiteSpace=wrap;html=1;" vertex="1" parent="_7KpmntLeHWkFB2YpqdL-164">
          <mxGeometry y="148" width="240" height="232" as="geometry" />
        </mxCell>
        <mxCell id="_7KpmntLeHWkFB2YpqdL-189" style="edgeStyle=orthogonalEdgeStyle;rounded=0;orthogonalLoop=1;jettySize=auto;html=1;entryX=1.008;entryY=0.791;entryDx=0;entryDy=0;entryPerimeter=0;" edge="1" parent="WIyWlLk6GJQsqaUBKTNV-1" source="_7KpmntLeHWkFB2YpqdL-167" target="_7KpmntLeHWkFB2YpqdL-51">
          <mxGeometry relative="1" as="geometry">
            <Array as="points">
              <mxPoint x="1300" y="120" />
              <mxPoint x="1300" y="509" />
            </Array>
          </mxGeometry>
        </mxCell>
        <mxCell id="_7KpmntLeHWkFB2YpqdL-190" style="edgeStyle=orthogonalEdgeStyle;rounded=0;orthogonalLoop=1;jettySize=auto;html=1;entryX=1.008;entryY=0.939;entryDx=0;entryDy=0;entryPerimeter=0;" edge="1" parent="WIyWlLk6GJQsqaUBKTNV-1" source="_7KpmntLeHWkFB2YpqdL-167" target="_7KpmntLeHWkFB2YpqdL-51">
          <mxGeometry relative="1" as="geometry">
            <Array as="points">
              <mxPoint x="1300" y="120" />
              <mxPoint x="1300" y="545" />
            </Array>
          </mxGeometry>
        </mxCell>
        <mxCell id="_7KpmntLeHWkFB2YpqdL-191" style="edgeStyle=orthogonalEdgeStyle;rounded=0;orthogonalLoop=1;jettySize=auto;html=1;" edge="1" parent="WIyWlLk6GJQsqaUBKTNV-1" source="_7KpmntLeHWkFB2YpqdL-51">
          <mxGeometry relative="1" as="geometry">
            <mxPoint x="1387" y="-197" as="targetPoint" />
            <Array as="points">
              <mxPoint x="1270" y="380" />
              <mxPoint x="1270" y="-197" />
            </Array>
          </mxGeometry>
        </mxCell>
        <mxCell id="_7KpmntLeHWkFB2YpqdL-192" value="&lt;div style=&quot;color: #d4d4d4;background-color: #1e1e1e;font-family: &#39;Fira Code&#39;, Consolas, &#39;Courier New&#39;, monospace;font-weight: normal;font-size: 13px;line-height: 18px;white-space: pre;&quot;&gt;&lt;div&gt;&lt;span style=&quot;color: #569cd6;&quot;&gt;class&lt;/span&gt;&lt;span style=&quot;color: #d4d4d4;&quot;&gt; &lt;/span&gt;&lt;span style=&quot;color: #4ec9b0;&quot;&gt;Referrer&lt;/span&gt;&lt;/div&gt;&lt;/div&gt;" style="swimlane;fontStyle=1;align=center;verticalAlign=top;childLayout=stackLayout;horizontal=1;startSize=26;horizontalStack=0;resizeParent=1;resizeParentMax=0;resizeLast=0;collapsible=1;marginBottom=0;whiteSpace=wrap;html=1;" vertex="1" parent="WIyWlLk6GJQsqaUBKTNV-1">
          <mxGeometry x="1390" y="180" width="240" height="500" as="geometry" />
        </mxCell>
        <mxCell id="_7KpmntLeHWkFB2YpqdL-193" value="&lt;div&gt;&lt;div&gt;&lt;br&gt;&lt;/div&gt;&lt;div&gt;&lt;div&gt;&lt;div style=&quot;color: #d4d4d4;background-color: #1e1e1e;font-family: &#39;Fira Code&#39;, Consolas, &#39;Courier New&#39;, monospace;font-weight: normal;font-size: 13px;line-height: 18px;white-space: pre;&quot;&gt;&lt;div&gt;&lt;span style=&quot;color: #dcdcaa;&quot;&gt;+ &lt;/span&gt;&lt;span style=&quot;color: #9cdcfe;&quot;&gt;parent:Memory&lt;/span&gt;&lt;/div&gt;&lt;/div&gt;&lt;/div&gt;&lt;/div&gt;&lt;br&gt;&lt;/div&gt;&lt;div style=&quot;color: #d4d4d4;background-color: #1e1e1e;font-family: &#39;Fira Code&#39;, Consolas, &#39;Courier New&#39;, monospace;font-weight: normal;font-size: 13px;line-height: 18px;white-space: pre;&quot;&gt;&lt;div&gt;&lt;span style=&quot;color: #dcdcaa;&quot;&gt;+ &lt;/span&gt;&lt;span style=&quot;color: #9cdcfe;&quot;&gt;bytes:ByteArray&lt;/span&gt;&lt;/div&gt;&lt;/div&gt;&lt;div&gt;&lt;br&gt;&lt;/div&gt;&lt;div&gt;&lt;div&gt;&lt;div style=&quot;color: #d4d4d4;background-color: #1e1e1e;font-family: &#39;Fira Code&#39;, Consolas, &#39;Courier New&#39;, monospace;font-weight: normal;font-size: 13px;line-height: 18px;white-space: pre;&quot;&gt;&lt;div&gt;&lt;span style=&quot;color: #dcdcaa;&quot;&gt;+ &lt;/span&gt;&lt;span style=&quot;color: #9cdcfe;&quot;&gt;currentScopeStart&lt;/span&gt;&lt;span style=&quot;color: #9cdcfe;&quot;&gt;:Int&lt;/span&gt;&lt;/div&gt;&lt;/div&gt;&lt;/div&gt;&lt;/div&gt;&lt;div&gt;&lt;div&gt;&lt;br&gt;&lt;/div&gt;&lt;div&gt;&lt;div&gt;&lt;div style=&quot;color: #d4d4d4;background-color: #1e1e1e;font-family: &#39;Fira Code&#39;, Consolas, &#39;Courier New&#39;, monospace;font-weight: normal;font-size: 13px;line-height: 18px;white-space: pre;&quot;&gt;&lt;div&gt;&lt;span style=&quot;color: #dcdcaa;&quot;&gt;+ &lt;/span&gt;&lt;span style=&quot;color: #9cdcfe;&quot;&gt;currentScopeLength&lt;/span&gt;&lt;span style=&quot;color: #9cdcfe;&quot;&gt;:Int&lt;/span&gt;&lt;/div&gt;&lt;/div&gt;&lt;/div&gt;&lt;/div&gt;&lt;br&gt;&lt;/div&gt;&lt;div style=&quot;color: #d4d4d4;background-color: #1e1e1e;font-family: &#39;Fira Code&#39;, Consolas, &#39;Courier New&#39;, monospace;font-weight: normal;font-size: 13px;line-height: 18px;white-space: pre;&quot;&gt;&lt;div&gt;&lt;span style=&quot;color: #dcdcaa;&quot;&gt;+ &lt;/span&gt;&lt;span style=&quot;color: #569cd6;&quot;&gt;static&lt;/span&gt;&lt;span style=&quot;color: #9cdcfe;&quot;&gt; KEY_SIZE:Int&lt;/span&gt;&lt;/div&gt;&lt;/div&gt;&lt;div&gt;&lt;br&gt;&lt;/div&gt;&lt;span style=&quot;color: #dcdcaa;&quot;&gt;&lt;br&gt;&lt;/span&gt;&lt;span style=&quot;color: #dcdcaa;&quot;&gt;&lt;/span&gt;&lt;span style=&quot;color: #dcdcaa;&quot;&gt;&lt;/span&gt;" style="text;strokeColor=none;fillColor=none;align=left;verticalAlign=top;spacingLeft=4;spacingRight=4;overflow=hidden;rotatable=0;points=[[0,0.5],[1,0.5]];portConstraint=eastwest;whiteSpace=wrap;html=1;" vertex="1" parent="_7KpmntLeHWkFB2YpqdL-192">
          <mxGeometry y="26" width="240" height="174" as="geometry" />
        </mxCell>
        <mxCell id="_7KpmntLeHWkFB2YpqdL-194" value="" style="line;strokeWidth=1;fillColor=none;align=left;verticalAlign=middle;spacingTop=-1;spacingLeft=3;spacingRight=3;rotatable=0;labelPosition=right;points=[];portConstraint=eastwest;strokeColor=inherit;" vertex="1" parent="_7KpmntLeHWkFB2YpqdL-192">
          <mxGeometry y="200" width="240" height="8" as="geometry" />
        </mxCell>
        <mxCell id="_7KpmntLeHWkFB2YpqdL-195" value="&lt;div&gt;&lt;div style=&quot;color: #d4d4d4;background-color: #1e1e1e;font-family: &#39;Fira Code&#39;, Consolas, &#39;Courier New&#39;, monospace;font-weight: normal;font-size: 13px;line-height: 18px;white-space: pre;&quot;&gt;&lt;div&gt;&lt;span style=&quot;color: #dcdcaa;&quot;&gt;+ requestMemory&lt;/span&gt;&lt;span style=&quot;color: #d4d4d4;&quot;&gt;()&lt;/span&gt;&lt;/div&gt;&lt;/div&gt;&lt;/div&gt;&lt;br&gt;&lt;div style=&quot;color: #d4d4d4;background-color: #1e1e1e;font-family: &#39;Fira Code&#39;, Consolas, &#39;Courier New&#39;, monospace;font-weight: normal;font-size: 13px;line-height: 18px;white-space: pre;&quot;&gt;&lt;div&gt;&lt;span style=&quot;color: #dcdcaa;&quot;&gt;+ pushScope&lt;/span&gt;&lt;span style=&quot;color: #d4d4d4;&quot;&gt;(&lt;/span&gt;&lt;span style=&quot;color: #d4d4d4;&quot;&gt;)&lt;/span&gt;&lt;/div&gt;&lt;/div&gt;&lt;div&gt;&lt;br&gt;&lt;div&gt;&lt;div&gt;&lt;div style=&quot;color: #d4d4d4;background-color: #1e1e1e;font-family: &#39;Fira Code&#39;, Consolas, &#39;Courier New&#39;, monospace;font-weight: normal;font-size: 13px;line-height: 18px;white-space: pre;&quot;&gt;&lt;div&gt;&lt;span style=&quot;color: #dcdcaa;&quot;&gt;+ popScope&lt;/span&gt;&lt;span style=&quot;color: #d4d4d4;&quot;&gt;()&lt;/span&gt;&lt;/div&gt;&lt;/div&gt;&lt;/div&gt;&lt;/div&gt;&lt;br&gt;&lt;div style=&quot;color: #d4d4d4;background-color: #1e1e1e;font-family: &#39;Fira Code&#39;, Consolas, &#39;Courier New&#39;, monospace;font-weight: normal;font-size: 13px;line-height: 18px;white-space: pre;&quot;&gt;&lt;div&gt;&lt;span style=&quot;color: #dcdcaa;&quot;&gt;+ reference&lt;/span&gt;&lt;span style=&quot;color: #d4d4d4;&quot;&gt;(&lt;/span&gt;&lt;span style=&quot;color: #d4d4d4;&quot;&gt;)&lt;/span&gt;&lt;/div&gt;&lt;/div&gt;&lt;div&gt;&lt;br&gt;&lt;div&gt;&lt;div&gt;&lt;div style=&quot;color: #d4d4d4;background-color: #1e1e1e;font-family: &#39;Fira Code&#39;, Consolas, &#39;Courier New&#39;, monospace;font-weight: normal;font-size: 13px;line-height: 18px;white-space: pre;&quot;&gt;&lt;div&gt;&lt;span style=&quot;color: #dcdcaa;&quot;&gt;+ dereference&lt;/span&gt;&lt;span style=&quot;color: #d4d4d4;&quot;&gt;()&lt;/span&gt;&lt;/div&gt;&lt;/div&gt;&lt;/div&gt;&lt;/div&gt;&lt;br&gt;&lt;div style=&quot;color: #d4d4d4;background-color: #1e1e1e;font-family: &#39;Fira Code&#39;, Consolas, &#39;Courier New&#39;, monospace;font-weight: normal;font-size: 13px;line-height: 18px;white-space: pre;&quot;&gt;&lt;div&gt;&lt;span style=&quot;color: #dcdcaa;&quot;&gt;+ get&lt;/span&gt;&lt;span style=&quot;color: #d4d4d4;&quot;&gt;(&lt;/span&gt;&lt;span style=&quot;color: #d4d4d4;&quot;&gt;)&lt;/span&gt;&lt;/div&gt;&lt;/div&gt;&lt;/div&gt;&lt;/div&gt;&lt;div&gt;&lt;div&gt;&lt;div&gt;&lt;div&gt;&lt;br&gt;&lt;div&gt;&lt;div&gt;&lt;div style=&quot;color: #d4d4d4;background-color: #1e1e1e;font-family: &#39;Fira Code&#39;, Consolas, &#39;Courier New&#39;, monospace;font-weight: normal;font-size: 13px;line-height: 18px;white-space: pre;&quot;&gt;&lt;div&gt;&lt;span style=&quot;color: #dcdcaa;&quot;&gt;+ set&lt;/span&gt;&lt;span style=&quot;color: #d4d4d4;&quot;&gt;()&lt;/span&gt;&lt;/div&gt;&lt;/div&gt;&lt;/div&gt;&lt;/div&gt;&lt;br&gt;&lt;div style=&quot;color: #d4d4d4;background-color: #1e1e1e;font-family: &#39;Fira Code&#39;, Consolas, &#39;Courier New&#39;, monospace;font-weight: normal;font-size: 13px;line-height: 18px;white-space: pre;&quot;&gt;&lt;div&gt;&lt;span style=&quot;color: #dcdcaa;&quot;&gt;+ exists&lt;/span&gt;&lt;span style=&quot;color: #d4d4d4;&quot;&gt;(&lt;/span&gt;&lt;span style=&quot;color: #d4d4d4;&quot;&gt;)&lt;/span&gt;&lt;/div&gt;&lt;/div&gt;&lt;div&gt;&lt;br&gt;&lt;div&gt;&lt;div&gt;&lt;div style=&quot;color: #d4d4d4;background-color: #1e1e1e;font-family: &#39;Fira Code&#39;, Consolas, &#39;Courier New&#39;, monospace;font-weight: normal;font-size: 13px;line-height: 18px;white-space: pre;&quot;&gt;&lt;div&gt;&lt;span style=&quot;color: #dcdcaa;&quot;&gt;+ keyValueIterator&lt;/span&gt;&lt;span style=&quot;color: #d4d4d4;&quot;&gt;()&lt;/span&gt;&lt;/div&gt;&lt;/div&gt;&lt;/div&gt;&lt;/div&gt;&lt;br&gt;&lt;div&gt;&lt;div&gt;&lt;br&gt;&lt;/div&gt;&lt;/div&gt;&lt;/div&gt;&lt;div&gt;&lt;div&gt;&lt;div&gt;&lt;div&gt;&lt;div&gt;&lt;div&gt;&lt;br&gt;&lt;/div&gt;&lt;/div&gt;&lt;br&gt;&lt;br&gt;&lt;br&gt;&lt;/div&gt;&lt;/div&gt;&lt;/div&gt;&lt;/div&gt;&lt;/div&gt;&lt;/div&gt;&lt;/div&gt;&lt;/div&gt;" style="text;strokeColor=none;fillColor=none;align=left;verticalAlign=top;spacingLeft=4;spacingRight=4;overflow=hidden;rotatable=0;points=[[0,0.5],[1,0.5]];portConstraint=eastwest;whiteSpace=wrap;html=1;" vertex="1" parent="_7KpmntLeHWkFB2YpqdL-192">
          <mxGeometry y="208" width="240" height="292" as="geometry" />
        </mxCell>
        <mxCell id="_7KpmntLeHWkFB2YpqdL-196" style="edgeStyle=orthogonalEdgeStyle;rounded=0;orthogonalLoop=1;jettySize=auto;html=1;entryX=0.004;entryY=0.034;entryDx=0;entryDy=0;entryPerimeter=0;exitX=1;exitY=0.389;exitDx=0;exitDy=0;exitPerimeter=0;" edge="1" parent="WIyWlLk6GJQsqaUBKTNV-1" source="_7KpmntLeHWkFB2YpqdL-51" target="_7KpmntLeHWkFB2YpqdL-192">
          <mxGeometry relative="1" as="geometry" />
        </mxCell>
        <mxCell id="_7KpmntLeHWkFB2YpqdL-197" value="&lt;div style=&quot;color: #d4d4d4;background-color: #1e1e1e;font-family: &#39;Fira Code&#39;, Consolas, &#39;Courier New&#39;, monospace;font-weight: normal;font-size: 13px;line-height: 18px;white-space: pre;&quot;&gt;&lt;div&gt;&lt;span style=&quot;color: #569cd6;&quot;&gt;class&lt;/span&gt;&lt;span style=&quot;color: #d4d4d4;&quot;&gt; &lt;/span&gt;&lt;span style=&quot;color: #4ec9b0;&quot;&gt;ConstantPool&lt;/span&gt;&lt;/div&gt;&lt;/div&gt;" style="swimlane;fontStyle=1;align=center;verticalAlign=top;childLayout=stackLayout;horizontal=1;startSize=26;horizontalStack=0;resizeParent=1;resizeParentMax=0;resizeLast=0;collapsible=1;marginBottom=0;whiteSpace=wrap;html=1;" vertex="1" parent="WIyWlLk6GJQsqaUBKTNV-1">
          <mxGeometry x="1390" y="690" width="240" height="660" as="geometry" />
        </mxCell>
        <mxCell id="_7KpmntLeHWkFB2YpqdL-198" value="&lt;div&gt;&lt;div&gt;&lt;br&gt;&lt;/div&gt;&lt;div&gt;&lt;div&gt;&lt;div style=&quot;color: #d4d4d4;background-color: #1e1e1e;font-family: &#39;Fira Code&#39;, Consolas, &#39;Courier New&#39;, monospace;font-weight: normal;font-size: 13px;line-height: 18px;white-space: pre;&quot;&gt;&lt;div&gt;&lt;span style=&quot;color: #dcdcaa;&quot;&gt;+ &lt;/span&gt;&lt;span style=&quot;color: #9cdcfe;&quot;&gt;capacity&lt;/span&gt;&lt;span style=&quot;color: #9cdcfe;&quot;&gt;:Int&lt;/span&gt;&lt;/div&gt;&lt;/div&gt;&lt;/div&gt;&lt;/div&gt;&lt;br&gt;&lt;div style=&quot;color: #d4d4d4;background-color: #1e1e1e;font-family: &#39;Fira Code&#39;, Consolas, &#39;Courier New&#39;, monospace;font-weight: normal;font-size: 13px;line-height: 18px;white-space: pre;&quot;&gt;&lt;div&gt;&lt;span style=&quot;color: #dcdcaa;&quot;&gt;+ &lt;/span&gt;&lt;span style=&quot;color: #9cdcfe;&quot;&gt;NULL:MemoryPointer&lt;/span&gt;&lt;/div&gt;&lt;/div&gt;&lt;span style=&quot;color: #dcdcaa;&quot;&gt;&lt;/span&gt;&lt;br&gt;&lt;div style=&quot;color: #d4d4d4;background-color: #1e1e1e;font-family: &#39;Fira Code&#39;, Consolas, &#39;Courier New&#39;, monospace;font-weight: normal;font-size: 13px;line-height: 18px;white-space: pre;&quot;&gt;&lt;div&gt;&lt;span style=&quot;color: #dcdcaa;&quot;&gt;+ &lt;/span&gt;&lt;span style=&quot;color: #9cdcfe;&quot;&gt;FALSE:MemoryPointer&lt;/span&gt;&lt;/div&gt;&lt;/div&gt;&lt;br&gt;&lt;div style=&quot;color: #d4d4d4;background-color: #1e1e1e;font-family: &#39;Fira Code&#39;, Consolas, &#39;Courier New&#39;, monospace;font-weight: normal;font-size: 13px;line-height: 18px;white-space: pre;&quot;&gt;&lt;div&gt;&lt;span style=&quot;color: #dcdcaa;&quot;&gt;+ &lt;/span&gt;&lt;span style=&quot;color: #9cdcfe;&quot;&gt;TRUE:MemoryPointer&lt;/span&gt;&lt;/div&gt;&lt;/div&gt;&lt;span style=&quot;color: #dcdcaa;&quot;&gt;&lt;/span&gt;&lt;br&gt;&lt;div style=&quot;color: #d4d4d4;background-color: #1e1e1e;font-family: &#39;Fira Code&#39;, Consolas, &#39;Courier New&#39;, monospace;font-weight: normal;font-size: 13px;line-height: 18px;white-space: pre;&quot;&gt;&lt;div&gt;&lt;span style=&quot;color: #dcdcaa;&quot;&gt;+ &lt;/span&gt;&lt;span style=&quot;color: #9cdcfe;&quot;&gt;ZERO:MemoryPointer&lt;/span&gt;&lt;/div&gt;&lt;/div&gt;&lt;span style=&quot;color: #dcdcaa;&quot;&gt;&lt;/span&gt;&lt;br&gt;&lt;div style=&quot;color: #d4d4d4;background-color: #1e1e1e;font-family: &#39;Fira Code&#39;, Consolas, &#39;Courier New&#39;, monospace;font-weight: normal;font-size: 13px;line-height: 18px;white-space: pre;&quot;&gt;&lt;div&gt;&lt;span style=&quot;color: #dcdcaa;&quot;&gt;+ &lt;/span&gt;&lt;span style=&quot;color: #9cdcfe;&quot;&gt;INT:MemoryPointer&lt;/span&gt;&lt;/div&gt;&lt;/div&gt;&lt;span style=&quot;color: #dcdcaa;&quot;&gt;&lt;/span&gt;&lt;br&gt;&lt;div style=&quot;color: #d4d4d4;background-color: #1e1e1e;font-family: &#39;Fira Code&#39;, Consolas, &#39;Courier New&#39;, monospace;font-weight: normal;font-size: 13px;line-height: 18px;white-space: pre;&quot;&gt;&lt;div&gt;&lt;span style=&quot;color: #dcdcaa;&quot;&gt;+ &lt;/span&gt;&lt;span style=&quot;color: #9cdcfe;&quot;&gt;FLOAT:MemoryPointer&lt;/span&gt;&lt;/div&gt;&lt;/div&gt;&lt;br&gt;&lt;div style=&quot;color: #d4d4d4;background-color: #1e1e1e;font-family: &#39;Fira Code&#39;, Consolas, &#39;Courier New&#39;, monospace;font-weight: normal;font-size: 13px;line-height: 18px;white-space: pre;&quot;&gt;&lt;div&gt;&lt;span style=&quot;color: #dcdcaa;&quot;&gt;+ &lt;/span&gt;&lt;span style=&quot;color: #9cdcfe;&quot;&gt;BOOL:MemoryPointer&lt;/span&gt;&lt;/div&gt;&lt;/div&gt;&lt;span style=&quot;color: #dcdcaa;&quot;&gt;&lt;/span&gt;&lt;br&gt;&lt;div style=&quot;color: #d4d4d4;background-color: #1e1e1e;font-family: &#39;Fira Code&#39;, Consolas, &#39;Courier New&#39;, monospace;font-weight: normal;font-size: 13px;line-height: 18px;white-space: pre;&quot;&gt;&lt;div&gt;&lt;span style=&quot;color: #dcdcaa;&quot;&gt;+ &lt;/span&gt;&lt;span style=&quot;color: #9cdcfe;&quot;&gt;DYNAMIC:MemoryPointer&lt;/span&gt;&lt;/div&gt;&lt;/div&gt;&lt;span style=&quot;color: #dcdcaa;&quot;&gt;&lt;/span&gt;&lt;br&gt;&lt;div style=&quot;color: #d4d4d4;background-color: #1e1e1e;font-family: &#39;Fira Code&#39;, Consolas, &#39;Courier New&#39;, monospace;font-weight: normal;font-size: 13px;line-height: 18px;white-space: pre;&quot;&gt;&lt;div&gt;&lt;span style=&quot;color: #dcdcaa;&quot;&gt;+ &lt;/span&gt;&lt;span style=&quot;color: #9cdcfe;&quot;&gt;TYPE:MemoryPointer&lt;/span&gt;&lt;/div&gt;&lt;/div&gt;&lt;span style=&quot;color: #dcdcaa;&quot;&gt;&lt;/span&gt;&lt;br&gt;&lt;div style=&quot;color: #d4d4d4;background-color: #1e1e1e;font-family: &#39;Fira Code&#39;, Consolas, &#39;Courier New&#39;, monospace;font-weight: normal;font-size: 13px;line-height: 18px;white-space: pre;&quot;&gt;&lt;div&gt;&lt;span style=&quot;color: #dcdcaa;&quot;&gt;+ &lt;/span&gt;&lt;span style=&quot;color: #9cdcfe;&quot;&gt;UNKNOWN:MemoryPointer&lt;/span&gt;&lt;/div&gt;&lt;/div&gt;&lt;br&gt;&lt;div style=&quot;color: #d4d4d4;background-color: #1e1e1e;font-family: &#39;Fira Code&#39;, Consolas, &#39;Courier New&#39;, monospace;font-weight: normal;font-size: 13px;line-height: 18px;white-space: pre;&quot;&gt;&lt;div&gt;&lt;span style=&quot;color: #dcdcaa;&quot;&gt;+ &lt;/span&gt;&lt;span style=&quot;color: #9cdcfe;&quot;&gt;ERROR:MemoryPointer&lt;/span&gt;&lt;/div&gt;&lt;/div&gt;&lt;span style=&quot;color: #dcdcaa;&quot;&gt;&lt;/span&gt;&lt;br&gt;&lt;div style=&quot;color: #d4d4d4;background-color: #1e1e1e;font-family: &#39;Fira Code&#39;, Consolas, &#39;Courier New&#39;, monospace;font-weight: normal;font-size: 13px;line-height: 18px;white-space: pre;&quot;&gt;&lt;div&gt;&lt;span style=&quot;color: #dcdcaa;&quot;&gt;+ &lt;/span&gt;&lt;span style=&quot;color: #9cdcfe;&quot;&gt;EXTERN:MemoryPointer&lt;/span&gt;&lt;/div&gt;&lt;/div&gt;&lt;div&gt;&lt;br&gt;&lt;/div&gt;&lt;div style=&quot;color: #d4d4d4;background-color: #1e1e1e;font-family: &#39;Fira Code&#39;, Consolas, &#39;Courier New&#39;, monospace;font-weight: normal;font-size: 13px;line-height: 18px;white-space: pre;&quot;&gt;&lt;div&gt;&lt;span style=&quot;color: #dcdcaa;&quot;&gt;+ &lt;/span&gt;&lt;span style=&quot;color: #9cdcfe;&quot;&gt;EMPTY_STRING:MemoryPointer&lt;/span&gt;&lt;/div&gt;&lt;/div&gt;&lt;div&gt;&lt;br&gt;&lt;/div&gt;&lt;span style=&quot;color: #dcdcaa;&quot;&gt;&lt;br&gt;&lt;/span&gt;&lt;span style=&quot;color: #dcdcaa;&quot;&gt;&lt;br&gt;&lt;/span&gt;&lt;span style=&quot;color: #dcdcaa;&quot;&gt;&lt;br&gt;&lt;br&gt;&lt;/span&gt;&lt;span style=&quot;color: #dcdcaa;&quot;&gt;&lt;/span&gt;&lt;/div&gt;" style="text;strokeColor=none;fillColor=none;align=left;verticalAlign=top;spacingLeft=4;spacingRight=4;overflow=hidden;rotatable=0;points=[[0,0.5],[1,0.5]];portConstraint=eastwest;whiteSpace=wrap;html=1;" vertex="1" parent="_7KpmntLeHWkFB2YpqdL-197">
          <mxGeometry y="26" width="240" height="464" as="geometry" />
        </mxCell>
        <mxCell id="_7KpmntLeHWkFB2YpqdL-199" value="" style="line;strokeWidth=1;fillColor=none;align=left;verticalAlign=middle;spacingTop=-1;spacingLeft=3;spacingRight=3;rotatable=0;labelPosition=right;points=[];portConstraint=eastwest;strokeColor=inherit;" vertex="1" parent="_7KpmntLeHWkFB2YpqdL-197">
          <mxGeometry y="490" width="240" height="8" as="geometry" />
        </mxCell>
        <mxCell id="_7KpmntLeHWkFB2YpqdL-200" value="&lt;div&gt;&lt;div style=&quot;color: #d4d4d4;background-color: #1e1e1e;font-family: &#39;Fira Code&#39;, Consolas, &#39;Courier New&#39;, monospace;font-weight: normal;font-size: 13px;line-height: 18px;white-space: pre;&quot;&gt;&lt;div&gt;&lt;span style=&quot;color: #dcdcaa;&quot;&gt;+ getFromPointer&lt;/span&gt;&lt;span style=&quot;color: #d4d4d4;&quot;&gt;()&lt;/span&gt;&lt;/div&gt;&lt;/div&gt;&lt;/div&gt;&lt;br&gt;&lt;div style=&quot;color: #d4d4d4;background-color: #1e1e1e;font-family: &#39;Fira Code&#39;, Consolas, &#39;Courier New&#39;, monospace;font-weight: normal;font-size: 13px;line-height: 18px;white-space: pre;&quot;&gt;&lt;div&gt;&lt;span style=&quot;color: #dcdcaa;&quot;&gt;+ hasPointer&lt;/span&gt;&lt;span style=&quot;color: #d4d4d4;&quot;&gt;(&lt;/span&gt;&lt;span style=&quot;color: #d4d4d4;&quot;&gt;)&lt;/span&gt;&lt;/div&gt;&lt;/div&gt;&lt;div&gt;&lt;br&gt;&lt;div&gt;&lt;div&gt;&lt;div style=&quot;color: #d4d4d4;background-color: #1e1e1e;font-family: &#39;Fira Code&#39;, Consolas, &#39;Courier New&#39;, monospace;font-weight: normal;font-size: 13px;line-height: 18px;white-space: pre;&quot;&gt;&lt;div&gt;&lt;span style=&quot;color: #dcdcaa;&quot;&gt;+ hasType&lt;/span&gt;&lt;span style=&quot;color: #d4d4d4;&quot;&gt;()&lt;/span&gt;&lt;/div&gt;&lt;/div&gt;&lt;/div&gt;&lt;/div&gt;&lt;br&gt;&lt;div style=&quot;color: #d4d4d4;background-color: #1e1e1e;font-family: &#39;Fira Code&#39;, Consolas, &#39;Courier New&#39;, monospace;font-weight: normal;font-size: 13px;line-height: 18px;white-space: pre;&quot;&gt;&lt;div&gt;&lt;span style=&quot;color: #dcdcaa;&quot;&gt;+ getType&lt;/span&gt;&lt;span style=&quot;color: #d4d4d4;&quot;&gt;(&lt;/span&gt;&lt;span style=&quot;color: #d4d4d4;&quot;&gt;)&lt;/span&gt;&lt;/div&gt;&lt;/div&gt;&lt;div&gt;&lt;br&gt;&lt;div style=&quot;color: #d4d4d4;background-color: #1e1e1e;font-family: &#39;Fira Code&#39;, Consolas, &#39;Courier New&#39;, monospace;font-weight: normal;font-size: 13px;line-height: 18px;white-space: pre;&quot;&gt;&lt;div&gt;&lt;span style=&quot;color: #dcdcaa;&quot;&gt;+ get&lt;/span&gt;&lt;span style=&quot;color: #d4d4d4;&quot;&gt;(&lt;/span&gt;&lt;span style=&quot;color: #d4d4d4;&quot;&gt;)&lt;/span&gt;&lt;/div&gt;&lt;/div&gt;&lt;/div&gt;&lt;/div&gt;&lt;div&gt;&lt;div&gt;&lt;div&gt;&lt;div&gt;&lt;br&gt;&lt;div&gt;&lt;div&gt;&lt;div&gt;&lt;div&gt;&lt;br&gt;&lt;br&gt;&lt;/div&gt;&lt;/div&gt;&lt;/div&gt;&lt;/div&gt;&lt;/div&gt;&lt;/div&gt;&lt;/div&gt;&lt;/div&gt;" style="text;strokeColor=none;fillColor=none;align=left;verticalAlign=top;spacingLeft=4;spacingRight=4;overflow=hidden;rotatable=0;points=[[0,0.5],[1,0.5]];portConstraint=eastwest;whiteSpace=wrap;html=1;" vertex="1" parent="_7KpmntLeHWkFB2YpqdL-197">
          <mxGeometry y="498" width="240" height="162" as="geometry" />
        </mxCell>
        <mxCell id="_7KpmntLeHWkFB2YpqdL-202" style="edgeStyle=orthogonalEdgeStyle;rounded=0;orthogonalLoop=1;jettySize=auto;html=1;entryX=-0.004;entryY=0.02;entryDx=0;entryDy=0;entryPerimeter=0;" edge="1" parent="WIyWlLk6GJQsqaUBKTNV-1" source="_7KpmntLeHWkFB2YpqdL-51" target="_7KpmntLeHWkFB2YpqdL-197">
          <mxGeometry relative="1" as="geometry">
            <Array as="points">
              <mxPoint x="1280" y="350" />
              <mxPoint x="1280" y="1073" />
            </Array>
          </mxGeometry>
        </mxCell>
        <mxCell id="_7KpmntLeHWkFB2YpqdL-203" value="&lt;div style=&quot;color: #d4d4d4;background-color: #1e1e1e;font-family: &#39;Fira Code&#39;, Consolas, &#39;Courier New&#39;, monospace;font-weight: normal;font-size: 13px;line-height: 18px;white-space: pre;&quot;&gt;&lt;div&gt;&lt;span style=&quot;color: #569cd6;&quot;&gt;class&lt;/span&gt;&lt;span style=&quot;color: #d4d4d4;&quot;&gt; &lt;/span&gt;&lt;span style=&quot;color: #4ec9b0;&quot;&gt;Operators&lt;/span&gt;&lt;/div&gt;&lt;/div&gt;" style="swimlane;fontStyle=1;align=center;verticalAlign=top;childLayout=stackLayout;horizontal=1;startSize=26;horizontalStack=0;resizeParent=1;resizeParentMax=0;resizeLast=0;collapsible=1;marginBottom=0;whiteSpace=wrap;html=1;" vertex="1" parent="WIyWlLk6GJQsqaUBKTNV-1">
          <mxGeometry x="1390" y="-570" width="240" height="340" as="geometry" />
        </mxCell>
        <mxCell id="_7KpmntLeHWkFB2YpqdL-204" value="&lt;div&gt;&lt;div&gt;&lt;br&gt;&lt;/div&gt;&lt;div&gt;&lt;div&gt;&lt;div style=&quot;color: #d4d4d4;background-color: #1e1e1e;font-family: &#39;Fira Code&#39;, Consolas, &#39;Courier New&#39;, monospace;font-weight: normal;font-size: 13px;line-height: 18px;white-space: pre;&quot;&gt;&lt;div&gt;&lt;span style=&quot;color: #dcdcaa;&quot;&gt;+ &lt;/span&gt;&lt;span style=&quot;color: #9cdcfe;&quot;&gt;priority:Map&lt;/span&gt;&lt;/div&gt;&lt;/div&gt;&lt;/div&gt;&lt;/div&gt;&lt;br&gt;&lt;/div&gt;&lt;div style=&quot;color: #d4d4d4;background-color: #1e1e1e;font-family: &#39;Fira Code&#39;, Consolas, &#39;Courier New&#39;, monospace;font-weight: normal;font-size: 13px;line-height: 18px;white-space: pre;&quot;&gt;&lt;div&gt;&lt;span style=&quot;color: #dcdcaa;&quot;&gt;+ &lt;/span&gt;&lt;span style=&quot;color: #9cdcfe;&quot;&gt;standard:&lt;/span&gt;&lt;span style=&quot;color: #9cdcfe;&quot;&gt;Map&lt;/span&gt;&lt;/div&gt;&lt;/div&gt;&lt;div&gt;&lt;br&gt;&lt;/div&gt;&lt;div&gt;&lt;div&gt;&lt;div style=&quot;color: #d4d4d4;background-color: #1e1e1e;font-family: &#39;Fira Code&#39;, Consolas, &#39;Courier New&#39;, monospace;font-weight: normal;font-size: 13px;line-height: 18px;white-space: pre;&quot;&gt;&lt;div&gt;&lt;span style=&quot;color: #dcdcaa;&quot;&gt;+ &lt;/span&gt;&lt;span style=&quot;color: #9cdcfe;&quot;&gt;lhsOnly:&lt;/span&gt;&lt;span style=&quot;color: #9cdcfe;&quot;&gt;Map&lt;/span&gt;&lt;/div&gt;&lt;/div&gt;&lt;/div&gt;&lt;/div&gt;&lt;div&gt;&lt;div&gt;&lt;br&gt;&lt;/div&gt;&lt;div&gt;&lt;div&gt;&lt;div style=&quot;color: #d4d4d4;background-color: #1e1e1e;font-family: &#39;Fira Code&#39;, Consolas, &#39;Courier New&#39;, monospace;font-weight: normal;font-size: 13px;line-height: 18px;white-space: pre;&quot;&gt;&lt;div&gt;&lt;span style=&quot;color: #dcdcaa;&quot;&gt;+ &lt;/span&gt;&lt;span style=&quot;color: #9cdcfe;&quot;&gt;rhsOnly&lt;/span&gt;&lt;span style=&quot;color: #9cdcfe;&quot;&gt;:&lt;/span&gt;&lt;span style=&quot;color: #9cdcfe;&quot;&gt;Map&lt;/span&gt;&lt;/div&gt;&lt;/div&gt;&lt;/div&gt;&lt;/div&gt;&lt;/div&gt;&lt;div&gt;&lt;br&gt;&lt;/div&gt;&lt;span style=&quot;color: #dcdcaa;&quot;&gt;&lt;br&gt;&lt;/span&gt;&lt;span style=&quot;color: #dcdcaa;&quot;&gt;&lt;/span&gt;&lt;span style=&quot;color: #dcdcaa;&quot;&gt;&lt;/span&gt;" style="text;strokeColor=none;fillColor=none;align=left;verticalAlign=top;spacingLeft=4;spacingRight=4;overflow=hidden;rotatable=0;points=[[0,0.5],[1,0.5]];portConstraint=eastwest;whiteSpace=wrap;html=1;" vertex="1" parent="_7KpmntLeHWkFB2YpqdL-203">
          <mxGeometry y="26" width="240" height="144" as="geometry" />
        </mxCell>
        <mxCell id="_7KpmntLeHWkFB2YpqdL-205" value="" style="line;strokeWidth=1;fillColor=none;align=left;verticalAlign=middle;spacingTop=-1;spacingLeft=3;spacingRight=3;rotatable=0;labelPosition=right;points=[];portConstraint=eastwest;strokeColor=inherit;" vertex="1" parent="_7KpmntLeHWkFB2YpqdL-203">
          <mxGeometry y="170" width="240" height="8" as="geometry" />
        </mxCell>
        <mxCell id="_7KpmntLeHWkFB2YpqdL-206" value="&lt;div&gt;&lt;div style=&quot;color: #d4d4d4;background-color: #1e1e1e;font-family: &#39;Fira Code&#39;, Consolas, &#39;Courier New&#39;, monospace;font-weight: normal;font-size: 13px;line-height: 18px;white-space: pre;&quot;&gt;&lt;div&gt;&lt;span style=&quot;color: #dcdcaa;&quot;&gt;+ setPriority&lt;/span&gt;&lt;span style=&quot;color: #d4d4d4;&quot;&gt;()&lt;/span&gt;&lt;/div&gt;&lt;/div&gt;&lt;/div&gt;&lt;br&gt;&lt;div style=&quot;color: #d4d4d4;background-color: #1e1e1e;font-family: &#39;Fira Code&#39;, Consolas, &#39;Courier New&#39;, monospace;font-weight: normal;font-size: 13px;line-height: 18px;white-space: pre;&quot;&gt;&lt;div&gt;&lt;span style=&quot;color: #dcdcaa;&quot;&gt;+ getPriority&lt;/span&gt;&lt;span style=&quot;color: #d4d4d4;&quot;&gt;(&lt;/span&gt;&lt;span style=&quot;color: #d4d4d4;&quot;&gt;)&lt;/span&gt;&lt;/div&gt;&lt;/div&gt;&lt;div&gt;&lt;br&gt;&lt;div&gt;&lt;div&gt;&lt;div style=&quot;color: #d4d4d4;background-color: #1e1e1e;font-family: &#39;Fira Code&#39;, Consolas, &#39;Courier New&#39;, monospace;font-weight: normal;font-size: 13px;line-height: 18px;white-space: pre;&quot;&gt;&lt;div&gt;&lt;span style=&quot;color: #dcdcaa;&quot;&gt;+ popScope&lt;/span&gt;&lt;span style=&quot;color: #d4d4d4;&quot;&gt;()&lt;/span&gt;&lt;/div&gt;&lt;/div&gt;&lt;/div&gt;&lt;/div&gt;&lt;br&gt;&lt;div style=&quot;color: #d4d4d4;background-color: #1e1e1e;font-family: &#39;Fira Code&#39;, Consolas, &#39;Courier New&#39;, monospace;font-weight: normal;font-size: 13px;line-height: 18px;white-space: pre;&quot;&gt;&lt;div&gt;&lt;span style=&quot;color: #dcdcaa;&quot;&gt;+ &lt;/span&gt;&lt;span style=&quot;color: #dcdcaa;&quot;&gt;iterateByPriority&lt;/span&gt;&lt;span style=&quot;color: #d4d4d4;&quot;&gt;(&lt;/span&gt;&lt;span style=&quot;color: #d4d4d4;&quot;&gt;)&lt;/span&gt;&lt;/div&gt;&lt;/div&gt;&lt;div&gt;&lt;br&gt;&lt;div&gt;&lt;div&gt;&lt;div style=&quot;color: #d4d4d4;background-color: #1e1e1e;font-family: &#39;Fira Code&#39;, Consolas, &#39;Courier New&#39;, monospace;font-weight: normal;font-size: 13px;line-height: 18px;white-space: pre;&quot;&gt;&lt;div&gt;&lt;span style=&quot;color: #dcdcaa;&quot;&gt;+ call&lt;/span&gt;&lt;span style=&quot;color: #d4d4d4;&quot;&gt;() (3 overloads)&lt;/span&gt;&lt;/div&gt;&lt;/div&gt;&lt;/div&gt;&lt;/div&gt;&lt;/div&gt;&lt;/div&gt;&lt;div&gt;&lt;div&gt;&lt;div&gt;&lt;div&gt;&lt;div&gt;&lt;div&gt;&lt;div&gt;&lt;div&gt;&lt;div&gt;&lt;div&gt;&lt;br&gt;&lt;/div&gt;&lt;/div&gt;&lt;br&gt;&lt;br&gt;&lt;br&gt;&lt;/div&gt;&lt;/div&gt;&lt;/div&gt;&lt;/div&gt;&lt;/div&gt;&lt;/div&gt;&lt;/div&gt;&lt;/div&gt;" style="text;strokeColor=none;fillColor=none;align=left;verticalAlign=top;spacingLeft=4;spacingRight=4;overflow=hidden;rotatable=0;points=[[0,0.5],[1,0.5]];portConstraint=eastwest;whiteSpace=wrap;html=1;" vertex="1" parent="_7KpmntLeHWkFB2YpqdL-203">
          <mxGeometry y="178" width="240" height="162" as="geometry" />
        </mxCell>
        <mxCell id="_7KpmntLeHWkFB2YpqdL-207" style="edgeStyle=orthogonalEdgeStyle;rounded=0;orthogonalLoop=1;jettySize=auto;html=1;entryX=-0.004;entryY=0.035;entryDx=0;entryDy=0;entryPerimeter=0;" edge="1" parent="WIyWlLk6GJQsqaUBKTNV-1" source="_7KpmntLeHWkFB2YpqdL-51" target="_7KpmntLeHWkFB2YpqdL-203">
          <mxGeometry relative="1" as="geometry">
            <Array as="points">
              <mxPoint x="1290" y="480" />
              <mxPoint x="1290" y="-558" />
            </Array>
          </mxGeometry>
        </mxCell>
        <mxCell id="_7KpmntLeHWkFB2YpqdL-208" value="&lt;div style=&quot;color: #d4d4d4;background-color: #1e1e1e;font-family: &#39;Fira Code&#39;, Consolas, &#39;Courier New&#39;, monospace;font-weight: normal;font-size: 13px;line-height: 18px;white-space: pre;&quot;&gt;&lt;div&gt;&lt;span style=&quot;color: #569cd6;&quot;&gt;class&lt;/span&gt;&lt;span style=&quot;color: #d4d4d4;&quot;&gt; &lt;/span&gt;&lt;span style=&quot;color: #4ec9b0;&quot;&gt;ExternalInterfacing&lt;/span&gt;&lt;/div&gt;&lt;/div&gt;" style="swimlane;fontStyle=1;align=center;verticalAlign=top;childLayout=stackLayout;horizontal=1;startSize=26;horizontalStack=0;resizeParent=1;resizeParentMax=0;resizeLast=0;collapsible=1;marginBottom=0;whiteSpace=wrap;html=1;" vertex="1" parent="WIyWlLk6GJQsqaUBKTNV-1">
          <mxGeometry x="1390" y="1370" width="240" height="370" as="geometry" />
        </mxCell>
        <mxCell id="_7KpmntLeHWkFB2YpqdL-209" value="&lt;div&gt;&lt;div&gt;&lt;br&gt;&lt;/div&gt;&lt;div&gt;&lt;div&gt;&lt;div style=&quot;color: #d4d4d4;background-color: #1e1e1e;font-family: &#39;Fira Code&#39;, Consolas, &#39;Courier New&#39;, monospace;font-weight: normal;font-size: 13px;line-height: 18px;white-space: pre;&quot;&gt;&lt;div&gt;&lt;span style=&quot;color: #dcdcaa;&quot;&gt;+ &lt;/span&gt;&lt;span style=&quot;color: #9cdcfe;&quot;&gt;parent:Memory&lt;/span&gt;&lt;/div&gt;&lt;/div&gt;&lt;/div&gt;&lt;/div&gt;&lt;br&gt;&lt;div style=&quot;color: #d4d4d4;background-color: #1e1e1e;font-family: &#39;Fira Code&#39;, Consolas, &#39;Courier New&#39;, monospace;font-weight: normal;font-size: 13px;line-height: 18px;white-space: pre;&quot;&gt;&lt;div&gt;&lt;span style=&quot;color: #dcdcaa;&quot;&gt;+ &lt;/span&gt;&lt;span style=&quot;color: #9cdcfe;&quot;&gt;externToPointer:&lt;/span&gt;&lt;span style=&quot;color: #9cdcfe;&quot;&gt;Map&lt;/span&gt;&lt;/div&gt;&lt;/div&gt;&lt;div&gt;&lt;br&gt;&lt;/div&gt;&lt;div&gt;&lt;div&gt;&lt;div style=&quot;color: #d4d4d4;background-color: #1e1e1e;font-family: &#39;Fira Code&#39;, Consolas, &#39;Courier New&#39;, monospace;font-weight: normal;font-size: 13px;line-height: 18px;white-space: pre;&quot;&gt;&lt;div&gt;&lt;span style=&quot;color: #dcdcaa;&quot;&gt;+ &lt;/span&gt;&lt;span style=&quot;color: #9cdcfe;&quot;&gt;pointerToExtern:&lt;/span&gt;&lt;span style=&quot;color: #9cdcfe;&quot;&gt;Map&lt;/span&gt;&lt;/div&gt;&lt;/div&gt;&lt;/div&gt;&lt;/div&gt;&lt;div&gt;&lt;br&gt;&lt;div style=&quot;color: #d4d4d4;background-color: #1e1e1e;font-family: &#39;Fira Code&#39;, Consolas, &#39;Courier New&#39;, monospace;font-weight: normal;font-size: 13px;line-height: 18px;white-space: pre;&quot;&gt;&lt;div&gt;&lt;span style=&quot;color: #dcdcaa;&quot;&gt;+ &lt;/span&gt;&lt;span style=&quot;color: #9cdcfe;&quot;&gt;instanceProperties:ExtTree&lt;/span&gt;&lt;/div&gt;&lt;/div&gt;&lt;div&gt;&lt;br&gt;&lt;/div&gt;&lt;div&gt;&lt;div&gt;&lt;div style=&quot;color: #d4d4d4;background-color: #1e1e1e;font-family: &#39;Fira Code&#39;, Consolas, &#39;Courier New&#39;, monospace;font-weight: normal;font-size: 13px;line-height: 18px;white-space: pre;&quot;&gt;&lt;div&gt;&lt;span style=&quot;color: #dcdcaa;&quot;&gt;+ &lt;/span&gt;&lt;span style=&quot;color: #9cdcfe;&quot;&gt;globalProperties:&lt;/span&gt;&lt;span style=&quot;color: #9cdcfe;&quot;&gt;ExtTree&lt;/span&gt;&lt;/div&gt;&lt;/div&gt;&lt;/div&gt;&lt;/div&gt;&lt;div&gt;&lt;br&gt;&lt;br&gt;&lt;/div&gt;&lt;/div&gt;&lt;/div&gt;&lt;div&gt;&lt;br&gt;&lt;/div&gt;&lt;span style=&quot;color: #dcdcaa;&quot;&gt;&lt;br&gt;&lt;/span&gt;&lt;span style=&quot;color: #dcdcaa;&quot;&gt;&lt;/span&gt;&lt;span style=&quot;color: #dcdcaa;&quot;&gt;&lt;/span&gt;" style="text;strokeColor=none;fillColor=none;align=left;verticalAlign=top;spacingLeft=4;spacingRight=4;overflow=hidden;rotatable=0;points=[[0,0.5],[1,0.5]];portConstraint=eastwest;whiteSpace=wrap;html=1;" vertex="1" parent="_7KpmntLeHWkFB2YpqdL-208">
          <mxGeometry y="26" width="240" height="174" as="geometry" />
        </mxCell>
        <mxCell id="_7KpmntLeHWkFB2YpqdL-210" value="" style="line;strokeWidth=1;fillColor=none;align=left;verticalAlign=middle;spacingTop=-1;spacingLeft=3;spacingRight=3;rotatable=0;labelPosition=right;points=[];portConstraint=eastwest;strokeColor=inherit;" vertex="1" parent="_7KpmntLeHWkFB2YpqdL-208">
          <mxGeometry y="200" width="240" height="8" as="geometry" />
        </mxCell>
        <mxCell id="_7KpmntLeHWkFB2YpqdL-211" value="&lt;div&gt;&lt;div style=&quot;color: #d4d4d4;background-color: #1e1e1e;font-family: &#39;Fira Code&#39;, Consolas, &#39;Courier New&#39;, monospace;font-weight: normal;font-size: 13px;line-height: 18px;white-space: pre;&quot;&gt;&lt;div&gt;&lt;span style=&quot;color: #dcdcaa;&quot;&gt;+ createPathFor&lt;/span&gt;&lt;span style=&quot;color: #d4d4d4;&quot;&gt;()&lt;/span&gt;&lt;/div&gt;&lt;/div&gt;&lt;/div&gt;&lt;br&gt;&lt;div style=&quot;color: #d4d4d4;background-color: #1e1e1e;font-family: &#39;Fira Code&#39;, Consolas, &#39;Courier New&#39;, monospace;font-weight: normal;font-size: 13px;line-height: 18px;white-space: pre;&quot;&gt;&lt;div&gt;&lt;span style=&quot;color: #dcdcaa;&quot;&gt;+ createAllPathsFor&lt;/span&gt;&lt;span style=&quot;color: #d4d4d4;&quot;&gt;(&lt;/span&gt;&lt;span style=&quot;color: #d4d4d4;&quot;&gt;)&lt;/span&gt;&lt;/div&gt;&lt;/div&gt;&lt;div&gt;&lt;br&gt;&lt;div&gt;&lt;div&gt;&lt;div style=&quot;color: #d4d4d4;background-color: #1e1e1e;font-family: &#39;Fira Code&#39;, Consolas, &#39;Courier New&#39;, monospace;font-weight: normal;font-size: 13px;line-height: 18px;white-space: pre;&quot;&gt;&lt;div&gt;&lt;span style=&quot;color: #dcdcaa;&quot;&gt;+ hasGlobal&lt;/span&gt;&lt;span style=&quot;color: #d4d4d4;&quot;&gt;()&lt;/span&gt;&lt;/div&gt;&lt;/div&gt;&lt;/div&gt;&lt;/div&gt;&lt;br&gt;&lt;div style=&quot;color: #d4d4d4;background-color: #1e1e1e;font-family: &#39;Fira Code&#39;, Consolas, &#39;Courier New&#39;, monospace;font-weight: normal;font-size: 13px;line-height: 18px;white-space: pre;&quot;&gt;&lt;div&gt;&lt;span style=&quot;color: #dcdcaa;&quot;&gt;+ hasInstance&lt;/span&gt;&lt;span style=&quot;color: #d4d4d4;&quot;&gt;(&lt;/span&gt;&lt;span style=&quot;color: #d4d4d4;&quot;&gt;)&lt;/span&gt;&lt;/div&gt;&lt;/div&gt;&lt;div&gt;&lt;br&gt;&lt;div&gt;&lt;div&gt;&lt;div style=&quot;color: #d4d4d4;background-color: #1e1e1e;font-family: &#39;Fira Code&#39;, Consolas, &#39;Courier New&#39;, monospace;font-weight: normal;font-size: 13px;line-height: 18px;white-space: pre;&quot;&gt;&lt;div&gt;&lt;span style=&quot;color: #dcdcaa;&quot;&gt;+ getGlobal&lt;/span&gt;&lt;span style=&quot;color: #d4d4d4;&quot;&gt;() &lt;/span&gt;&lt;/div&gt;&lt;/div&gt;&lt;/div&gt;&lt;/div&gt;&lt;/div&gt;&lt;/div&gt;&lt;div&gt;&lt;div&gt;&lt;div&gt;&lt;div&gt;&lt;div&gt;&lt;div&gt;&lt;div&gt;&lt;div&gt;&lt;div&gt;&lt;div&gt;&lt;br&gt;&lt;/div&gt;&lt;/div&gt;&lt;br&gt;&lt;br&gt;&lt;br&gt;&lt;/div&gt;&lt;/div&gt;&lt;/div&gt;&lt;/div&gt;&lt;/div&gt;&lt;/div&gt;&lt;/div&gt;&lt;/div&gt;" style="text;strokeColor=none;fillColor=none;align=left;verticalAlign=top;spacingLeft=4;spacingRight=4;overflow=hidden;rotatable=0;points=[[0,0.5],[1,0.5]];portConstraint=eastwest;whiteSpace=wrap;html=1;" vertex="1" parent="_7KpmntLeHWkFB2YpqdL-208">
          <mxGeometry y="208" width="240" height="162" as="geometry" />
        </mxCell>
        <mxCell id="_7KpmntLeHWkFB2YpqdL-212" style="edgeStyle=orthogonalEdgeStyle;rounded=0;orthogonalLoop=1;jettySize=auto;html=1;entryX=-0.004;entryY=0.046;entryDx=0;entryDy=0;entryPerimeter=0;" edge="1" parent="WIyWlLk6GJQsqaUBKTNV-1" source="_7KpmntLeHWkFB2YpqdL-51" target="_7KpmntLeHWkFB2YpqdL-208">
          <mxGeometry relative="1" as="geometry" />
        </mxCell>
        <mxCell id="_7KpmntLeHWkFB2YpqdL-217" value="&lt;div style=&quot;color: #d4d4d4;background-color: #1e1e1e;font-family: &#39;Fira Code&#39;, Consolas, &#39;Courier New&#39;, monospace;font-weight: normal;font-size: 13px;line-height: 18px;white-space: pre;&quot;&gt;&lt;div&gt;&lt;span style=&quot;color: #569cd6;&quot;&gt;class&lt;/span&gt;&lt;span style=&quot;color: #d4d4d4;&quot;&gt; &lt;/span&gt;&lt;span style=&quot;color: #4ec9b0;&quot;&gt;ExtTree&lt;/span&gt;&lt;/div&gt;&lt;/div&gt;" style="swimlane;fontStyle=1;align=center;verticalAlign=top;childLayout=stackLayout;horizontal=1;startSize=26;horizontalStack=0;resizeParent=1;resizeParentMax=0;resizeLast=0;collapsible=1;marginBottom=0;whiteSpace=wrap;html=1;" vertex="1" parent="WIyWlLk6GJQsqaUBKTNV-1">
          <mxGeometry x="1160" y="1410" width="180" height="170" as="geometry" />
        </mxCell>
        <mxCell id="_7KpmntLeHWkFB2YpqdL-218" value="&lt;div&gt;&lt;div&gt;&lt;br&gt;&lt;/div&gt;&lt;div&gt;&lt;div&gt;&lt;div style=&quot;color: #d4d4d4;background-color: #1e1e1e;font-family: &#39;Fira Code&#39;, Consolas, &#39;Courier New&#39;, monospace;font-weight: normal;font-size: 13px;line-height: 18px;white-space: pre;&quot;&gt;&lt;div&gt;&lt;span style=&quot;color: #dcdcaa;&quot;&gt;+ &lt;/span&gt;&lt;span style=&quot;color: #9cdcfe;&quot;&gt;getter:(...) -&amp;gt; ...&lt;/span&gt;&lt;/div&gt;&lt;/div&gt;&lt;/div&gt;&lt;/div&gt;&lt;br&gt;&lt;div style=&quot;color: #d4d4d4;background-color: #1e1e1e;font-family: &#39;Fira Code&#39;, Consolas, &#39;Courier New&#39;, monospace;font-weight: normal;font-size: 13px;line-height: 18px;white-space: pre;&quot;&gt;&lt;div&gt;&lt;span style=&quot;color: #dcdcaa;&quot;&gt;+ &lt;/span&gt;&lt;span style=&quot;color: #9cdcfe;&quot;&gt;doc:MemoryPointer&lt;/span&gt;&lt;/div&gt;&lt;/div&gt;&lt;div&gt;&lt;br&gt;&lt;/div&gt;&lt;div&gt;&lt;div&gt;&lt;div style=&quot;color: #d4d4d4;background-color: #1e1e1e;font-family: &#39;Fira Code&#39;, Consolas, &#39;Courier New&#39;, monospace;font-weight: normal;font-size: 13px;line-height: 18px;white-space: pre;&quot;&gt;&lt;div&gt;&lt;span style=&quot;color: #dcdcaa;&quot;&gt;+ &lt;/span&gt;&lt;span style=&quot;color: #9cdcfe;&quot;&gt;type:&lt;/span&gt;&lt;span style=&quot;color: #9cdcfe;&quot;&gt;MemoryPointer&lt;/span&gt;&lt;/div&gt;&lt;/div&gt;&lt;/div&gt;&lt;/div&gt;&lt;div&gt;&lt;br&gt;&lt;div style=&quot;color: #d4d4d4;background-color: #1e1e1e;font-family: &#39;Fira Code&#39;, Consolas, &#39;Courier New&#39;, monospace;font-weight: normal;font-size: 13px;line-height: 18px;white-space: pre;&quot;&gt;&lt;div&gt;&lt;span style=&quot;color: #dcdcaa;&quot;&gt;+ &lt;/span&gt;&lt;span style=&quot;color: #9cdcfe;&quot;&gt;properties:Map&lt;/span&gt;&lt;/div&gt;&lt;/div&gt;&lt;div&gt;&lt;br&gt;&lt;br&gt;&lt;/div&gt;&lt;/div&gt;&lt;/div&gt;&lt;div&gt;&lt;br&gt;&lt;/div&gt;&lt;span style=&quot;color: #dcdcaa;&quot;&gt;&lt;br&gt;&lt;/span&gt;&lt;span style=&quot;color: #dcdcaa;&quot;&gt;&lt;/span&gt;&lt;span style=&quot;color: #dcdcaa;&quot;&gt;&lt;/span&gt;" style="text;strokeColor=none;fillColor=none;align=left;verticalAlign=top;spacingLeft=4;spacingRight=4;overflow=hidden;rotatable=0;points=[[0,0.5],[1,0.5]];portConstraint=eastwest;whiteSpace=wrap;html=1;" vertex="1" parent="_7KpmntLeHWkFB2YpqdL-217">
          <mxGeometry y="26" width="180" height="144" as="geometry" />
        </mxCell>
        <mxCell id="_7KpmntLeHWkFB2YpqdL-223" value="" style="edgeStyle=orthogonalEdgeStyle;rounded=0;orthogonalLoop=1;jettySize=auto;html=1;entryX=1;entryY=0.118;entryDx=0;entryDy=0;entryPerimeter=0;" edge="1" parent="WIyWlLk6GJQsqaUBKTNV-1" source="_7KpmntLeHWkFB2YpqdL-209" target="_7KpmntLeHWkFB2YpqdL-217">
          <mxGeometry relative="1" as="geometry">
            <Array as="points">
              <mxPoint x="1360" y="1560" />
              <mxPoint x="1360" y="1430" />
            </Array>
          </mxGeometry>
        </mxCell>
        <mxCell id="_7KpmntLeHWkFB2YpqdL-224" value="" style="edgeStyle=orthogonalEdgeStyle;rounded=0;orthogonalLoop=1;jettySize=auto;html=1;entryX=1;entryY=0.118;entryDx=0;entryDy=0;entryPerimeter=0;" edge="1" parent="WIyWlLk6GJQsqaUBKTNV-1">
          <mxGeometry relative="1" as="geometry">
            <mxPoint x="1390" y="1520" as="sourcePoint" />
            <mxPoint x="1340" y="1430" as="targetPoint" />
            <Array as="points">
              <mxPoint x="1390" y="1520" />
              <mxPoint x="1360" y="1520" />
              <mxPoint x="1360" y="1430" />
            </Array>
          </mxGeometry>
        </mxCell>
        <mxCell id="_7KpmntLeHWkFB2YpqdL-226" value="&lt;div style=&quot;color: #d4d4d4;background-color: #1e1e1e;font-family: &#39;Fira Code&#39;, Consolas, &#39;Courier New&#39;, monospace;font-weight: normal;font-size: 13px;line-height: 18px;white-space: pre;&quot;&gt;&lt;div&gt;&lt;div style=&quot;color: #d4d4d4;background-color: #1e1e1e;font-family: &#39;Fira Code&#39;, Consolas, &#39;Courier New&#39;, monospace;font-weight: normal;font-size: 13px;line-height: 18px;white-space: pre;&quot;&gt;&lt;div&gt;&lt;span style=&quot;color: #569cd6;&quot;&gt;static &lt;/span&gt;&lt;span style=&quot;color: #569cd6;&quot;&gt;class&lt;/span&gt;&lt;span style=&quot;color: #d4d4d4;&quot;&gt; &lt;/span&gt;&lt;span style=&quot;color: #4ec9b0;&quot;&gt;ByteCode&lt;/span&gt;&lt;/div&gt;&lt;/div&gt;&lt;/div&gt;&lt;/div&gt;" style="swimlane;fontStyle=0;childLayout=stackLayout;horizontal=1;startSize=26;fillColor=none;horizontalStack=0;resizeParent=1;resizeParentMax=0;resizeLast=0;collapsible=1;marginBottom=0;whiteSpace=wrap;html=1;" vertex="1" parent="WIyWlLk6GJQsqaUBKTNV-1">
          <mxGeometry x="1680" y="130" width="240" height="90" as="geometry" />
        </mxCell>
        <mxCell id="_7KpmntLeHWkFB2YpqdL-227" value="&lt;div style=&quot;color: #d4d4d4;background-color: #1e1e1e;font-family: &#39;Fira Code&#39;, Consolas, &#39;Courier New&#39;, monospace;font-weight: normal;font-size: 13px;line-height: 18px;white-space: pre;&quot;&gt;&lt;div&gt;&lt;span style=&quot;color: #dcdcaa;&quot;&gt;+ compile&lt;/span&gt;&lt;span style=&quot;color: #d4d4d4;&quot;&gt;(&lt;/span&gt;&lt;span style=&quot;color: #d4d4d4;&quot;&gt;)&lt;/span&gt;&lt;/div&gt;&lt;/div&gt;&lt;div&gt;&lt;br&gt;&lt;/div&gt;&lt;div&gt;&lt;div&gt;&lt;div style=&quot;color: #d4d4d4;background-color: #1e1e1e;font-family: &#39;Fira Code&#39;, Consolas, &#39;Courier New&#39;, monospace;font-weight: normal;font-size: 13px;line-height: 18px;white-space: pre;&quot;&gt;&lt;div&gt;&lt;span style=&quot;color: #dcdcaa;&quot;&gt;+ decompile()&lt;/span&gt;&lt;/div&gt;&lt;/div&gt;&lt;/div&gt;&lt;/div&gt;" style="text;strokeColor=none;fillColor=none;align=left;verticalAlign=top;spacingLeft=4;spacingRight=4;overflow=hidden;rotatable=0;points=[[0,0.5],[1,0.5]];portConstraint=eastwest;whiteSpace=wrap;html=1;" vertex="1" parent="_7KpmntLeHWkFB2YpqdL-226">
          <mxGeometry y="26" width="240" height="64" as="geometry" />
        </mxCell>
        <mxCell id="_7KpmntLeHWkFB2YpqdL-259" value="&lt;div style=&quot;color: #d4d4d4;background-color: #1e1e1e;font-family: &#39;Fira Code&#39;, Consolas, &#39;Courier New&#39;, monospace;font-weight: normal;font-size: 13px;line-height: 18px;white-space: pre;&quot;&gt;&lt;div&gt;&lt;span style=&quot;color: #569cd6;&quot;&gt;class&lt;/span&gt;&lt;span style=&quot;color: #d4d4d4;&quot;&gt; &lt;/span&gt;&lt;span style=&quot;color: #4ec9b0;&quot;&gt;Little&lt;/span&gt;&lt;/div&gt;&lt;/div&gt;" style="swimlane;fontStyle=1;align=center;verticalAlign=top;childLayout=stackLayout;horizontal=1;startSize=26;horizontalStack=0;resizeParent=1;resizeParentMax=0;resizeLast=0;collapsible=1;marginBottom=0;whiteSpace=wrap;html=1;" vertex="1" parent="WIyWlLk6GJQsqaUBKTNV-1">
          <mxGeometry x="730" y="-410" width="240" height="638" as="geometry" />
        </mxCell>
        <mxCell id="_7KpmntLeHWkFB2YpqdL-260" value="&lt;div&gt;&lt;div&gt;&lt;br&gt;&lt;/div&gt;&lt;div&gt;&lt;div&gt;&lt;div style=&quot;color: #d4d4d4;background-color: #1e1e1e;font-family: &#39;Fira Code&#39;, Consolas, &#39;Courier New&#39;, monospace;font-weight: normal;font-size: 13px;line-height: 18px;white-space: pre;&quot;&gt;&lt;div&gt;&lt;span style=&quot;color: #dcdcaa;&quot;&gt;+ &lt;/span&gt;&lt;span style=&quot;color: #9cdcfe;&quot;&gt;externs:ExternalInterfacing&lt;/span&gt;&lt;/div&gt;&lt;/div&gt;&lt;/div&gt;&lt;/div&gt;&lt;br&gt;&lt;/div&gt;&lt;div style=&quot;color: #d4d4d4;background-color: #1e1e1e;font-family: &#39;Fira Code&#39;, Consolas, &#39;Courier New&#39;, monospace;font-weight: normal;font-size: 13px;line-height: 18px;white-space: pre;&quot;&gt;&lt;div&gt;&lt;span style=&quot;color: #dcdcaa;&quot;&gt;+ &lt;/span&gt;&lt;span style=&quot;color: #9cdcfe;&quot;&gt;storage:Storage&lt;/span&gt;&lt;/div&gt;&lt;/div&gt;&lt;div&gt;&lt;br&gt;&lt;/div&gt;&lt;div&gt;&lt;div&gt;&lt;div style=&quot;color: #d4d4d4;background-color: #1e1e1e;font-family: &#39;Fira Code&#39;, Consolas, &#39;Courier New&#39;, monospace;font-weight: normal;font-size: 13px;line-height: 18px;white-space: pre;&quot;&gt;&lt;div&gt;&lt;span style=&quot;color: #dcdcaa;&quot;&gt;+ &lt;/span&gt;&lt;span style=&quot;color: #9cdcfe;&quot;&gt;referrer&lt;/span&gt;&lt;span style=&quot;color: #9cdcfe;&quot;&gt;:Referrer&lt;/span&gt;&lt;/div&gt;&lt;/div&gt;&lt;/div&gt;&lt;/div&gt;&lt;br&gt;&lt;div style=&quot;color: #d4d4d4;background-color: #1e1e1e;font-family: &#39;Fira Code&#39;, Consolas, &#39;Courier New&#39;, monospace;font-weight: normal;font-size: 13px;line-height: 18px;white-space: pre;&quot;&gt;&lt;div&gt;&lt;span style=&quot;color: #dcdcaa;&quot;&gt;+ &lt;/span&gt;&lt;span style=&quot;color: #9cdcfe;&quot;&gt;constants:ConstantPool&lt;/span&gt;&lt;/div&gt;&lt;/div&gt;&lt;div&gt;&lt;br&gt;&lt;/div&gt;&lt;div&gt;&lt;div&gt;&lt;div style=&quot;color: #d4d4d4;background-color: #1e1e1e;font-family: &#39;Fira Code&#39;, Consolas, &#39;Courier New&#39;, monospace;font-weight: normal;font-size: 13px;line-height: 18px;white-space: pre;&quot;&gt;&lt;div&gt;&lt;span style=&quot;color: #dcdcaa;&quot;&gt;+ &lt;/span&gt;&lt;span style=&quot;color: #9cdcfe;&quot;&gt;operators:Operators&lt;/span&gt;&lt;/div&gt;&lt;/div&gt;&lt;/div&gt;&lt;/div&gt;&lt;br&gt;&lt;div style=&quot;color: #d4d4d4;background-color: #1e1e1e;font-family: &#39;Fira Code&#39;, Consolas, &#39;Courier New&#39;, monospace;font-weight: normal;font-size: 13px;line-height: 18px;white-space: pre;&quot;&gt;&lt;div&gt;&lt;span style=&quot;color: #dcdcaa;&quot;&gt;+ &lt;/span&gt;&lt;span style=&quot;color: #9cdcfe;&quot;&gt;memoryChunkSize:Int&lt;/span&gt;&lt;/div&gt;&lt;/div&gt;&lt;div&gt;&lt;br&gt;&lt;/div&gt;&lt;div&gt;&lt;div&gt;&lt;div style=&quot;color: #d4d4d4;background-color: #1e1e1e;font-family: &#39;Fira Code&#39;, Consolas, &#39;Courier New&#39;, monospace;font-weight: normal;font-size: 13px;line-height: 18px;white-space: pre;&quot;&gt;&lt;div&gt;&lt;span style=&quot;color: #dcdcaa;&quot;&gt;+ &lt;/span&gt;&lt;span style=&quot;color: #9cdcfe;&quot;&gt;currentMemorySize&lt;/span&gt;&lt;span style=&quot;color: #9cdcfe;&quot;&gt;:Int&lt;/span&gt;&lt;/div&gt;&lt;/div&gt;&lt;/div&gt;&lt;/div&gt;&lt;span style=&quot;color: #dcdcaa;&quot;&gt;&lt;br&gt;&lt;/span&gt;&lt;span style=&quot;color: #dcdcaa;&quot;&gt;&lt;/span&gt;" style="text;strokeColor=none;fillColor=none;align=left;verticalAlign=top;spacingLeft=4;spacingRight=4;overflow=hidden;rotatable=0;points=[[0,0.5],[1,0.5]];portConstraint=eastwest;whiteSpace=wrap;html=1;" vertex="1" parent="_7KpmntLeHWkFB2YpqdL-259">
          <mxGeometry y="26" width="240" height="244" as="geometry" />
        </mxCell>
        <mxCell id="_7KpmntLeHWkFB2YpqdL-261" value="" style="line;strokeWidth=1;fillColor=none;align=left;verticalAlign=middle;spacingTop=-1;spacingLeft=3;spacingRight=3;rotatable=0;labelPosition=right;points=[];portConstraint=eastwest;strokeColor=inherit;" vertex="1" parent="_7KpmntLeHWkFB2YpqdL-259">
          <mxGeometry y="270" width="240" height="8" as="geometry" />
        </mxCell>
        <mxCell id="_7KpmntLeHWkFB2YpqdL-262" value="&lt;div&gt;&lt;div style=&quot;color: #d4d4d4;background-color: #1e1e1e;font-family: &#39;Fira Code&#39;, Consolas, &#39;Courier New&#39;, monospace;font-weight: normal;font-size: 13px;line-height: 18px;white-space: pre;&quot;&gt;&lt;div&gt;&lt;b&gt;&lt;span style=&quot;color: #dcdcaa;&quot;&gt;read()&lt;/span&gt;&lt;/b&gt;&lt;/div&gt;&lt;/div&gt;&lt;/div&gt;&lt;div&gt;&lt;br&gt;&lt;/div&gt;&lt;div style=&quot;color: #d4d4d4;background-color: #1e1e1e;font-family: &#39;Fira Code&#39;, Consolas, &#39;Courier New&#39;, monospace;font-weight: normal;font-size: 13px;line-height: 18px;white-space: pre;&quot;&gt;&lt;div&gt;&lt;span style=&quot;color: #dcdcaa;&quot;&gt;+ readFrom&lt;/span&gt;&lt;span style=&quot;color: #d4d4d4;&quot;&gt;(&lt;/span&gt;&lt;span style=&quot;color: #d4d4d4;&quot;&gt;)&lt;/span&gt;&lt;/div&gt;&lt;/div&gt;&lt;div&gt;&lt;br&gt;&lt;/div&gt;&lt;div&gt;&lt;div&gt;&lt;div style=&quot;color: #d4d4d4;background-color: #1e1e1e;font-family: &#39;Fira Code&#39;, Consolas, &#39;Courier New&#39;, monospace;font-weight: normal;font-size: 13px;line-height: 18px;white-space: pre;&quot;&gt;&lt;div&gt;&lt;span style=&quot;color: #dcdcaa;&quot;&gt;+ write()&lt;/span&gt;&lt;/div&gt;&lt;/div&gt;&lt;/div&gt;&lt;/div&gt;&lt;div&gt;&lt;br&gt;&lt;div style=&quot;color: #d4d4d4;background-color: #1e1e1e;font-family: &#39;Fira Code&#39;, Consolas, &#39;Courier New&#39;, monospace;font-weight: normal;font-size: 13px;line-height: 18px;white-space: pre;&quot;&gt;&lt;div&gt;&lt;span style=&quot;color: #dcdcaa;&quot;&gt;+ set&lt;/span&gt;&lt;span style=&quot;color: #d4d4d4;&quot;&gt;(&lt;/span&gt;&lt;span style=&quot;color: #d4d4d4;&quot;&gt;)&lt;/span&gt;&lt;/div&gt;&lt;/div&gt;&lt;div&gt;&lt;br&gt;&lt;/div&gt;&lt;div&gt;&lt;div&gt;&lt;div style=&quot;color: #d4d4d4;background-color: #1e1e1e;font-family: &#39;Fira Code&#39;, Consolas, &#39;Courier New&#39;, monospace;font-weight: normal;font-size: 13px;line-height: 18px;white-space: pre;&quot;&gt;&lt;div&gt;&lt;span style=&quot;color: #dcdcaa;&quot;&gt;+ store&lt;/span&gt;&lt;span style=&quot;color: #d4d4d4;&quot;&gt;()&lt;/span&gt;&lt;/div&gt;&lt;/div&gt;&lt;/div&gt;&lt;/div&gt;&lt;div&gt;&lt;br&gt;&lt;div style=&quot;color: #d4d4d4;background-color: #1e1e1e;font-family: &#39;Fira Code&#39;, Consolas, &#39;Courier New&#39;, monospace;font-weight: normal;font-size: 13px;line-height: 18px;white-space: pre;&quot;&gt;&lt;div&gt;&lt;span style=&quot;color: #dcdcaa;&quot;&gt;+ retrieve&lt;/span&gt;&lt;span style=&quot;color: #d4d4d4;&quot;&gt;(&lt;/span&gt;&lt;span style=&quot;color: #d4d4d4;&quot;&gt;)&lt;/span&gt;&lt;/div&gt;&lt;/div&gt;&lt;div&gt;&lt;br&gt;&lt;/div&gt;&lt;div&gt;&lt;div&gt;&lt;div style=&quot;color: #d4d4d4;background-color: #1e1e1e;font-family: &#39;Fira Code&#39;, Consolas, &#39;Courier New&#39;, monospace;font-weight: normal;font-size: 13px;line-height: 18px;white-space: pre;&quot;&gt;&lt;div&gt;&lt;span style=&quot;color: #dcdcaa;&quot;&gt;+ allocate&lt;/span&gt;&lt;span style=&quot;color: #d4d4d4;&quot;&gt;()&lt;/span&gt;&lt;/div&gt;&lt;/div&gt;&lt;/div&gt;&lt;/div&gt;&lt;div&gt;&lt;br&gt;&lt;div style=&quot;color: #d4d4d4;background-color: #1e1e1e;font-family: &#39;Fira Code&#39;, Consolas, &#39;Courier New&#39;, monospace;font-weight: normal;font-size: 13px;line-height: 18px;white-space: pre;&quot;&gt;&lt;div&gt;&lt;span style=&quot;color: #dcdcaa;&quot;&gt;+ free&lt;/span&gt;&lt;span style=&quot;color: #d4d4d4;&quot;&gt;(&lt;/span&gt;&lt;span style=&quot;color: #d4d4d4;&quot;&gt;)&lt;/span&gt;&lt;/div&gt;&lt;/div&gt;&lt;div&gt;&lt;br&gt;&lt;/div&gt;&lt;div&gt;&lt;div&gt;&lt;div style=&quot;color: #d4d4d4;background-color: #1e1e1e;font-family: &#39;Fira Code&#39;, Consolas, &#39;Courier New&#39;, monospace;font-weight: normal;font-size: 13px;line-height: 18px;white-space: pre;&quot;&gt;&lt;div&gt;&lt;span style=&quot;color: #dcdcaa;&quot;&gt;+ sizeOf&lt;/span&gt;&lt;span style=&quot;color: #d4d4d4;&quot;&gt;()&lt;/span&gt;&lt;/div&gt;&lt;/div&gt;&lt;/div&gt;&lt;/div&gt;&lt;div&gt;&lt;br&gt;&lt;/div&gt;&lt;div&gt;&lt;div style=&quot;color: #d4d4d4;background-color: #1e1e1e;font-family: &#39;Fira Code&#39;, Consolas, &#39;Courier New&#39;, monospace;font-weight: normal;font-size: 13px;line-height: 18px;white-space: pre;&quot;&gt;&lt;div&gt;&lt;span style=&quot;color: #dcdcaa;&quot;&gt;+ getTypeName&lt;/span&gt;&lt;span style=&quot;color: #d4d4d4;&quot;&gt;(&lt;/span&gt;&lt;span style=&quot;color: #d4d4d4;&quot;&gt;)&lt;/span&gt;&lt;/div&gt;&lt;/div&gt;&lt;div&gt;&lt;br&gt;&lt;/div&gt;&lt;div&gt;&lt;div&gt;&lt;div style=&quot;color: #d4d4d4;background-color: #1e1e1e;font-family: &#39;Fira Code&#39;, Consolas, &#39;Courier New&#39;, monospace;font-weight: normal;font-size: 13px;line-height: 18px;white-space: pre;&quot;&gt;&lt;div&gt;&lt;span style=&quot;color: #dcdcaa;&quot;&gt;+ getTypeInformation&lt;/span&gt;&lt;span style=&quot;color: #d4d4d4;&quot;&gt;()&lt;/span&gt;&lt;/div&gt;&lt;/div&gt;&lt;/div&gt;&lt;/div&gt;&lt;div&gt;&lt;br&gt;&lt;div style=&quot;color: #d4d4d4;background-color: #1e1e1e;font-family: &#39;Fira Code&#39;, Consolas, &#39;Courier New&#39;, monospace;font-weight: normal;font-size: 13px;line-height: 18px;white-space: pre;&quot;&gt;&lt;div&gt;&lt;span style=&quot;color: #dcdcaa;&quot;&gt;+ reset&lt;/span&gt;&lt;span style=&quot;color: #d4d4d4;&quot;&gt;(&lt;/span&gt;&lt;span style=&quot;color: #d4d4d4;&quot;&gt;)&lt;/span&gt;&lt;/div&gt;&lt;/div&gt;&lt;div&gt;&lt;br&gt;&lt;/div&gt;&lt;div&gt;&lt;br&gt;&lt;/div&gt;&lt;/div&gt;&lt;br&gt;&lt;br&gt;&lt;/div&gt;&lt;/div&gt;&lt;/div&gt;&lt;/div&gt;" style="text;strokeColor=none;fillColor=none;align=left;verticalAlign=top;spacingLeft=4;spacingRight=4;overflow=hidden;rotatable=0;points=[[0,0.5],[1,0.5]];portConstraint=eastwest;whiteSpace=wrap;html=1;" vertex="1" parent="_7KpmntLeHWkFB2YpqdL-259">
          <mxGeometry y="278" width="240" height="360" as="geometry" />
        </mxCell>
      </root>
    </mxGraphModel>
  </diagram>
</mxfile>
